<svg width="150" height="20" viewBox="0 0 150 20" fill="none" xmlns="http://www.w3.org/2000/svg">
<path d="M25.8961 0.542969H31.1469L20.0885 17.2171C19.6955 17.8175 19.087 18.3329 18.3248 18.7109C17.5397 19.0892 16.6084 19.2824 15.6617 19.2634C14.7239 19.2773 13.802 19.0892 13.0161 18.7235C12.25 18.3532 11.6401 17.8404 11.2524 17.2405L0 0.542969H5.25079L15.6742 16.0041L25.8961 0.542969Z" fill="#464D9B"/>
<path d="M52.0719 0.543807V3.78326H35.405V7.95854H48.411V11.1566H35.405V13.6438C35.3987 13.9628 35.4875 14.2792 35.6656 14.5718C35.8438 14.8644 36.1071 15.1266 36.438 15.3409C37.1113 15.8018 38.0126 16.0535 38.945 16.041H52.0719V19.2804H38.945C37.8402 19.2857 36.745 19.1347 35.7225 18.8359C34.741 18.5459 33.8439 18.1279 33.0769 17.6031C32.3225 17.0919 31.7149 16.4806 31.288 15.8034C30.8532 15.1259 30.6289 14.3891 30.6304 13.6438V2.96799C30.6223 2.64462 30.7104 2.32371 30.8889 2.02648C31.0674 1.72926 31.3323 1.46251 31.6659 1.24389C32.0048 1.01339 32.404 0.832904 32.8407 0.712773C33.2774 0.592641 33.7429 0.535223 34.2107 0.543807H52.0719Z" fill="#464D9B"/>
<path d="M78.8836 6.57734C78.8904 7.3804 78.6532 8.17495 78.1882 8.90615C77.7338 9.62362 77.0847 10.2696 76.2784 10.8066C75.4538 11.352 74.4966 11.785 73.4539 12.0844C72.3619 12.4041 71.1924 12.5667 70.0122 12.5631H68.183L77.1325 19.2706H70.69L61.7782 12.5829H61.7304C61.2795 12.2181 61.0257 11.7503 61.0148 11.2637C61.0146 11.0066 61.0908 10.7523 61.2385 10.5177C61.3862 10.2832 61.6019 10.0737 61.8715 9.90318C62.1374 9.71648 62.4524 9.56917 62.7983 9.46972C63.1442 9.37026 63.5143 9.32063 63.8871 9.32367H70.0122C70.5509 9.32677 71.0851 9.25399 71.5844 9.10951C72.064 8.96975 72.5076 8.7739 72.8971 8.53001C73.2814 8.2881 73.5867 7.98892 73.7916 7.65356C74.0036 7.31371 74.1132 6.94581 74.1132 6.57374C74.1132 6.20168 74.0036 5.83377 73.7916 5.49393C73.5852 5.15925 73.288 4.85709 72.9173 4.60488C72.5359 4.35018 72.0905 4.14928 71.6046 4.01278C71.0981 3.8685 70.5575 3.79518 70.0122 3.79682H59.4628V19.258H54.7386V2.96716C54.7326 2.64814 54.8216 2.33187 54.9997 2.03928C55.1778 1.7467 55.4409 1.4845 55.7716 1.27004C56.1065 1.04074 56.5014 0.860876 56.9338 0.740746C57.3661 0.620615 57.8274 0.562581 58.2912 0.569964H59.4628V0.542969H61.9823V0.569964H70.0172C72.3458 0.562124 74.5894 1.19426 76.2834 2.33546C77.0879 2.87785 77.7366 3.52705 78.1932 4.24674C78.6564 4.97885 78.892 5.77397 78.8836 6.57734Z" fill="#464D9B"/>
<path d="M77.8096 0.542969H99.1302V3.78242H90.8559V19.2706H86.0838V3.77522H77.8096V0.542969Z" fill="#464D9B"/>
<path d="M121.445 0.54377V3.78322H104.78V7.95851H117.789V11.1566H104.78V13.6437C104.777 13.9618 104.868 14.2767 105.048 14.5677C105.228 14.8587 105.492 15.1191 105.823 15.3319C106.156 15.5604 106.548 15.7399 106.978 15.86C107.408 15.9802 107.866 16.0386 108.328 16.0319H121.445V19.2714H108.318C107.213 19.2765 106.118 19.1254 105.095 18.8269C104.115 18.5394 103.219 18.1244 102.452 17.6031C101.698 17.0914 101.091 16.4802 100.663 15.8034C100.228 15.1258 100.004 14.3891 100.005 13.6437V2.96796C99.9967 2.64486 100.084 2.32411 100.262 2.0269C100.439 1.72969 100.703 1.4628 101.036 1.24385C101.375 1.01351 101.774 0.833134 102.211 0.713013C102.648 0.592892 103.113 0.535383 103.581 0.54377H121.445Z" fill="#464D9B"/>
<path opacity="0.2" d="M149.61 0.542969L139.28 9.91757L149.583 19.2634H143.644L136.325 12.6045L128.965 19.2634H123.039L133.342 9.91757L123.039 0.569964V0.542969H128.965L136.325 7.22343L143.684 0.542969H149.61Z" fill="#464D9B"/>
<path d="M147.526 14.3841C147.425 14.3112 147.359 14.218 147.336 14.1172C147.312 14.0164 147.333 13.9129 147.395 13.8208C148.185 12.6419 148.599 11.3526 148.608 10.0457C148.618 8.73871 148.221 7.44653 147.448 6.26208C147.37 6.14275 147.363 6.00641 147.426 5.88305C147.49 5.75969 147.619 5.65942 147.787 5.60429C147.954 5.54916 148.144 5.54369 148.317 5.58909C148.49 5.63448 148.63 5.72702 148.707 5.84635C149.567 7.16262 150.009 8.59856 149.999 10.0511C149.99 11.5036 149.531 12.9366 148.655 14.2473C148.607 14.3189 148.536 14.3813 148.447 14.4291C148.359 14.477 148.255 14.509 148.146 14.5224C148.037 14.5358 147.924 14.5302 147.819 14.5062C147.713 14.4821 147.617 14.4402 147.538 14.3841H147.526Z" fill="url(#paint0_linear_14957_33079)"/>
<path d="M130.451 1.86305C130.371 1.80689 130.312 1.73779 130.278 1.6617C130.245 1.58561 130.237 1.5048 130.257 1.42621C130.276 1.34761 130.322 1.27359 130.391 1.2105C130.459 1.1474 130.548 1.09712 130.65 1.06398C132.492 0.451438 134.5 0.137495 136.532 0.144651C138.564 0.151807 140.568 0.479886 142.401 1.10537C142.484 1.13326 142.558 1.17252 142.62 1.22089C142.681 1.26927 142.729 1.32582 142.759 1.38732C142.79 1.44882 142.804 1.51406 142.8 1.57932C142.795 1.64458 142.773 1.70858 142.734 1.76766C142.695 1.82675 142.64 1.87976 142.572 1.92367C142.504 1.96759 142.425 2.00155 142.339 2.02361C142.253 2.04567 142.162 2.0554 142.07 2.05224C141.979 2.04909 141.889 2.03311 141.807 2.00522C140.156 1.44117 138.351 1.1454 136.521 1.13917C134.691 1.13295 132.882 1.41643 131.224 1.96923C131.096 2.00972 130.953 2.02125 130.814 2.00228C130.676 1.98331 130.549 1.93475 130.451 1.86305Z" fill="url(#paint1_linear_14957_33079)"/>
<path d="M124.084 14.0997C124.027 14.0581 123.98 14.0101 123.945 13.9576C123.087 12.6417 122.648 11.2065 122.658 9.75493C122.669 8.30339 123.129 6.87149 124.006 5.56199C124.085 5.44266 124.227 5.35069 124.401 5.30631C124.576 5.26193 124.767 5.26877 124.934 5.32533C125.101 5.38189 125.23 5.48354 125.292 5.60791C125.354 5.73228 125.345 5.86919 125.266 5.98852C124.476 7.16739 124.061 8.45666 124.052 9.76363C124.043 11.0706 124.439 12.3628 125.213 13.5472C125.28 13.6529 125.294 13.7721 125.251 13.8842C125.208 13.9963 125.112 14.0941 124.978 14.1606C124.845 14.2272 124.683 14.2582 124.521 14.2484C124.359 14.2386 124.207 14.1885 124.091 14.1069L124.084 14.0997Z" fill="url(#paint2_linear_14957_33079)"/>
<path d="M130.049 18.6041C129.932 18.5217 129.861 18.4124 129.846 18.2958C129.832 18.1792 129.876 18.0627 129.971 17.9671C130.065 17.8715 130.204 17.803 130.363 17.7736C130.522 17.7443 130.69 17.756 130.837 17.8068C132.237 18.2828 133.75 18.5667 135.297 18.6437C135.682 18.6635 136.075 18.6707 136.461 18.6635C138.172 18.6391 139.858 18.3602 141.409 17.8446C141.492 17.8172 141.582 17.8017 141.673 17.799C141.764 17.7963 141.855 17.8064 141.94 17.8288C142.026 17.8512 142.105 17.8854 142.172 17.9295C142.239 17.9736 142.293 18.0267 142.332 18.0858C142.37 18.1449 142.392 18.2088 142.396 18.2739C142.399 18.3389 142.385 18.4039 142.354 18.4651C142.322 18.5262 142.275 18.5824 142.213 18.6303C142.151 18.6783 142.077 18.7171 141.994 18.7445C140.269 19.3179 138.396 19.6286 136.494 19.6569C136.063 19.6569 135.627 19.6569 135.199 19.6335C133.479 19.5493 131.798 19.2336 130.243 18.7031C130.17 18.6786 130.105 18.6451 130.049 18.6041Z" fill="url(#paint3_linear_14957_33079)"/>
<path d="M147.645 2.53001L141.376 7.00224L140.396 6.30036L141.129 5.77845L142.324 4.9236C140.901 4.05348 139.142 3.51296 137.279 3.37378C135.417 3.23459 133.539 3.50334 131.895 4.14433C131.734 4.20734 131.544 4.22197 131.367 4.18501C131.191 4.14805 131.042 4.06253 130.954 3.94726C130.866 3.83199 130.845 3.69642 130.897 3.57036C130.949 3.4443 131.069 3.33808 131.23 3.27508C133.137 2.53144 135.317 2.22348 137.476 2.39275C139.636 2.56203 141.671 3.2004 143.306 4.22172L145.859 2.39863L146.657 1.82812C146.672 2.00964 146.778 2.18118 146.957 2.31044C147.138 2.44439 147.385 2.52309 147.645 2.53001Z" fill="url(#paint4_linear_14957_33079)"/>
<path d="M149.107 0.769808C148.771 0.535292 148.331 0.391856 147.863 0.364259C147.395 0.336662 146.928 0.426636 146.543 0.61865C146.158 0.810664 145.879 1.09267 145.754 1.41598C145.629 1.73929 145.666 2.08362 145.859 2.38953C145.958 2.54292 146.094 2.68248 146.262 2.80166C146.448 2.93579 146.67 3.04225 146.914 3.11491C147.158 3.18756 147.42 3.22497 147.684 3.22497C147.949 3.22497 148.211 3.18756 148.455 3.11491C148.699 3.04225 148.92 2.93579 149.107 2.80166C149.483 2.53183 149.694 2.16654 149.694 1.78573C149.694 1.40493 149.483 1.03964 149.107 0.769808ZM148.414 2.30135C148.221 2.43916 147.959 2.51657 147.686 2.51657C147.413 2.51657 147.151 2.43916 146.957 2.30135C146.764 2.1634 146.655 1.97622 146.655 1.78097C146.655 1.58572 146.763 1.3984 146.956 1.26022C147.149 1.12204 147.411 1.04432 147.685 1.04415C147.958 1.04398 148.22 1.12138 148.414 1.25932C148.51 1.32769 148.586 1.4089 148.638 1.49831C148.69 1.58771 148.716 1.68355 148.716 1.78034C148.716 1.87712 148.69 1.97296 148.638 2.06236C148.586 2.15177 148.51 2.23298 148.414 2.30135Z" fill="url(#paint5_linear_14957_33079)"/>
<path d="M141.418 16.5511C139.965 17.1205 138.345 17.4374 136.688 17.4761H136.399C133.803 17.4923 131.291 16.8232 129.344 15.5972L125.978 17.9944C125.968 17.8111 125.861 17.6373 125.678 17.5085C125.497 17.3774 125.253 17.3008 124.995 17.2944L125.794 16.7238L128.356 14.908L129.339 14.2061L130.533 13.3512L131.269 12.8203L131.503 12.9895L132.007 13.3494L132.259 13.5294L131.521 14.0477L130.321 14.908C131.026 15.3415 131.819 15.6965 132.672 15.9608C133.802 16.3118 135.02 16.4955 136.253 16.5007H136.391C137.914 16.4951 139.41 16.2179 140.745 15.6944C140.825 15.6613 140.913 15.6399 141.005 15.6315C141.097 15.6231 141.19 15.6278 141.279 15.6455C141.368 15.6631 141.452 15.6933 141.524 15.7342C141.597 15.7751 141.658 15.826 141.702 15.8839C141.747 15.9417 141.775 16.0053 141.785 16.071C141.795 16.1367 141.786 16.2032 141.76 16.2665C141.733 16.3298 141.69 16.3887 141.631 16.4397C141.572 16.4907 141.5 16.5329 141.418 16.5637V16.5511Z" fill="url(#paint6_linear_14957_33079)"/>
<path d="M126.788 17.4187C126.687 17.2659 126.551 17.1265 126.385 17.0066C126.217 16.8866 126.021 16.7891 125.805 16.7186C125.375 16.5768 124.889 16.5476 124.432 16.6362C123.975 16.7247 123.577 16.9253 123.306 17.2028C123.035 17.4803 122.91 17.817 122.952 18.1539C122.994 18.4907 123.201 18.8062 123.537 19.0451C123.872 19.2839 124.314 19.4308 124.786 19.4601C125.257 19.4893 125.728 19.399 126.116 19.205C126.504 19.011 126.784 18.7257 126.907 18.399C127.029 18.0724 126.987 17.7253 126.788 17.4187ZM125.689 18.5435C125.568 18.6292 125.418 18.6919 125.254 18.726C125.09 18.7601 124.916 18.7645 124.749 18.7389C124.582 18.7132 124.427 18.6583 124.297 18.5791C124.167 18.4998 124.067 18.3988 124.005 18.285C123.943 18.1711 123.922 18.0482 123.943 17.9271C123.965 17.806 124.028 17.6906 124.127 17.5913C124.227 17.492 124.359 17.4119 124.513 17.3582C124.666 17.3045 124.836 17.2789 125.006 17.2837C125.264 17.2901 125.508 17.3667 125.689 17.4979C125.872 17.6266 125.979 17.8004 125.989 17.9838C125.996 18.0863 125.973 18.1886 125.921 18.2844C125.869 18.3801 125.79 18.4671 125.689 18.5399V18.5435Z" fill="url(#paint7_linear_14957_33079)"/>
<path d="M129.815 5.26194C128.51 6.19303 127.627 7.38263 127.28 8.67649C126.933 9.97036 127.139 11.3088 127.869 12.5183C127.985 12.7091 128.109 12.8944 128.247 13.0744C128.291 13.1315 128.319 13.1941 128.328 13.2588C128.338 13.3235 128.33 13.3889 128.304 13.4513C128.279 13.5137 128.236 13.5719 128.179 13.6226C128.122 13.6733 128.051 13.7154 127.972 13.7466C127.892 13.7778 127.804 13.7974 127.713 13.8044C127.623 13.8114 127.531 13.8056 127.444 13.7873C127.356 13.769 127.275 13.7386 127.204 13.6978C127.133 13.657 127.074 13.6066 127.03 13.5495C126.869 13.3426 126.726 13.1302 126.592 12.9124C125.801 11.5973 125.547 10.1492 125.859 8.73523C126.171 7.3213 127.036 5.99926 128.356 4.9218L125.01 2.53001C125.265 2.51989 125.505 2.44244 125.684 2.31271C125.864 2.18298 125.969 2.01025 125.98 1.82812L126.779 2.39863L130.306 4.9182C130.147 5.02978 129.978 5.14316 129.815 5.26194Z" fill="url(#paint8_linear_14957_33079)"/>
<path d="M126.386 0.775534C126.125 0.588846 125.798 0.456727 125.44 0.393563C125.082 0.330399 124.707 0.338611 124.355 0.417305C124.003 0.495999 123.688 0.642159 123.444 0.83987C123.201 1.03758 123.037 1.27926 122.973 1.5386C122.908 1.79794 122.944 2.065 123.077 2.31069C123.21 2.55638 123.435 2.77129 123.727 2.93202C124.019 3.09275 124.368 3.19314 124.734 3.22225C125.101 3.25137 125.472 3.20809 125.806 3.09714C126.021 3.0247 126.217 2.92672 126.386 2.80739C126.552 2.68772 126.689 2.54827 126.789 2.39526C126.961 2.12819 127.015 1.82979 126.943 1.54022C126.871 1.25065 126.676 0.983784 126.386 0.775534ZM125.69 2.30707C125.497 2.44489 125.235 2.52229 124.962 2.52229C124.689 2.52229 124.427 2.44489 124.234 2.30707C124.114 2.22015 124.026 2.11328 123.978 1.9961C123.931 1.87891 123.924 1.75509 123.96 1.63577C123.996 1.51645 124.073 1.40537 124.184 1.31255C124.295 1.21972 124.436 1.14805 124.596 1.10399C124.755 1.05992 124.927 1.04485 125.097 1.06013C125.266 1.07541 125.428 1.12055 125.567 1.1915C125.706 1.26245 125.818 1.35698 125.893 1.46658C125.968 1.57618 126.004 1.69741 125.998 1.81936C125.987 2.00409 125.876 2.17873 125.69 2.30707Z" fill="url(#paint9_linear_14957_33079)"/>
<path d="M147.645 17.2924C147.388 17.2988 147.143 17.3755 146.962 17.5066C146.781 17.6364 146.675 17.8096 146.663 17.9925L142.321 14.906C142.5 14.7998 142.669 14.6865 142.825 14.5695C144.232 13.5621 145.145 12.2567 145.427 10.8482C145.709 9.43968 145.345 8.00382 144.39 6.75521C144.336 6.682 144.307 6.60048 144.307 6.51765C144.306 6.45283 144.324 6.38861 144.359 6.32869C144.393 6.26877 144.444 6.21433 144.508 6.16851C144.584 6.11429 144.677 6.0734 144.779 6.04906C144.881 6.02472 144.989 6.01759 145.096 6.02823C145.202 6.03887 145.304 6.06698 145.392 6.11037C145.481 6.15376 145.554 6.21123 145.607 6.27829C146.648 7.64013 147.081 9.19731 146.845 10.74C146.609 12.2826 145.717 13.7366 144.289 14.906L146.839 16.7201L147.645 17.2924Z" fill="url(#paint10_linear_14957_33079)"/>
<path d="M149.105 16.9997C148.814 16.7917 148.44 16.6524 148.035 16.6006C147.629 16.5488 147.211 16.587 146.837 16.7099C146.623 16.7813 146.427 16.8795 146.26 16.9997C145.978 17.2008 145.785 17.4573 145.706 17.7368C145.628 18.0162 145.667 18.306 145.82 18.5694C145.972 18.8329 146.23 19.0581 146.562 19.2166C146.894 19.375 147.284 19.4596 147.683 19.4596C148.082 19.4596 148.472 19.375 148.803 19.2166C149.135 19.0581 149.393 18.8329 149.546 18.5694C149.698 18.306 149.737 18.0162 149.659 17.7368C149.581 17.4573 149.388 17.2008 149.105 16.9997ZM148.412 18.5366C148.219 18.6748 147.957 18.7525 147.684 18.7527C147.41 18.7529 147.148 18.6755 146.955 18.5375C146.761 18.3996 146.652 18.2124 146.652 18.0171C146.652 17.8219 146.76 17.6346 146.953 17.4964C147.136 17.364 147.383 17.2873 147.644 17.2822C147.853 17.2735 148.061 17.3107 148.24 17.3889C148.419 17.4671 148.56 17.5824 148.644 17.7195C148.729 17.8566 148.753 18.0089 148.712 18.1559C148.672 18.3029 148.57 18.4377 148.42 18.542L148.412 18.5366Z" fill="url(#paint11_linear_14957_33079)"/>
<path d="M142.102 6.47217C140.827 5.37555 138.995 4.68563 137.008 4.55417C135.02 4.42271 133.042 4.86049 131.506 5.77119C129.971 6.68189 129.005 7.99093 128.821 9.41032C128.637 10.8297 129.25 12.2432 130.525 13.3398C130.661 13.4598 130.805 13.5732 130.956 13.6799C131.13 13.8068 131.313 13.927 131.505 14.0399C132.955 14.9011 134.805 15.3421 136.689 15.2754C138.573 15.2088 140.353 14.6394 141.677 13.6799L141.873 13.5342C143.1 12.5759 143.8 11.3323 143.842 10.0339C143.884 8.73544 143.266 7.47008 142.102 6.47217ZM138.575 13.9823C137.119 14.396 135.496 14.396 134.04 13.9823C133.573 13.8477 133.132 13.6731 132.725 13.4622C133.036 12.9695 133.54 12.5513 134.175 12.2575C134.81 11.9636 135.551 11.8064 136.307 11.8047H136.323C137.082 11.8045 137.825 11.9608 138.463 12.2548C139.101 12.5488 139.607 12.968 139.92 13.4622C139.509 13.6749 139.061 13.8496 138.588 13.9823H138.575ZM135.048 9.90598C135.047 9.75664 135.098 9.60952 135.196 9.47762C135.294 9.34572 135.436 9.23312 135.61 9.14976C135.783 9.06641 135.983 9.01488 136.191 8.99973C136.399 8.98458 136.609 9.00627 136.802 9.06289C136.996 9.11951 137.167 9.20932 137.3 9.32436C137.433 9.4394 137.525 9.57614 137.567 9.72248C137.608 9.86881 137.599 10.0202 137.539 10.1634C137.48 10.3065 137.372 10.4369 137.225 10.5431L137.204 10.5575C137.085 10.6407 136.944 10.7061 136.789 10.75C136.487 10.834 136.153 10.834 135.851 10.75C135.687 10.7036 135.539 10.6331 135.415 10.5431C135.299 10.4594 135.206 10.36 135.143 10.2507C135.08 10.1414 135.047 10.0242 135.048 9.90598ZM140.979 12.7585C140.398 12.0181 139.487 11.4377 138.391 11.11L138.414 11.0938V11.0776C138.723 10.7958 138.914 10.4573 138.966 10.1012C139.017 9.74512 138.927 9.38585 138.705 9.0648C138.484 8.74374 138.139 8.47395 137.712 8.28649C137.285 8.09904 136.793 8.00154 136.292 8.00523C135.791 8.00892 135.301 8.11365 134.88 8.30735C134.458 8.50106 134.122 8.77586 133.909 9.10011C133.697 9.42437 133.617 9.78488 133.679 10.1401C133.741 10.4954 133.942 10.831 134.259 11.1082C133.158 11.4354 132.244 12.0172 131.661 12.7603C130.898 12.1236 130.406 11.3439 130.244 10.5136C130.082 9.68334 130.256 8.83726 130.747 8.07567C131.237 7.31408 132.023 6.66893 133.012 6.21669C134 5.76445 135.149 5.52409 136.323 5.52409C137.496 5.52409 138.645 5.76445 139.633 6.21669C140.622 6.66893 141.408 7.31408 141.898 8.07567C142.389 8.83726 142.563 9.68334 142.401 10.5136C142.239 11.3439 141.747 12.1236 140.984 12.7603L140.979 12.7585Z" fill="url(#paint12_linear_14957_33079)"/>
<defs>
<linearGradient id="paint0_linear_14957_33079" x1="144.779" y1="7.71377" x2="149.195" y2="13.8955" gradientUnits="userSpaceOnUse">
<stop stop-color="#5C71B6"/>
<stop offset="0.18" stop-color="#5E77B9"/>
<stop offset="0.41" stop-color="#6588C1"/>
<stop offset="0.68" stop-color="#71A3CF"/>
<stop offset="0.97" stop-color="#80C9E2"/>
<stop offset="1" stop-color="#82CDE4"/>
</linearGradient>
<linearGradient id="paint1_linear_14957_33079" x1="133.228" y1="-0.821452" x2="137.682" y2="5.41417" gradientUnits="userSpaceOnUse">
<stop stop-color="#5C71B6"/>
<stop offset="0.18" stop-color="#5E77B9"/>
<stop offset="0.41" stop-color="#6588C1"/>
<stop offset="0.68" stop-color="#71A3CF"/>
<stop offset="0.97" stop-color="#80C9E2"/>
<stop offset="1" stop-color="#82CDE4"/>
</linearGradient>
<linearGradient id="paint2_linear_14957_33079" x1="121.337" y1="7.42795" x2="125.753" y2="13.6096" gradientUnits="userSpaceOnUse">
<stop stop-color="#5C71B6"/>
<stop offset="0.18" stop-color="#5E77B9"/>
<stop offset="0.41" stop-color="#6588C1"/>
<stop offset="0.68" stop-color="#71A3CF"/>
<stop offset="0.97" stop-color="#80C9E2"/>
<stop offset="1" stop-color="#82CDE4"/>
</linearGradient>
<linearGradient id="paint3_linear_14957_33079" x1="132.827" y1="15.9198" x2="137.28" y2="22.1537" gradientUnits="userSpaceOnUse">
<stop stop-color="#5C71B6"/>
<stop offset="0.18" stop-color="#5E77B9"/>
<stop offset="0.41" stop-color="#6588C1"/>
<stop offset="0.68" stop-color="#71A3CF"/>
<stop offset="0.97" stop-color="#80C9E2"/>
<stop offset="1" stop-color="#82CDE4"/>
</linearGradient>
<linearGradient id="paint4_linear_14957_33079" x1="148.827" y1="-2.87447" x2="141.84" y2="5.87913" gradientUnits="userSpaceOnUse">
<stop stop-color="#715EA9"/>
<stop offset="1" stop-color="#5C71B6"/>
</linearGradient>
<linearGradient id="paint5_linear_14957_33079" x1="152.38" y1="-1.21345" x2="145.005" y2="8.02299" gradientUnits="userSpaceOnUse">
<stop stop-color="#715EA9"/>
<stop offset="1" stop-color="#5C71B6"/>
</linearGradient>
<linearGradient id="paint6_linear_14957_33079" x1="133.441" y1="-0.986934" x2="133.41" y2="20.5428" gradientUnits="userSpaceOnUse">
<stop stop-color="#715EA9"/>
<stop offset="1" stop-color="#5C71B6"/>
</linearGradient>
<linearGradient id="paint7_linear_14957_33079" x1="125.032" y1="-7.15253" x2="124.99" y2="21.3835" gradientUnits="userSpaceOnUse">
<stop stop-color="#715EA9"/>
<stop offset="1" stop-color="#5C71B6"/>
</linearGradient>
<linearGradient id="paint8_linear_14957_33079" x1="128.106" y1="-156.485" x2="127.627" y2="185.394" gradientUnits="userSpaceOnUse">
<stop stop-color="#715EA9"/>
<stop offset="1" stop-color="#5C71B6"/>
</linearGradient>
<linearGradient id="paint9_linear_14957_33079" x1="125" y1="-11.9285" x2="124.96" y2="16.6111" gradientUnits="userSpaceOnUse">
<stop stop-color="#715EA9"/>
<stop offset="1" stop-color="#5C71B6"/>
</linearGradient>
<linearGradient id="paint10_linear_14957_33079" x1="145.441" y1="-151.859" x2="144.962" y2="190.006" gradientUnits="userSpaceOnUse">
<stop stop-color="#715EA9"/>
<stop offset="1" stop-color="#5C71B6"/>
</linearGradient>
<linearGradient id="paint11_linear_14957_33079" x1="147.722" y1="4.34064" x2="147.682" y2="32.8802" gradientUnits="userSpaceOnUse">
<stop stop-color="#715EA9"/>
<stop offset="1" stop-color="#5C71B6"/>
</linearGradient>
<linearGradient id="paint12_linear_14957_33079" x1="152.833" y1="-6.47302" x2="139.604" y2="19.2501" gradientUnits="userSpaceOnUse">
<stop stop-color="#5C71B6"/>
<stop offset="0.18" stop-color="#5E77B9"/>
<stop offset="0.41" stop-color="#6588C1"/>
<stop offset="0.68" stop-color="#71A3CF"/>
<stop offset="0.97" stop-color="#80C9E2"/>
<stop offset="1" stop-color="#82CDE4"/>
</linearGradient>
</defs>
</svg>
