<svg width="18" height="18" viewBox="0 0 18 18" fill="none" xmlns="http://www.w3.org/2000/svg">
<path d="M2.625 5.25H1.125C0.50475 5.25 0 4.74525 0 4.125V2.625C0 2.00475 0.50475 1.5 1.125 1.5H2.625C3.24525 1.5 3.75 2.00475 3.75 2.625V4.125C3.75 4.74525 3.24525 5.25 2.625 5.25ZM1.125 2.25C0.91875 2.25 0.75 2.41875 0.75 2.625V4.125C0.75 4.33125 0.91875 4.5 1.125 4.5H2.625C2.83125 4.5 3 4.33125 3 4.125V2.625C3 2.41875 2.83125 2.25 2.625 2.25H1.125ZM2.625 11.25H1.125C0.50475 11.25 0 10.7452 0 10.125V8.625C0 8.00475 0.50475 7.5 1.125 7.5H2.625C3.24525 7.5 3.75 8.00475 3.75 8.625V10.125C3.75 10.7452 3.24525 11.25 2.625 11.25ZM1.125 8.25C0.91875 8.25 0.75 8.41875 0.75 8.625V10.125C0.75 10.3313 0.91875 10.5 1.125 10.5H2.625C2.83125 10.5 3 10.3313 3 10.125V8.625C3 8.41875 2.83125 8.25 2.625 8.25H1.125ZM2.625 17.25H1.125C0.50475 17.25 0 16.7452 0 16.125V14.625C0 14.0048 0.50475 13.5 1.125 13.5H2.625C3.24525 13.5 3.75 14.0048 3.75 14.625V16.125C3.75 16.7452 3.24525 17.25 2.625 17.25ZM1.125 14.25C0.91875 14.25 0.75 14.4187 0.75 14.625V16.125C0.75 16.3313 0.91875 16.5 1.125 16.5H2.625C2.83125 16.5 3 16.3313 3 16.125V14.625C3 14.4187 2.83125 14.25 2.625 14.25H1.125ZM17.625 3.75H5.625C5.52554 3.75 5.43016 3.71049 5.35984 3.64016C5.28951 3.56984 5.25 3.47446 5.25 3.375C5.25 3.27554 5.28951 3.18016 5.35984 3.10984C5.43016 3.03951 5.52554 3 5.625 3H17.625C17.7245 3 17.8198 3.03951 17.8902 3.10984C17.9605 3.18016 18 3.27554 18 3.375C18 3.47446 17.9605 3.56984 17.8902 3.64016C17.8198 3.71049 17.7245 3.75 17.625 3.75ZM17.625 9.75H5.625C5.52554 9.75 5.43016 9.71049 5.35984 9.64017C5.28951 9.56984 5.25 9.47446 5.25 9.375C5.25 9.27554 5.28951 9.18016 5.35984 9.10983C5.43016 9.03951 5.52554 9 5.625 9H17.625C17.7245 9 17.8198 9.03951 17.8902 9.10983C17.9605 9.18016 18 9.27554 18 9.375C18 9.47446 17.9605 9.56984 17.8902 9.64017C17.8198 9.71049 17.7245 9.75 17.625 9.75ZM17.625 15.75H5.625C5.52554 15.75 5.43016 15.7105 5.35984 15.6402C5.28951 15.5698 5.25 15.4745 5.25 15.375C5.25 15.2755 5.28951 15.1802 5.35984 15.1098C5.43016 15.0395 5.52554 15 5.625 15H17.625C17.7245 15 17.8198 15.0395 17.8902 15.1098C17.9605 15.1802 18 15.2755 18 15.375C18 15.4745 17.9605 15.5698 17.8902 15.6402C17.8198 15.7105 17.7245 15.75 17.625 15.75Z" fill="#D9D9D9"/>
</svg>
