<svg width="20" height="20" viewBox="0 0 20 20" fill="none" xmlns="http://www.w3.org/2000/svg">
<path d="M18.133 12.8983C18.1322 12.8345 18.112 12.7725 18.0749 12.7205C18.0379 12.6686 17.9859 12.6292 17.9258 12.6077L15.0558 11.5808C14.9877 11.5564 14.9132 11.5564 14.8452 11.5808L11.9745 12.6077C11.9145 12.6292 11.8624 12.6686 11.8254 12.7205C11.7883 12.7725 11.7681 12.8345 11.7673 12.8983L11.7383 15.5439C11.7405 17.3089 13.3602 18.343 14.9505 18.7502C16.5423 18.3414 18.1605 17.3096 18.1623 15.5408L18.133 12.8983ZM14.9505 18.1127C14.2179 17.9089 13.5442 17.5341 12.9848 17.0189C12.7869 16.8285 12.6296 16.5999 12.5227 16.3469C12.4158 16.0939 12.3615 15.8217 12.363 15.5471L12.3902 13.1227L14.9505 12.2071L17.5105 13.1227L17.5373 15.5439C17.5264 16.9733 16.2039 17.7102 14.9505 18.1127Z" fill="white"/>
<path d="M11.106 17.0557L9.72631 17.8838V10.4595L16.3669 6.4751V11.1673C16.3669 11.2502 16.3999 11.3297 16.4585 11.3883C16.5171 11.4469 16.5966 11.4798 16.6794 11.4798C16.7623 11.4798 16.8418 11.4469 16.9004 11.3883C16.959 11.3297 16.9919 11.2502 16.9919 11.1673C16.9932 11.1579 16.9897 5.93104 16.9932 5.9226C16.992 5.86888 16.9775 5.8163 16.951 5.76952C16.9246 5.72275 16.887 5.68323 16.8416 5.65447L9.57475 1.29447C9.52611 1.26537 9.47049 1.25 9.41381 1.25C9.35713 1.25 9.30151 1.26537 9.25287 1.29447L1.98662 5.65447C1.93962 5.68371 1.90103 5.72466 1.87462 5.77331C1.84822 5.82195 1.83491 5.87663 1.836 5.93197V14.0767C1.83604 14.1306 1.85005 14.1836 1.87667 14.2306C1.90328 14.2775 1.94159 14.3167 1.98787 14.3445L9.2535 18.7038C9.30207 18.733 9.35764 18.7484 9.41428 18.7484C9.47092 18.7484 9.52649 18.733 9.57506 18.7038L11.4282 17.5913C11.4976 17.5479 11.5472 17.4789 11.5663 17.3993C11.5854 17.3196 11.5725 17.2357 11.5303 17.1655C11.4881 17.0953 11.42 17.0444 11.3407 17.0239C11.2614 17.0034 11.177 17.0148 11.106 17.0557ZM9.10131 17.8838L2.46069 13.8995V6.4751L9.10131 10.4595V17.8838ZM9.41381 9.91822L2.75444 5.9226L9.41381 1.92697L16.0732 5.9226L9.41381 9.91822Z" fill="white"/>
<path d="M15.6892 14.2964L14.6338 15.3517L14.217 14.9348C14.1881 14.905 14.1537 14.8812 14.1155 14.8648C14.0774 14.8484 14.0364 14.8398 13.9949 14.8394C13.9534 14.8391 13.9123 14.847 13.8739 14.8627C13.8354 14.8784 13.8006 14.9016 13.7712 14.931C13.7419 14.9603 13.7187 14.9952 13.703 15.0336C13.6872 15.072 13.6793 15.1132 13.6797 15.1546C13.6801 15.1961 13.6887 15.2371 13.7051 15.2753C13.7214 15.3134 13.7452 15.3479 13.7751 15.3767L14.4129 16.0142C14.4715 16.0728 14.551 16.1057 14.6338 16.1057C14.7167 16.1057 14.7962 16.0728 14.8548 16.0142L16.131 14.7386C16.188 14.6796 16.2194 14.6007 16.2187 14.5188C16.218 14.4368 16.1852 14.3585 16.1272 14.3005C16.0693 14.2426 15.9909 14.2097 15.909 14.209C15.827 14.2083 15.7481 14.2395 15.6892 14.2964Z" fill="white"/>
</svg>
