<svg width="21" height="20" viewBox="0 0 21 20" fill="none" xmlns="http://www.w3.org/2000/svg">
<path d="M12.0556 7.14994C12.0447 7.05651 11.9825 6.98244 11.9062 6.93213L7.0625 4.13557C6.97687 4.09807 6.87625 4.07994 6.78813 4.12307C6.7475 4.11994 1.94437 6.91901 1.90625 6.93213C1.88031 6.95401 1.85094 6.97307 1.82906 6.99994C1.77625 7.05432 1.75875 7.12963 1.75 7.20276V12.7959C1.75 12.8507 1.76444 12.9046 1.79187 12.9521C1.8193 12.9996 1.85875 13.0391 1.90625 13.0665L6.75 15.8631C6.79906 15.8849 6.85187 15.9049 6.90625 15.9046C6.96063 15.9049 7.01344 15.8846 7.0625 15.8631L11.9062 13.0665C12.2581 12.8587 11.9494 12.3231 11.5938 12.5253L7.21875 15.0512V10.1799C8.26594 9.57401 10.3966 8.34557 11.4375 7.74401V11.2334C11.4375 11.3163 11.4704 11.3957 11.529 11.4544C11.5876 11.513 11.6671 11.5459 11.75 11.5459C11.8329 11.5459 11.9124 11.513 11.971 11.4544C12.0296 11.3957 12.0625 11.3163 12.0625 11.2334V7.20276C12.0606 7.185 12.0583 7.1676 12.0556 7.14994ZM9.32812 8.23994L5.10938 5.80432L6.90625 4.76713L11.125 7.20276L9.32812 8.23994ZM6.90625 9.63838L2.6875 7.20276L4.48438 6.16526L8.70312 8.60088L6.90625 9.63838ZM2.375 7.74401L6.59375 10.1799V15.0512L2.375 12.6156V7.74401ZM15.8125 3.12432H16.7944C17.1694 4.52651 19.2316 4.27057 19.25 2.81182C19.2313 1.35369 17.1694 1.09682 16.7944 2.49932H15.8125C15.2956 2.49932 14.875 2.91994 14.875 3.43682V9.68682H13.3125C13.2296 9.68682 13.1501 9.71974 13.0915 9.77835C13.0329 9.83695 13 9.91644 13 9.99932C13 10.0822 13.0329 10.1617 13.0915 10.2203C13.1501 10.2789 13.2296 10.3118 13.3125 10.3118H14.875V16.5618C14.875 17.0787 15.2956 17.4993 15.8125 17.4993H16.7944C17.1659 18.8949 19.2306 18.6518 19.25 17.1868C19.2288 15.7212 17.1678 15.4778 16.7944 16.8743H15.8125C15.7296 16.8743 15.6501 16.8414 15.5915 16.7828C15.5329 16.7242 15.5 16.6447 15.5 16.5618V10.3118H16.7944C16.9341 10.8493 17.4194 11.2493 18 11.2493C19.6509 11.1974 19.6525 8.80151 18 8.74932C17.4191 8.74932 16.9341 9.14932 16.7944 9.68682H15.5V3.43682C15.5 3.35394 15.5329 3.27445 15.5915 3.21585C15.6501 3.15724 15.7296 3.12432 15.8125 3.12432ZM18 2.18682C18.8241 2.20869 18.8241 3.41494 18 3.43682C17.1759 3.41494 17.1759 2.20869 18 2.18682ZM18 16.5618C18.8241 16.5837 18.8241 17.7899 18 17.8118C17.1759 17.7899 17.1759 16.5837 18 16.5618ZM18 9.37432C18.8241 9.39619 18.8241 10.6024 18 10.6243C17.1759 10.6024 17.1759 9.39619 18 9.37432Z" fill="white"/>
</svg>
