<svg width="14" height="14" viewBox="0 0 14 14" fill="none" xmlns="http://www.w3.org/2000/svg">
<path d="M3.93111 12.8037C3.26762 12.8039 2.61898 12.6073 2.06727 12.2387C1.51556 11.8702 1.08557 11.3462 0.831713 10.7332C0.577856 10.1202 0.511538 9.44569 0.641152 8.79499C0.770766 8.14428 1.09049 7.54664 1.55986 7.0777L6.50944 2.12753C6.59151 2.04546 6.70283 1.99935 6.8189 1.99935C6.93497 1.99935 7.04628 2.04546 7.12836 2.12753C7.21043 2.2096 7.25654 2.32092 7.25654 2.43699C7.25654 2.55306 7.21043 2.66437 7.12836 2.74645L2.17819 7.69603C1.93854 7.92409 1.74696 8.19781 1.61473 8.50106C1.4825 8.80431 1.41231 9.13096 1.40828 9.46176C1.40425 9.79256 1.46647 10.1208 1.59127 10.4272C1.71607 10.7336 1.90093 11.0119 2.13495 11.2457C2.36898 11.4796 2.64744 11.6642 2.95392 11.7887C3.26041 11.9133 3.58872 11.9752 3.91952 11.9709C4.25031 11.9666 4.5769 11.8961 4.88004 11.7637C5.18319 11.6312 5.45675 11.4394 5.68461 11.1995L12.0779 4.8062C12.3709 4.50366 12.5332 4.09808 12.5298 3.67695C12.5265 3.25582 12.3577 2.8529 12.0599 2.5551C11.7621 2.25731 11.3592 2.08852 10.938 2.08513C10.5169 2.08175 10.1113 2.24406 9.80877 2.53703L4.65327 7.69603C4.58556 7.76375 4.53184 7.84414 4.49519 7.93262C4.45854 8.0211 4.43968 8.11593 4.43968 8.2117C4.43968 8.30747 4.45854 8.4023 4.49519 8.49077C4.53184 8.57925 4.58556 8.65965 4.65327 8.72736C4.72099 8.79508 4.80139 8.8488 4.88986 8.88545C4.97834 8.9221 5.07317 8.94096 5.16894 8.94096C5.26471 8.94096 5.35954 8.9221 5.44802 8.88545C5.5365 8.8488 5.61689 8.79508 5.68461 8.72736L8.98336 5.42803C9.02369 5.38623 9.07196 5.35287 9.12532 5.32992C9.17869 5.30697 9.23609 5.29487 9.29418 5.29434C9.35227 5.29381 9.40989 5.30485 9.46366 5.32682C9.51744 5.34879 9.5663 5.38126 9.6074 5.42232C9.6485 5.46337 9.68101 5.51221 9.70303 5.56596C9.72505 5.61972 9.73615 5.67732 9.73567 5.73541C9.7352 5.79351 9.72315 5.85092 9.70025 5.90431C9.67735 5.95769 9.64404 6.00599 9.60227 6.04636L6.30294 9.34628C6.15398 9.49528 5.97714 9.61347 5.7825 9.69412C5.58786 9.77477 5.37925 9.8163 5.16856 9.81633C4.95788 9.81635 4.74925 9.77488 4.55459 9.69428C4.35994 9.61368 4.18306 9.49553 4.03407 9.34657C3.88507 9.19762 3.76687 9.02077 3.68622 8.82613C3.60557 8.6315 3.56405 8.42288 3.56402 8.2122C3.56397 7.7867 3.73294 7.37861 4.03377 7.0777L9.19044 1.92453C9.65534 1.45955 10.2859 1.1983 10.9434 1.19824C11.601 1.19819 12.2316 1.45934 12.6966 1.92424C13.1615 2.38914 13.4228 3.01971 13.4229 3.67724C13.4229 4.33477 13.1618 4.96538 12.6969 5.43036L6.30352 11.8214C5.99265 12.1338 5.62291 12.3815 5.21569 12.5501C4.80847 12.7187 4.37185 12.8049 3.93111 12.8037Z" fill="white"/>
</svg>
