<svg width="21" height="20" viewBox="0 0 21 20" fill="none" xmlns="http://www.w3.org/2000/svg">
<path d="M17.7812 19.375H13.5312C12.375 19.375 11.4375 18.4375 11.4375 17.2812V11.5625C11.4375 11.2188 11.7188 10.9375 12.0625 10.9375H17.7812C18.9375 10.9375 19.875 11.875 19.875 13.0312V17.2812C19.875 18.4375 18.9375 19.375 17.7812 19.375ZM12.6875 12.1875V17.2812C12.6875 17.75 13.0625 18.125 13.5312 18.125H17.7812C18.25 18.125 18.625 17.75 18.625 17.2812V13.0312C18.625 12.5625 18.25 12.1875 17.7812 12.1875H12.6875ZM7.46875 19.375H3.21875C2.0625 19.375 1.125 18.4375 1.125 17.2812V13.0312C1.125 11.875 2.0625 10.9375 3.21875 10.9375H8.9375C9.28125 10.9375 9.5625 11.2188 9.5625 11.5625V17.2812C9.5625 18.4375 8.625 19.375 7.46875 19.375ZM3.21875 12.1875C2.75 12.1875 2.375 12.5625 2.375 13.0312V17.2812C2.375 17.75 2.75 18.125 3.21875 18.125H7.46875C7.9375 18.125 8.3125 17.75 8.3125 17.2812V12.1875H3.21875ZM17.7812 9.0625H12.0625C11.7188 9.0625 11.4375 8.78125 11.4375 8.4375V2.71875C11.4375 1.5625 12.375 0.625 13.5312 0.625H17.7812C18.9375 0.625 19.875 1.5625 19.875 2.71875V6.96875C19.875 8.125 18.9375 9.0625 17.7812 9.0625ZM12.6875 7.8125H17.7812C18.25 7.8125 18.625 7.4375 18.625 6.96875V2.71875C18.625 2.25 18.25 1.875 17.7812 1.875H13.5312C13.0625 1.875 12.6875 2.25 12.6875 2.71875V7.8125ZM8.9375 9.0625H3.21875C2.0625 9.0625 1.125 8.125 1.125 6.96875V2.71875C1.125 1.5625 2.0625 0.625 3.21875 0.625H7.46875C8.625 0.625 9.5625 1.5625 9.5625 2.71875V8.4375C9.5625 8.78125 9.28125 9.0625 8.9375 9.0625ZM3.21875 1.875C2.75 1.875 2.375 2.25 2.375 2.71875V6.96875C2.375 7.4375 2.75 7.8125 3.21875 7.8125H8.3125V2.71875C8.3125 2.25 7.9375 1.875 7.46875 1.875H3.21875Z" fill="white"/>
</svg>
