<svg width="14" height="14" viewBox="0 0 14 14" fill="none" xmlns="http://www.w3.org/2000/svg">
<path d="M8.24824 4.49941H6.04023C5.92675 4.49941 5.80918 4.50761 5.6957 4.49531C5.73261 4.50078 5.76816 4.50488 5.80508 4.51035C5.76816 4.50488 5.73398 4.49667 5.6998 4.483L5.79824 4.52402C5.77363 4.51308 5.75039 4.50078 5.72715 4.4871C5.71347 4.48027 5.67519 4.44882 5.73261 4.49394C5.79277 4.54042 5.74629 4.50214 5.73398 4.49121C5.73261 4.48984 5.70937 4.46523 5.71074 4.46523C5.71484 4.46113 5.7709 4.55546 5.74355 4.50624C5.72851 4.48027 5.71484 4.45566 5.70254 4.42831L5.74355 4.52675C5.73125 4.49257 5.72168 4.45839 5.71621 4.42148C5.72168 4.45839 5.72578 4.49394 5.73125 4.53085C5.72168 4.43652 5.72715 4.33808 5.72715 4.24374V2.27226C5.72715 2.15742 5.71894 2.03847 5.73125 1.92363C5.72578 1.96054 5.72168 1.99609 5.71621 2.033C5.72168 1.99609 5.72988 1.96191 5.74355 1.92773L5.70254 2.02617C5.71347 2.00156 5.72578 1.97831 5.73945 1.95507C5.74629 1.9414 5.77773 1.90312 5.73261 1.96054C5.68613 2.0207 5.72441 1.97421 5.73535 1.96191C5.73672 1.96054 5.76133 1.9373 5.76133 1.93867C5.76543 1.94277 5.67109 1.99882 5.72031 1.97148C5.74629 1.95644 5.7709 1.94277 5.79824 1.93046L5.6998 1.97148C5.73398 1.95917 5.76816 1.9496 5.80508 1.94414C5.76816 1.9496 5.73261 1.95371 5.6957 1.95917C5.79004 1.9496 5.88847 1.95507 5.98281 1.95507H7.95429C8.06914 1.95507 8.18808 1.94687 8.30293 1.95917C8.26601 1.95371 8.23047 1.9496 8.19355 1.94414C8.23047 1.9496 8.26465 1.95781 8.29883 1.97148L8.20039 1.93046C8.225 1.9414 8.24824 1.95371 8.27148 1.96738C8.28515 1.97421 8.32343 2.00566 8.26601 1.96054C8.20586 1.91406 8.25234 1.95234 8.26465 1.96328C8.26601 1.96464 8.28926 1.98925 8.28789 1.98925C8.28379 1.99335 8.22773 1.89902 8.25508 1.94824C8.27011 1.97421 8.28379 1.99882 8.29609 2.02617L8.25508 1.92773C8.26738 1.96191 8.27695 1.99609 8.28242 2.033C8.27695 1.99609 8.27285 1.96054 8.26738 1.92363C8.27695 2.01796 8.27148 2.1164 8.27148 2.21074V4.18222C8.27148 4.29706 8.27969 4.41601 8.26738 4.53085C8.27285 4.49394 8.27695 4.45839 8.28242 4.42148C8.27695 4.45839 8.26875 4.49257 8.25508 4.52675L8.29609 4.42831C8.28515 4.45292 8.27285 4.47617 8.25918 4.49941C8.25234 4.51308 8.22089 4.55136 8.26601 4.49394C8.3125 4.43378 8.27422 4.48027 8.26328 4.49257C8.26191 4.49394 8.2373 4.51718 8.2373 4.51581C8.2332 4.51171 8.32754 4.45566 8.27832 4.483C8.25234 4.49804 8.22773 4.51171 8.20039 4.52402L8.29883 4.483C8.26465 4.49531 8.23047 4.50488 8.19355 4.51035C8.23047 4.50488 8.26601 4.50078 8.30293 4.49531C8.28515 4.49804 8.26738 4.49941 8.24824 4.49941C8.03359 4.50351 7.82851 4.68535 7.83808 4.90956C7.84765 5.12831 8.01855 5.32519 8.24824 5.31972C8.54902 5.31289 8.8539 5.15156 8.99199 4.87539C9.06035 4.73867 9.09316 4.59648 9.09316 4.44472V2.38027C9.09316 2.24902 9.09453 2.1164 9.09316 1.98515C9.08632 1.51347 8.71035 1.13749 8.2373 1.13476C7.83398 1.13203 7.43066 1.13476 7.02734 1.13476C6.60898 1.13476 6.19199 1.13339 5.77363 1.13476C5.29922 1.13613 4.91504 1.50253 4.90683 1.97968C4.90547 2.09726 4.90683 2.21621 4.90683 2.33378V4.42558C4.90683 4.52402 4.91367 4.62519 4.94375 4.71953C5.03261 5.00253 5.27871 5.24999 5.57812 5.30058C5.73125 5.32656 5.88164 5.31972 6.03613 5.31972H8.24961C8.46426 5.31972 8.66933 5.13105 8.65976 4.90956C8.64883 4.68671 8.47793 4.49941 8.24824 4.49941ZM8.24824 12.0463H6.04023C5.92675 12.0463 5.80918 12.0545 5.6957 12.0422C5.73261 12.0477 5.76816 12.0518 5.80508 12.0572C5.76816 12.0518 5.73398 12.0435 5.6998 12.0299L5.79824 12.0709C5.77363 12.06 5.75039 12.0477 5.72715 12.034C5.71347 12.0271 5.67519 11.9957 5.73261 12.0408C5.79277 12.0873 5.74629 12.049 5.73398 12.0381C5.73261 12.0367 5.70937 12.0121 5.71074 12.0121C5.71484 12.008 5.7709 12.1023 5.74355 12.0531C5.72851 12.0271 5.71484 12.0025 5.70254 11.9752L5.74355 12.0736C5.73125 12.0394 5.72168 12.0053 5.71621 11.9684C5.72168 12.0053 5.72578 12.0408 5.73125 12.0777C5.72168 11.9834 5.72715 11.885 5.72715 11.7906V9.81913C5.72715 9.70429 5.71894 9.58535 5.73125 9.4705C5.72578 9.50742 5.72168 9.54296 5.71621 9.57988C5.72168 9.54296 5.72988 9.50878 5.74355 9.4746L5.70254 9.57304C5.71347 9.54843 5.72578 9.52519 5.73945 9.50195C5.74629 9.48828 5.77773 9.45 5.73261 9.50742C5.68613 9.56757 5.72441 9.52109 5.73535 9.50878C5.73672 9.50742 5.76133 9.48417 5.76133 9.48554C5.76543 9.48964 5.67109 9.5457 5.72031 9.51835C5.74629 9.50331 5.7709 9.48964 5.79824 9.47734L5.6998 9.51835C5.73398 9.50605 5.76816 9.49648 5.80508 9.49101C5.76816 9.49648 5.73261 9.50058 5.6957 9.50605C5.79004 9.49648 5.88847 9.50195 5.98281 9.50195H7.95429C8.06914 9.50195 8.18808 9.49374 8.30293 9.50605C8.26601 9.50058 8.23047 9.49648 8.19355 9.49101C8.23047 9.49648 8.26465 9.50468 8.29883 9.51835L8.20039 9.47734C8.225 9.48828 8.24824 9.50058 8.27148 9.51425C8.28515 9.52109 8.32343 9.55253 8.26601 9.50742C8.20586 9.46093 8.25234 9.49921 8.26465 9.51015C8.26601 9.51152 8.28926 9.53613 8.28789 9.53613C8.28379 9.54023 8.22773 9.44589 8.25508 9.49511C8.27011 9.52109 8.28379 9.5457 8.29609 9.57304L8.25508 9.4746C8.26738 9.50878 8.27695 9.54296 8.28242 9.57988C8.27695 9.54296 8.27285 9.50742 8.26738 9.4705C8.27695 9.56484 8.27148 9.66328 8.27148 9.75761V11.7291C8.27148 11.8439 8.27969 11.9629 8.26738 12.0777C8.27285 12.0408 8.27695 12.0053 8.28242 11.9684C8.27695 12.0053 8.26875 12.0394 8.25508 12.0736L8.29609 11.9752C8.28515 11.9998 8.27285 12.023 8.25918 12.0463C8.25234 12.06 8.22089 12.0982 8.26601 12.0408C8.3125 11.9807 8.27422 12.0271 8.26328 12.0394C8.26191 12.0408 8.2373 12.0641 8.2373 12.0627C8.2332 12.0586 8.32754 12.0025 8.27832 12.0299C8.25234 12.0449 8.22773 12.0586 8.20039 12.0709L8.29883 12.0299C8.26465 12.0422 8.23047 12.0518 8.19355 12.0572C8.23047 12.0518 8.26601 12.0477 8.30293 12.0422C8.28515 12.0449 8.26738 12.0463 8.24824 12.0463C8.03359 12.0504 7.82851 12.2322 7.83808 12.4564C7.84765 12.6752 8.01855 12.8721 8.24824 12.8666C8.54902 12.8598 8.8539 12.6984 8.99199 12.4223C9.06035 12.2855 9.09316 12.1434 9.09316 11.9916V9.92714C9.09316 9.79589 9.09453 9.66328 9.09316 9.53203C9.08632 9.06035 8.71035 8.68437 8.2373 8.68163C7.83398 8.6789 7.43066 8.68163 7.02734 8.68163C6.60898 8.68163 6.19199 8.68027 5.77363 8.68163C5.29922 8.683 4.91504 9.04941 4.90683 9.52656C4.90547 9.64413 4.90683 9.76308 4.90683 9.88066V11.9725C4.90683 12.0709 4.91367 12.1721 4.94375 12.2664C5.03261 12.5494 5.27871 12.7969 5.57812 12.8475C5.73125 12.8734 5.88164 12.8666 6.03613 12.8666H8.24961C8.46426 12.8666 8.66933 12.6779 8.65976 12.4564C8.64883 12.2336 8.47793 12.0463 8.24824 12.0463ZM3.47812 12.0463H1.27011C1.15664 12.0463 1.03906 12.0545 0.925583 12.0422C0.962497 12.0477 0.998044 12.0518 1.03496 12.0572C0.998044 12.0518 0.963865 12.0435 0.929685 12.0299L1.02812 12.0709C1.00351 12.06 0.980271 12.0477 0.957029 12.034C0.943357 12.0271 0.905075 11.9957 0.962497 12.0408C1.02265 12.0873 0.976169 12.049 0.963865 12.0381C0.962497 12.0367 0.939255 12.0121 0.940622 12.0121C0.944724 12.008 1.00078 12.1023 0.973435 12.0531C0.958396 12.0271 0.944724 12.0025 0.932419 11.9752L0.973435 12.0736C0.96113 12.0394 0.95156 12.0053 0.946091 11.9684C0.95156 12.0053 0.955661 12.0408 0.96113 12.0777C0.95156 11.9834 0.957029 11.885 0.957029 11.7906V9.81913C0.957029 9.70429 0.948825 9.58535 0.96113 9.4705C0.955661 9.50742 0.95156 9.54296 0.946091 9.57988C0.95156 9.54296 0.959763 9.50878 0.973435 9.4746L0.932419 9.57304C0.943357 9.54843 0.955661 9.52519 0.969333 9.50195C0.976169 9.48828 1.00761 9.45 0.962497 9.50742C0.916013 9.56757 0.954294 9.52109 0.965232 9.50878C0.966599 9.50742 0.991208 9.48417 0.991208 9.48554C0.99531 9.48964 0.900974 9.5457 0.950193 9.51835C0.976169 9.50331 1.00078 9.48964 1.02812 9.47734L0.929685 9.51835C0.963865 9.50605 0.998044 9.49648 1.03496 9.49101C0.998044 9.49648 0.962497 9.50058 0.925583 9.50605C1.01992 9.49648 1.11836 9.50195 1.21269 9.50195H3.18418C3.29902 9.50195 3.41797 9.49374 3.53281 9.50605C3.4959 9.50058 3.46035 9.49648 3.42343 9.49101C3.46035 9.49648 3.49453 9.50468 3.52871 9.51835L3.43027 9.47734C3.45488 9.48828 3.47812 9.50058 3.50136 9.51425C3.51504 9.52109 3.55332 9.55253 3.4959 9.50742C3.43574 9.46093 3.48222 9.49921 3.49453 9.51015C3.4959 9.51152 3.51914 9.53613 3.51777 9.53613C3.51367 9.54023 3.45761 9.44589 3.48496 9.49511C3.5 9.52109 3.51367 9.5457 3.52597 9.57304L3.48496 9.4746C3.49726 9.50878 3.50683 9.54296 3.5123 9.57988C3.50683 9.54296 3.50273 9.50742 3.49726 9.4705C3.50683 9.56484 3.50136 9.66328 3.50136 9.75761V11.7291C3.50136 11.8439 3.50957 11.9629 3.49726 12.0777C3.50273 12.0408 3.50683 12.0053 3.5123 11.9684C3.50683 12.0053 3.49863 12.0394 3.48496 12.0736L3.52597 11.9752C3.51504 11.9998 3.50273 12.023 3.48906 12.0463C3.48222 12.06 3.45078 12.0982 3.4959 12.0408C3.54238 11.9807 3.5041 12.0271 3.49316 12.0394C3.49179 12.0408 3.46719 12.0641 3.46719 12.0627C3.46308 12.0586 3.55742 12.0025 3.5082 12.0299C3.48222 12.0449 3.45761 12.0586 3.43027 12.0709L3.52871 12.0299C3.49453 12.0422 3.46035 12.0518 3.42343 12.0572C3.46035 12.0518 3.4959 12.0477 3.53281 12.0422C3.51504 12.0449 3.49726 12.0463 3.47812 12.0463C3.26347 12.0504 3.0584 12.2322 3.06797 12.4564C3.07754 12.6752 3.24843 12.8721 3.47812 12.8666C3.7789 12.8598 4.08379 12.6984 4.22187 12.4223C4.29023 12.2855 4.32304 12.1434 4.32304 11.9916V9.92714C4.32304 9.79589 4.32441 9.66328 4.32304 9.53203C4.31621 9.06035 3.94023 8.68437 3.46719 8.68163C3.06386 8.6789 2.66054 8.68163 2.25722 8.68163C1.83886 8.68163 1.42187 8.68027 1.00351 8.68163C0.529099 8.68163 0.144919 9.04941 0.136716 9.52656C0.135349 9.64413 0.136716 9.76308 0.136716 9.88066V11.9725C0.136716 12.0709 0.143552 12.1721 0.17363 12.2664C0.262497 12.5494 0.508591 12.7969 0.808005 12.8475C0.96113 12.8734 1.11152 12.8666 1.26601 12.8666H3.47949C3.69414 12.8666 3.89922 12.6779 3.88965 12.4564C3.87871 12.2336 3.70781 12.0463 3.47812 12.0463ZM13.0184 12.0463H10.8103C10.6969 12.0463 10.5793 12.0545 10.4658 12.0422C10.5027 12.0477 10.5383 12.0518 10.5752 12.0572C10.5383 12.0518 10.5041 12.0435 10.4699 12.0299L10.5684 12.0709C10.5437 12.06 10.5205 12.0477 10.4973 12.034C10.4836 12.0271 10.4453 11.9957 10.5027 12.0408C10.5629 12.0873 10.5164 12.049 10.5041 12.0381C10.5027 12.0367 10.4795 12.0121 10.4809 12.0121C10.485 12.008 10.541 12.1023 10.5137 12.0531C10.4986 12.0271 10.485 12.0025 10.4727 11.9752L10.5137 12.0736C10.5014 12.0394 10.4918 12.0053 10.4863 11.9684C10.4918 12.0053 10.4959 12.0408 10.5014 12.0777C10.4918 11.9834 10.4973 11.885 10.4973 11.7906V9.81913C10.4973 9.70429 10.4891 9.58535 10.5014 9.4705C10.4959 9.50742 10.4918 9.54296 10.4863 9.57988C10.4918 9.54296 10.5 9.50878 10.5137 9.4746L10.4727 9.57304C10.4836 9.54843 10.4959 9.52519 10.5096 9.50195C10.5164 9.48828 10.5478 9.45 10.5027 9.50742C10.4562 9.56757 10.4945 9.52109 10.5055 9.50878C10.5068 9.50742 10.5314 9.48417 10.5314 9.48554C10.5355 9.48964 10.4412 9.5457 10.4904 9.51835C10.5164 9.50331 10.541 9.48964 10.5684 9.47734L10.4699 9.51835C10.5041 9.50605 10.5383 9.49648 10.5752 9.49101C10.5383 9.49648 10.5027 9.50058 10.4658 9.50605C10.5602 9.49648 10.6586 9.50195 10.7529 9.50195H12.7244C12.8393 9.50195 12.9582 9.49374 13.073 9.50605C13.0361 9.50058 13.0006 9.49648 12.9637 9.49101C13.0006 9.49648 13.0348 9.50468 13.0689 9.51835L12.9705 9.47734C12.9951 9.48828 13.0184 9.50058 13.0416 9.51425C13.0553 9.52109 13.0936 9.55253 13.0361 9.50742C12.976 9.46093 13.0225 9.49921 13.0348 9.51015C13.0361 9.51152 13.0594 9.53613 13.058 9.53613C13.0539 9.54023 12.9978 9.44589 13.0252 9.49511C13.0402 9.52109 13.0539 9.5457 13.0662 9.57304L13.0252 9.4746C13.0375 9.50878 13.0471 9.54296 13.0525 9.57988C13.0471 9.54296 13.043 9.50742 13.0375 9.4705C13.0471 9.56484 13.0416 9.66328 13.0416 9.75761V11.7291C13.0416 11.8439 13.0498 11.9629 13.0375 12.0777C13.043 12.0408 13.0471 12.0053 13.0525 11.9684C13.0471 12.0053 13.0389 12.0394 13.0252 12.0736L13.0662 11.9752C13.0553 11.9998 13.043 12.023 13.0293 12.0463C13.0225 12.06 12.991 12.0982 13.0361 12.0408C13.0826 11.9807 13.0443 12.0271 13.0334 12.0394C13.032 12.0408 13.0074 12.0641 13.0074 12.0627C13.0033 12.0586 13.0977 12.0025 13.0484 12.0299C13.0225 12.0449 12.9978 12.0586 12.9705 12.0709L13.0689 12.0299C13.0348 12.0422 13.0006 12.0518 12.9637 12.0572C13.0006 12.0518 13.0361 12.0477 13.073 12.0422C13.0553 12.0449 13.0375 12.0463 13.0184 12.0463C12.8037 12.0504 12.5986 12.2322 12.6082 12.4564C12.6178 12.6752 12.7887 12.8721 13.0184 12.8666C13.3191 12.8598 13.624 12.6984 13.7621 12.4223C13.8305 12.2855 13.8633 12.1434 13.8633 11.9916V9.92714C13.8633 9.79589 13.8646 9.66328 13.8633 9.53203C13.8564 9.06035 13.4805 8.68437 13.0074 8.68163C12.6041 8.6789 12.2008 8.68163 11.7975 8.68163C11.3791 8.68163 10.9621 8.68027 10.5437 8.68163C10.0693 8.683 9.68515 9.04941 9.67695 9.52656C9.67558 9.64413 9.67695 9.76308 9.67695 9.88066V11.9725C9.67695 12.0709 9.68379 12.1721 9.71386 12.2664C9.80273 12.5494 10.0488 12.7969 10.3482 12.8475C10.5014 12.8734 10.6518 12.8666 10.8062 12.8666H13.0197C13.2344 12.8666 13.4395 12.6779 13.4299 12.4564C13.4189 12.2336 13.248 12.0463 13.0184 12.0463Z" fill="#8C8C8C"/>
<path d="M7.41016 9.09051V4.90828C7.41016 4.69363 7.22148 4.48855 7 4.49813C6.77715 4.5077 6.58984 4.67859 6.58984 4.90828V9.09051C6.58984 9.30516 6.77852 9.51023 7 9.50066C7.22285 9.49109 7.41016 9.3202 7.41016 9.09051Z" fill="#8C8C8C"/>
<path d="M2.64001 9.0904V7.00134L2.22986 7.4115H11.3845C11.5076 7.4115 11.632 7.41423 11.7551 7.4115H11.7715L11.3613 7.00134V9.0904C11.3613 9.30505 11.55 9.51013 11.7715 9.50056C11.9943 9.49099 12.1816 9.32009 12.1816 9.0904V7.00134C12.1816 6.77986 11.9943 6.59118 11.7715 6.59118H2.61677C2.49373 6.59118 2.36931 6.58982 2.24626 6.59118H2.22986C2.00837 6.59118 1.8197 6.77849 1.8197 7.00134V9.0904C1.8197 9.30505 2.00837 9.51013 2.22986 9.50056C2.45134 9.49099 2.64001 9.32009 2.64001 9.0904Z" fill="#8C8C8C"/>
</svg>
