<svg width="20" height="20" viewBox="0 0 20 20" fill="none" xmlns="http://www.w3.org/2000/svg">
<g clip-path="url(#clip0_9025_1117)">
<mask id="mask0_9025_1117" style="mask-type:luminance" maskUnits="userSpaceOnUse" x="0" y="0" width="20" height="20">
<path d="M19.3677 0.5H0.367676V19.5H19.3677V0.5Z" fill="white"/>
</mask>
<g mask="url(#mask0_9025_1117)">
<path d="M8.36671 3.66553H2.3452C1.67452 3.66553 1.28093 4.42178 1.66572 4.97129C1.67066 4.97868 1.53776 4.79755 6.49083 11.5399C6.71055 11.8585 6.64479 11.5176 6.64479 18.6272C6.64479 19.3414 7.46095 19.7538 8.03796 19.3246C10.1731 17.7151 10.6919 17.5338 10.6919 16.6915C10.6919 11.7223 10.628 11.8557 10.8458 11.5399L11.8794 10.1326C9.27867 9.18644 7.71989 6.43619 8.36671 3.66553Z" fill="white"/>
<path d="M10.8307 1.61944C8.04467 4.11728 9.39512 8.57189 12.9074 9.26583C15.7084 9.85765 18.2212 7.63796 18.2212 4.92608C18.2212 1.11888 13.6803 -0.905997 10.8307 1.61944ZM15.2292 5.58287C15.5823 5.93415 15.33 6.53569 14.8357 6.53569C14.5384 6.53569 14.4639 6.39506 13.7795 5.71343C13.1092 6.38081 13.0273 6.53569 12.723 6.53569C12.2276 6.53569 11.9784 5.93215 12.3295 5.58287L12.9889 4.92608L12.3295 4.26928C11.806 3.74845 12.5946 2.95851 13.1168 3.47897L13.7795 4.13873L14.4419 3.47897C14.9642 2.95851 15.753 3.74816 15.2292 4.26928L14.5698 4.92608L15.2292 5.58287Z" fill="white"/>
</g>
</g>
<defs>
<clipPath id="clip0_9025_1117">
<rect width="19" height="19" fill="white" transform="translate(0.367676 0.5)"/>
</clipPath>
</defs>
</svg>
