<svg width="21" height="20" viewBox="0 0 21 20" fill="none" xmlns="http://www.w3.org/2000/svg">
<g clip-path="url(#clip0_9459_96391)">
<path d="M12.1667 7.57422L19.5083 9.03255C20.1 9.15755 20.5 9.65755 20.5 10.2492V18.7492C20.5 19.4409 19.9417 19.9992 19.25 19.9992H11.75C11.9833 19.9992 12.1667 19.8159 12.1667 19.5826V19.1659H19.25C19.475 19.1659 19.6667 18.9826 19.6667 18.7492V10.2492C19.6667 10.0576 19.5333 9.88255 19.3417 9.84089L12.1667 8.42422V7.57422Z" fill="white"/>
<path d="M16.7487 11.6665C16.982 11.6665 17.1654 11.8499 17.1654 12.0832C17.1654 12.3165 16.982 12.4999 16.7487 12.4999H15.082C14.8487 12.4999 14.6654 12.3165 14.6654 12.0832C14.6654 11.8499 14.8487 11.6665 15.082 11.6665H16.7487ZM16.7487 14.1665C16.982 14.1665 17.1654 14.3499 17.1654 14.5832C17.1654 14.8165 16.982 14.9999 16.7487 14.9999H15.082C14.8487 14.9999 14.6654 14.8165 14.6654 14.5832C14.6654 14.3499 14.8487 14.1665 15.082 14.1665H16.7487ZM16.7487 16.6665C16.982 16.6665 17.1654 16.8499 17.1654 17.0832C17.1654 17.3165 16.982 17.4999 16.7487 17.4999H15.082C14.8487 17.4999 14.6654 17.3165 14.6654 17.0832C14.6654 16.8499 14.8487 16.6665 15.082 16.6665H16.7487ZM12.1654 19.5832C12.1654 19.8165 11.982 19.9999 11.7487 19.9999C11.5154 19.9999 11.332 19.8165 11.332 19.5832V7.91654C11.332 7.79154 11.3904 7.67487 11.482 7.59154C11.582 7.51654 11.707 7.48321 11.832 7.50821L12.1654 7.57487V19.1665V19.5832Z" fill="white"/>
<path d="M11.3333 19.166V19.5827C11.3333 19.816 11.5167 19.9993 11.75 19.9993H8.41667C8.65 19.9993 8.83333 19.816 8.83333 19.5827V19.166H11.3333ZM9.25 4.16602C9.48333 4.16602 9.66667 4.34935 9.66667 4.58268C9.66667 4.81602 9.48333 4.99935 9.25 4.99935H7.58333C7.35 4.99935 7.16667 4.81602 7.16667 4.58268C7.16667 4.34935 7.35 4.16602 7.58333 4.16602H9.25ZM9.66667 7.08268C9.66667 7.31602 9.48333 7.49935 9.25 7.49935H7.58333C7.35 7.49935 7.16667 7.31602 7.16667 7.08268C7.16667 6.84935 7.35 6.66602 7.58333 6.66602H9.25C9.48333 6.66602 9.66667 6.84935 9.66667 7.08268ZM9.25 9.16602C9.48333 9.16602 9.66667 9.34935 9.66667 9.58268C9.66667 9.81602 9.48333 9.99935 9.25 9.99935H7.58333C7.35 9.99935 7.16667 9.81602 7.16667 9.58268C7.16667 9.34935 7.35 9.16602 7.58333 9.16602H9.25ZM9.25 11.666C9.48333 11.666 9.66667 11.8493 9.66667 12.0827C9.66667 12.316 9.48333 12.4993 9.25 12.4993H7.58333C7.35 12.4993 7.16667 12.316 7.16667 12.0827C7.16667 11.8493 7.35 11.666 7.58333 11.666H9.25ZM5.5 12.0827C5.5 12.316 5.31667 12.4993 5.08333 12.4993H3.41667C3.18333 12.4993 3 12.316 3 12.0827C3 11.8493 3.18333 11.666 3.41667 11.666H5.08333C5.31667 11.666 5.5 11.8493 5.5 12.0827ZM5.08333 4.16602C5.31667 4.16602 5.5 4.34935 5.5 4.58268C5.5 4.81602 5.31667 4.99935 5.08333 4.99935H3.41667C3.18333 4.99935 3 4.81602 3 4.58268C3 4.34935 3.18333 4.16602 3.41667 4.16602H5.08333ZM5.08333 6.66602C5.31667 6.66602 5.5 6.84935 5.5 7.08268C5.5 7.31602 5.31667 7.49935 5.08333 7.49935H3.41667C3.18333 7.49935 3 7.31602 3 7.08268C3 6.84935 3.18333 6.66602 3.41667 6.66602H5.08333ZM5.08333 9.16602C5.31667 9.16602 5.5 9.34935 5.5 9.58268C5.5 9.81602 5.31667 9.99935 5.08333 9.99935H3.41667C3.18333 9.99935 3 9.81602 3 9.58268C3 9.34935 3.18333 9.16602 3.41667 9.16602H5.08333ZM8 15.416C8 15.1827 7.80833 14.9993 7.58333 14.9993H5.08333C4.85 14.9993 4.66667 15.1827 4.66667 15.416V19.166H3.83333V15.416C3.83333 14.7243 4.39167 14.166 5.08333 14.166H7.58333C8.275 14.166 8.83333 14.7243 8.83333 15.416V19.166H8V15.416Z" fill="white"/>
<path d="M4.66536 19.166H8.83203V19.5827C8.83203 19.816 8.6487 19.9993 8.41536 19.9993H4.2487C4.01536 19.9993 3.83203 19.816 3.83203 19.5827V19.166H4.66536Z" fill="white"/>
<path d="M1.95833 0.166615L11.1167 1.55828C11.725 1.65828 12.1667 2.17495 12.1667 2.79161V7.57495L11.8333 7.50828C11.7083 7.48328 11.5833 7.51661 11.4833 7.59161C11.3917 7.67495 11.3333 7.79161 11.3333 7.91661V2.79161C11.3333 2.58328 11.1833 2.40828 10.9833 2.37495L1.825 0.991615C1.8 0.983281 1.775 0.983281 1.75 0.983281C1.65 0.983281 1.55833 1.01661 1.48333 1.08328C1.38333 1.16661 1.33333 1.27495 1.33333 1.39995V18.7499C1.33333 18.9833 1.525 19.1666 1.75 19.1666H3.83333V19.5833C3.83333 19.8166 4.01667 19.9999 4.25 19.9999H1.75C1.05833 19.9999 0.5 19.4416 0.5 18.7499V1.39995C0.5 1.03328 0.658333 0.683281 0.941667 0.449948C1.225 0.208281 1.59167 0.108281 1.95833 0.166615Z" fill="white"/>
</g>
<defs>
<clipPath id="clip0_9459_96391">
<rect width="20" height="20" fill="white" transform="translate(0.5)"/>
</clipPath>
</defs>
</svg>
