<svg width="14" height="15" viewBox="0 0 14 15" fill="none" xmlns="http://www.w3.org/2000/svg">
<g clip-path="url(#clip0_9025_183)">
<path d="M10.5547 6.78906C10.8567 6.78906 11.1016 6.54422 11.1016 6.24219C11.1016 5.94016 10.8567 5.69531 10.5547 5.69531C10.2527 5.69531 10.0078 5.94016 10.0078 6.24219C10.0078 6.54422 10.2527 6.78906 10.5547 6.78906Z" fill="#8F8F8F"/>
<path d="M11.8125 1.59375H11.1016V1.04688C11.1016 0.744836 10.8567 0.5 10.5547 0.5C10.2526 0.5 10.0078 0.744836 10.0078 1.04688V1.59375H7.51953V1.04688C7.51953 0.744836 7.2747 0.5 6.97266 0.5C6.67062 0.5 6.42578 0.744836 6.42578 1.04688V1.59375H3.96484V1.04688C3.96484 0.744836 3.72001 0.5 3.41797 0.5C3.11593 0.5 2.87109 0.744836 2.87109 1.04688V1.59375H2.1875C0.981313 1.59375 0 2.57506 0 3.78125V12.3125C0 13.5187 0.981313 14.5 2.1875 14.5H6.37109C6.67313 14.5 6.91797 14.2552 6.91797 13.9531C6.91797 13.6511 6.67313 13.4062 6.37109 13.4062H2.1875C1.58441 13.4062 1.09375 12.9156 1.09375 12.3125V3.78125C1.09375 3.17816 1.58441 2.6875 2.1875 2.6875H2.87109V3.23438C2.87109 3.53641 3.11593 3.78125 3.41797 3.78125C3.72001 3.78125 3.96484 3.53641 3.96484 3.23438V2.6875H6.42578V3.23438C6.42578 3.53641 6.67062 3.78125 6.97266 3.78125C7.2747 3.78125 7.51953 3.53641 7.51953 3.23438V2.6875H10.0078V3.23438C10.0078 3.53641 10.2526 3.78125 10.5547 3.78125C10.8567 3.78125 11.1016 3.53641 11.1016 3.23438V2.6875H11.8125C12.4156 2.6875 12.9062 3.17816 12.9062 3.78125V6.89844C12.9062 7.20048 13.1511 7.44531 13.4531 7.44531C13.7552 7.44531 14 7.20048 14 6.89844V3.78125C14 2.57506 13.0187 1.59375 11.8125 1.59375Z" fill="#8F8F8F"/>
<path d="M10.6914 7.88281C8.86703 7.88281 7.38281 9.36703 7.38281 11.1914C7.38281 13.0158 8.86703 14.5 10.6914 14.5C12.5158 14.5 14 13.0158 14 11.1914C14 9.36703 12.5158 7.88281 10.6914 7.88281ZM10.6914 13.4062C9.47015 13.4062 8.47656 12.4127 8.47656 11.1914C8.47656 9.97012 9.47015 8.97656 10.6914 8.97656C11.9127 8.97656 12.9062 9.97012 12.9062 11.1914C12.9062 12.4127 11.9127 13.4062 10.6914 13.4062Z" fill="#8F8F8F"/>
<path d="M11.4844 10.6445H11.2383V10.0703C11.2383 9.76827 10.9934 9.52344 10.6914 9.52344C10.3894 9.52344 10.1445 9.76827 10.1445 10.0703V11.1914C10.1445 11.4934 10.3894 11.7383 10.6914 11.7383H11.4844C11.7864 11.7383 12.0312 11.4934 12.0312 11.1914C12.0312 10.8894 11.7864 10.6445 11.4844 10.6445Z" fill="#8F8F8F"/>
<path d="M8.17578 6.78906C8.47781 6.78906 8.72266 6.54422 8.72266 6.24219C8.72266 5.94016 8.47781 5.69531 8.17578 5.69531C7.87375 5.69531 7.62891 5.94016 7.62891 6.24219C7.62891 6.54422 7.87375 6.78906 8.17578 6.78906Z" fill="#8F8F8F"/>
<path d="M5.79688 9.16797C6.09891 9.16797 6.34375 8.92312 6.34375 8.62109C6.34375 8.31906 6.09891 8.07422 5.79688 8.07422C5.49484 8.07422 5.25 8.31906 5.25 8.62109C5.25 8.92312 5.49484 9.16797 5.79688 9.16797Z" fill="#8F8F8F"/>
<path d="M3.41797 6.78906C3.72 6.78906 3.96484 6.54422 3.96484 6.24219C3.96484 5.94016 3.72 5.69531 3.41797 5.69531C3.11594 5.69531 2.87109 5.94016 2.87109 6.24219C2.87109 6.54422 3.11594 6.78906 3.41797 6.78906Z" fill="#8F8F8F"/>
<path d="M3.41797 9.16797C3.72 9.16797 3.96484 8.92312 3.96484 8.62109C3.96484 8.31906 3.72 8.07422 3.41797 8.07422C3.11594 8.07422 2.87109 8.31906 2.87109 8.62109C2.87109 8.92312 3.11594 9.16797 3.41797 9.16797Z" fill="#8F8F8F"/>
<path d="M3.41797 11.5469C3.72 11.5469 3.96484 11.302 3.96484 11C3.96484 10.698 3.72 10.4531 3.41797 10.4531C3.11594 10.4531 2.87109 10.698 2.87109 11C2.87109 11.302 3.11594 11.5469 3.41797 11.5469Z" fill="#8F8F8F"/>
<path d="M5.79688 11.5469C6.09891 11.5469 6.34375 11.302 6.34375 11C6.34375 10.698 6.09891 10.4531 5.79688 10.4531C5.49484 10.4531 5.25 10.698 5.25 11C5.25 11.302 5.49484 11.5469 5.79688 11.5469Z" fill="#8F8F8F"/>
<path d="M5.79688 6.78906C6.09891 6.78906 6.34375 6.54422 6.34375 6.24219C6.34375 5.94016 6.09891 5.69531 5.79688 5.69531C5.49484 5.69531 5.25 5.94016 5.25 6.24219C5.25 6.54422 5.49484 6.78906 5.79688 6.78906Z" fill="#8F8F8F"/>
</g>
<defs>
<clipPath id="clip0_9025_183">
<rect width="14" height="14" fill="white" transform="translate(0 0.5)"/>
</clipPath>
</defs>
</svg>
