<svg width="21" height="20" viewBox="0 0 21 20" fill="none" xmlns="http://www.w3.org/2000/svg">
<g clip-path="url(#clip0_9459_96547)">
<path d="M10.3296 9.44485C10.8641 9.44484 11.3866 9.28634 11.831 8.98939C12.2754 8.69243 12.6218 8.27037 12.8263 7.77657C13.0309 7.28276 13.0844 6.7394 12.9801 6.21518C12.8758 5.69097 12.6184 5.20944 12.2405 4.83151C11.8626 4.45357 11.381 4.19619 10.8568 4.09192C10.3326 3.98765 9.78923 4.04117 9.29543 4.24571C8.80163 4.45026 8.37957 4.79663 8.08262 5.24104C7.78568 5.68545 7.62719 6.20794 7.62719 6.74242C7.62799 7.45891 7.91298 8.14582 8.41961 8.65245C8.92625 9.15908 9.61316 9.44405 10.3296 9.44485ZM10.3296 4.665C10.7405 4.66501 11.1422 4.78685 11.4838 5.01513C11.8254 5.2434 12.0917 5.56785 12.2489 5.94745C12.4061 6.32705 12.4473 6.74475 12.3671 7.14773C12.2869 7.55071 12.0891 7.92087 11.7986 8.2114C11.508 8.50192 11.1379 8.69978 10.7349 8.77993C10.3319 8.86009 9.9142 8.81894 9.53461 8.66171C9.15501 8.50447 8.83056 8.2382 8.60229 7.89657C8.37402 7.55494 8.25219 7.1533 8.25219 6.74242C8.25282 6.19165 8.4719 5.66361 8.86136 5.27416C9.25083 4.88471 9.77887 4.66561 10.3296 4.665ZM4.51414 7.76844C4.98724 7.76844 5.44971 7.62815 5.84308 7.36531C6.23645 7.10247 6.54304 6.72888 6.72409 6.2918C6.90514 5.85471 6.95251 5.37375 6.86021 4.90975C6.76791 4.44574 6.54009 4.01952 6.20556 3.68499C5.87103 3.35045 5.44481 3.12264 4.9808 3.03034C4.51679 2.93804 4.03584 2.98541 3.59875 3.16646C3.16166 3.34751 2.78808 3.6541 2.52524 4.04747C2.2624 4.44083 2.12211 4.90331 2.12211 5.37641C2.12277 6.01061 2.375 6.61865 2.82345 7.0671C3.2719 7.51555 3.87994 7.76778 4.51414 7.76844ZM4.51414 3.60942C4.86363 3.60942 5.20527 3.71305 5.49585 3.90722C5.78644 4.10138 6.01293 4.37736 6.14667 4.70024C6.28041 5.02313 6.3154 5.37842 6.24722 5.72119C6.17903 6.06396 6.01073 6.37882 5.76361 6.62594C5.51648 6.87306 5.20162 7.04135 4.85885 7.10953C4.51607 7.17771 4.16078 7.14271 3.8379 7.00896C3.51502 6.87521 3.23905 6.64872 3.04489 6.35813C2.85073 6.06754 2.7471 5.72589 2.74711 5.37641C2.74765 4.90793 2.93399 4.4588 3.26526 4.12754C3.59652 3.79628 4.04566 3.60994 4.51414 3.60942ZM17.0298 8.12324H14.942C14.3589 8.12508 13.7897 8.30153 13.3078 8.62985C12.8259 8.95816 12.4534 9.42329 12.2383 9.96527C12.0055 9.91385 11.7678 9.88783 11.5295 9.8877H9.12992C8.84156 9.88769 8.55444 9.92563 8.27598 10.0005C8.06702 9.44875 7.69509 8.97362 7.2096 8.63829C6.72412 8.30296 6.14808 8.12332 5.55805 8.12324H3.47023C2.69936 8.12412 1.96031 8.43073 1.4152 8.9758C0.870085 9.52087 0.56343 10.2599 0.5625 11.0308V13.0738C0.5625 13.12 0.572752 13.1656 0.592516 13.2074C0.61228 13.2492 0.641065 13.286 0.676797 13.3154C1.65902 14.1211 3.13508 14.4382 4.50547 14.4382C4.95055 14.4388 5.39499 14.4046 5.83477 14.3361V15.5305C5.83477 15.5768 5.84502 15.6224 5.86478 15.6642C5.88455 15.706 5.91333 15.7428 5.94906 15.7722C6.48094 16.2085 7.10715 16.5306 7.82277 16.7374C7.87111 16.7666 7.92649 16.782 7.98293 16.782H7.98512C8.62651 16.9425 9.28573 17.0207 9.94688 17.0147C10.0855 17.0147 10.2267 17.0117 10.3696 17.0058C12.0669 17.0731 13.5247 16.6477 14.7025 15.7415C14.7405 15.7123 14.7712 15.6748 14.7924 15.6319C14.8135 15.5889 14.8245 15.5417 14.8245 15.4938V14.3661C15.1969 14.4124 15.5719 14.4357 15.9472 14.436C16.3772 14.4369 16.8065 14.404 17.2313 14.3376C18.2534 14.175 19.1228 13.8223 19.8155 13.2893C19.8534 13.2602 19.8841 13.2226 19.9053 13.1797C19.9264 13.1368 19.9374 13.0895 19.9374 13.0417V11.0308C19.9365 10.2599 19.6298 9.5209 19.0848 8.97583C18.5397 8.43076 17.8006 8.12414 17.0298 8.12324ZM1.1875 12.5329H2.39844V13.512C1.94531 13.3701 1.53043 13.1753 1.1875 12.9212V12.5329ZM3.02344 13.6704V10.7166C3.02344 10.6338 2.99051 10.5543 2.93191 10.4957C2.8733 10.4371 2.79382 10.4041 2.71094 10.4041C2.62806 10.4041 2.54857 10.4371 2.48997 10.4957C2.43136 10.5543 2.39844 10.6338 2.39844 10.7166V11.908H1.1875V11.0308C1.18814 10.4256 1.42885 9.84531 1.85681 9.41735C2.28476 8.9894 2.86501 8.74869 3.47023 8.74805H5.55805C6.02072 8.74818 6.47243 8.88894 6.85328 9.15166C7.23413 9.41437 7.52614 9.78664 7.69059 10.2191C7.13463 10.4896 6.66586 10.9108 6.33774 11.4348C6.00961 11.9588 5.83533 12.5644 5.83477 13.1827V13.7022C4.90321 13.8587 3.95121 13.8479 3.02344 13.6704ZM6.45996 14.8735H7.6709V16.0308C7.23623 15.877 6.82781 15.6572 6.45996 15.3792V14.8735ZM10.3825 16.3806C10.3737 16.3803 10.365 16.3803 10.3564 16.3806C9.60004 16.4128 8.91315 16.3574 8.2957 16.2142V13.2398C8.2957 13.1569 8.26278 13.0774 8.20417 13.0188C8.14557 12.9602 8.06608 12.9273 7.9832 12.9273C7.90032 12.9273 7.82084 12.9602 7.76223 13.0188C7.70363 13.0774 7.6707 13.1569 7.6707 13.2398V14.2485H6.45977V13.1829C6.46045 12.6431 6.62448 12.1161 6.93029 11.6713C7.2361 11.2265 7.66937 10.8846 8.17313 10.6907C8.18443 10.687 8.1955 10.6826 8.20629 10.6776C8.50195 10.5683 8.8147 10.5125 9.12992 10.5127H11.5294C11.7986 10.5125 12.0664 10.5532 12.3234 10.6333C12.3343 10.6377 12.3454 10.6415 12.3566 10.6446H12.3574C12.8926 10.8199 13.3588 11.1596 13.6896 11.6153C14.0203 12.071 14.1988 12.6196 14.1996 13.1827V14.2484H12.9886V13.2398C12.9886 13.1569 12.9557 13.0774 12.8971 13.0188C12.8385 12.9602 12.759 12.9273 12.6761 12.9273C12.5933 12.9273 12.5138 12.9602 12.4552 13.0188C12.3966 13.0774 12.3636 13.1569 12.3636 13.2398V16.19C11.716 16.3496 11.0485 16.4138 10.3823 16.3806L10.3825 16.3806ZM12.989 15.9916V14.8735H14.1999V15.3371C13.8266 15.6073 13.4194 15.8274 12.9888 15.9917L12.989 15.9916ZM14.8249 13.7358V13.1829C14.8242 12.5394 14.6354 11.9102 14.2817 11.3727C13.9281 10.8352 13.425 10.4128 12.8344 10.1575C13.0081 9.74128 13.3007 9.38553 13.6757 9.13484C14.0507 8.88415 14.4913 8.74967 14.9423 8.74824H17.0301C17.6352 8.74898 18.2154 8.9897 18.6432 9.4176C19.0711 9.84551 19.3118 10.4257 19.3125 11.0308V11.9077H18.1016V10.7163C18.1016 10.6334 18.0686 10.5539 18.01 10.4953C17.9514 10.4367 17.8719 10.4038 17.7891 10.4038C17.7062 10.4038 17.6267 10.4367 17.5681 10.4953C17.5095 10.5539 17.4766 10.6334 17.4766 10.7163V13.6538C16.6675 13.8293 15.76 13.8608 14.8246 13.7358L14.8249 13.7358ZM18.1023 13.4834V12.5329H19.3132V12.8839C18.9409 13.1419 18.5327 13.3439 18.1018 13.4834L18.1023 13.4834ZM15.9864 7.76852C16.4594 7.7684 16.9219 7.62801 17.3151 7.36511C17.7084 7.1022 18.0149 6.72858 18.1959 6.29149C18.3769 5.8544 18.4241 5.37346 18.3318 4.90949C18.2394 4.44553 18.0116 4.01936 17.677 3.68488C17.3425 3.35041 16.9163 3.12264 16.4523 3.03038C15.9883 2.93812 15.5074 2.98552 15.0703 3.16657C14.6333 3.34762 14.2597 3.6542 13.9969 4.04755C13.7341 4.44089 13.5938 4.90334 13.5938 5.37641C13.5944 6.01062 13.8467 6.61867 14.2951 7.06713C14.7436 7.51558 15.3516 7.7678 15.9859 7.76844L15.9864 7.76852ZM15.9864 3.60949C16.3358 3.60961 16.6774 3.71335 16.9679 3.90758C17.2584 4.10182 17.4848 4.37784 17.6185 4.70074C17.7521 5.02364 17.787 5.37892 17.7188 5.72166C17.6505 6.06439 17.4822 6.37919 17.235 6.62625C16.9879 6.87331 16.673 7.04154 16.3302 7.10966C15.9875 7.17778 15.6322 7.14274 15.3094 7.00896C14.9865 6.87518 14.7106 6.64868 14.5165 6.35809C14.3223 6.0675 14.2187 5.72587 14.2188 5.37641C14.2193 4.90792 14.4056 4.45877 14.7369 4.12751C15.0682 3.79625 15.5174 3.60992 15.9859 3.60942L15.9864 3.60949Z" fill="white"/>
</g>
<defs>
<clipPath id="clip0_9459_96547">
<rect width="20" height="20" fill="white" transform="translate(0.25)"/>
</clipPath>
</defs>
</svg>
