<svg width="21" height="20" viewBox="0 0 21 20" fill="none" xmlns="http://www.w3.org/2000/svg">
<g clip-path="url(#clip0_9459_96424)">
<path d="M18.7143 12.8569H18V11.0712C18 10.089 17.1964 9.28544 16.2143 9.28544H10.8571V7.14258H11.5714C12.5536 7.14258 13.3571 6.33901 13.3571 5.35686V3.92829C13.3571 2.94615 12.5536 2.14258 11.5714 2.14258H9.42857C8.44643 2.14258 7.64286 2.94615 7.64286 3.92829V5.35686C7.64286 6.33901 8.44643 7.14258 9.42857 7.14258H10.1429V9.28544H4.78571C3.80357 9.28544 3 10.089 3 11.0712V12.8569H2.28571C1.30357 12.8569 0.5 13.6604 0.5 14.6426V16.0712C0.5 17.0533 1.30357 17.8569 2.28571 17.8569H4.42857C5.41071 17.8569 6.21429 17.0533 6.21429 16.0712V14.6426C6.21429 13.6604 5.41071 12.8569 4.42857 12.8569H3.71429V11.0712C3.71429 10.4819 4.19643 9.99972 4.78571 9.99972H10.1429V12.8569H9.42857C8.44643 12.8569 7.64286 13.6604 7.64286 14.6426V16.0712C7.64286 17.0533 8.44643 17.8569 9.42857 17.8569H11.5714C12.5536 17.8569 13.3571 17.0533 13.3571 16.0712V14.6426C13.3571 13.6604 12.5536 12.8569 11.5714 12.8569H10.8571V9.99972H16.2143C16.8036 9.99972 17.2857 10.4819 17.2857 11.0712V12.8569H16.5714C15.5893 12.8569 14.7857 13.6604 14.7857 14.6426V16.0712C14.7857 17.0533 15.5893 17.8569 16.5714 17.8569H18.7143C19.6964 17.8569 20.5 17.0533 20.5 16.0712V14.6426C20.5 13.6604 19.6964 12.8569 18.7143 12.8569ZM4.42857 13.5712C5.01786 13.5712 5.5 14.0533 5.5 14.6426V16.0712C5.5 16.6604 5.01786 17.1426 4.42857 17.1426H2.28571C1.69643 17.1426 1.21429 16.6604 1.21429 16.0712V14.6426C1.21429 14.0533 1.69643 13.5712 2.28571 13.5712H4.42857ZM11.5714 13.5712C12.1607 13.5712 12.6429 14.0533 12.6429 14.6426V16.0712C12.6429 16.6604 12.1607 17.1426 11.5714 17.1426H9.42857C8.83929 17.1426 8.35714 16.6604 8.35714 16.0712V14.6426C8.35714 14.0533 8.83929 13.5712 9.42857 13.5712H11.5714ZM9.42857 6.42829C8.83929 6.42829 8.35714 5.94615 8.35714 5.35686V3.92829C8.35714 3.33901 8.83929 2.85686 9.42857 2.85686H11.5714C12.1607 2.85686 12.6429 3.33901 12.6429 3.92829V5.35686C12.6429 5.94615 12.1607 6.42829 11.5714 6.42829H9.42857ZM19.7857 16.0712C19.7857 16.6604 19.3036 17.1426 18.7143 17.1426H16.5714C15.9821 17.1426 15.5 16.6604 15.5 16.0712V14.6426C15.5 14.0533 15.9821 13.5712 16.5714 13.5712H18.7143C19.3036 13.5712 19.7857 14.0533 19.7857 14.6426V16.0712Z" fill="white"/>
</g>
<defs>
<clipPath id="clip0_9459_96424">
<rect width="20" height="20" fill="white" transform="translate(0.5)"/>
</clipPath>
</defs>
</svg>
