<svg width="19" height="19" viewBox="0 0 19 19" fill="none" xmlns="http://www.w3.org/2000/svg">
<path d="M4.07709 17.4163C3.7525 17.4163 3.48334 17.1472 3.48334 16.8226V2.17676C3.48334 1.85217 3.7525 1.58301 4.07709 1.58301C4.40167 1.58301 4.67084 1.85217 4.67084 2.17676V16.8226C4.67084 17.1472 4.40167 17.4163 4.07709 17.4163Z" fill="#292D32"/>
<path d="M14.2441 9.65407L13.4428 8.74648C13.2524 8.56049 13.1407 8.28524 13.1341 7.98023C13.121 7.64546 13.2392 7.31069 13.456 7.06519L14.2441 6.17247C14.9272 5.39879 15.1833 4.65485 14.9666 4.06715C14.7564 3.48688 14.1062 3.16699 13.1473 3.16699H5.79124C5.65331 3.17443 5.54166 3.3009 5.54166 3.45713V12.3843C5.54166 12.5405 5.65331 12.667 5.79124 12.667H13.1473C14.0931 12.667 14.7301 12.3397 14.9469 11.752C15.1636 11.1568 14.914 10.4203 14.2441 9.65407Z" fill="#FB0000"/>
</svg>
