<svg width="21" height="20" viewBox="0 0 21 20" fill="none" xmlns="http://www.w3.org/2000/svg">
<g clip-path="url(#clip0_9459_96437)">
<path d="M4.45617 6.77846C3.17673 6.77846 2.13589 5.74709 2.13589 4.47975C2.13589 3.21229 3.17673 2.18088 4.45617 2.18088C5.73548 2.18088 6.77613 3.21213 6.77613 4.47975C6.77613 5.74725 5.73548 6.77846 4.45617 6.77846ZM4.45617 2.82604C3.53238 2.82604 2.78105 3.56794 2.78105 4.47975C2.78105 5.39144 3.53238 6.1333 4.45617 6.1333C5.37968 6.1333 6.13097 5.39144 6.13097 4.47975C6.13097 3.56794 5.37968 2.82604 4.45617 2.82604ZM5.3896 13.1431H1.34315C0.878226 13.1431 0.5 12.7673 0.5 12.3053V11.2501C0.5 9.09003 2.27468 7.33253 4.45617 7.33253C5.31415 7.33253 6.13085 7.60027 6.81726 8.10673C6.88609 8.15755 6.93193 8.23364 6.94468 8.31825C6.95744 8.40286 6.93607 8.48907 6.88528 8.55794C6.83445 8.62673 6.7584 8.67253 6.67382 8.68529C6.58924 8.69805 6.50306 8.67673 6.43419 8.626C5.85944 8.20201 5.17552 7.97769 4.45617 7.97769C2.63048 7.97769 1.14516 9.44584 1.14516 11.2501V12.3053C1.14516 12.4114 1.23399 12.4979 1.34315 12.4979H5.38976C5.56774 12.4979 5.71234 12.6424 5.71234 12.8205C5.71234 12.9985 5.56774 13.1431 5.3896 13.1431V13.1431ZM19.6569 12.899H15.6104C15.4324 12.899 15.2878 12.7545 15.2878 12.5764C15.2878 12.3984 15.4324 12.2538 15.6104 12.2538H19.657C19.7662 12.2538 19.855 12.1675 19.855 12.0614V11.0062C19.855 9.2016 18.3697 7.73374 16.544 7.73374C15.7815 7.73374 15.0371 7.99632 14.4478 8.47326C14.3095 8.58527 14.1065 8.56398 13.9942 8.42556C13.8822 8.28709 13.9033 8.0839 14.0421 7.97177C14.7457 7.40237 15.6342 7.08858 16.544 7.08858C18.7253 7.08858 20.5 8.84592 20.5 11.0062V12.0614C20.5 12.5232 20.1218 12.899 19.6569 12.899ZM16.5438 6.61906C15.2645 6.61906 14.2239 5.58786 14.2239 4.32036C14.2239 3.05286 15.2645 2.02148 16.5438 2.02148C17.8233 2.02148 18.8641 3.05273 18.8641 4.32036C18.8641 5.58798 17.8231 6.61906 16.5438 6.61906ZM16.5438 2.66665C15.6203 2.66665 14.869 3.40854 14.869 4.32036C14.869 5.23217 15.6203 5.9739 16.5438 5.9739C17.4676 5.9739 18.219 5.23217 18.219 4.32036C18.219 3.40854 17.4675 2.66665 16.5438 2.66665Z" fill="white"/>
<path d="M14.8775 14.1935H6.12124C5.53955 14.1935 5.06641 13.7239 5.06641 13.1464V11.6624C5.06641 8.69645 7.50338 6.28355 10.4994 6.28355C13.4954 6.28355 15.9324 8.69645 15.9324 11.6624V13.1464C15.9324 13.7238 15.4592 14.1935 14.8775 14.1935ZM10.4994 6.92887C7.85935 6.92887 5.71157 9.05242 5.71157 11.6625V13.1466C5.71157 13.3682 5.89536 13.5485 6.12124 13.5485H14.8774C15.1033 13.5485 15.2871 13.3682 15.2871 13.1466V11.6625C15.2872 9.05242 13.1394 6.92887 10.4994 6.92887ZM10.3873 5.90661C8.74346 5.90661 7.40588 4.58181 7.40588 2.95315C7.40588 1.32468 8.74334 0 10.3873 0C12.0314 0 13.3688 1.3248 13.3688 2.95331C13.3688 4.58194 12.0312 5.90661 10.3873 5.90661H10.3873ZM10.3873 0.645161C9.09911 0.645161 8.05104 1.68064 8.05104 2.95331C8.05104 4.22617 9.09911 5.26161 10.3873 5.26161C11.6755 5.26161 12.7236 4.22613 12.7236 2.95331C12.7236 1.68064 11.6755 0.645161 10.3873 0.645161H10.3873Z" fill="white"/>
</g>
<defs>
<clipPath id="clip0_9459_96437">
<rect width="20" height="20" fill="white" transform="translate(0.5)"/>
</clipPath>
</defs>
</svg>
