<svg width="99" height="23" viewBox="0 0 99 23" fill="none" xmlns="http://www.w3.org/2000/svg">
<path d="M7.98842 18.5166C8.97621 18.82 9.77953 18.9424 10.398 18.8844C11.0168 18.8259 11.5008 18.7308 11.8509 18.5984C12.0766 18.5282 12.2654 18.4856 12.4172 18.4699C12.5685 18.4543 12.6951 18.5012 12.796 18.6099C12.9441 18.7812 12.9983 19.0594 12.9597 19.4443C12.9204 19.8295 12.7904 20.2378 12.5685 20.6697C12.347 21.1014 12.0278 21.4748 11.6117 21.7901C11.1953 22.1052 10.6798 22.2625 10.0654 22.2625C9.03875 22.2625 8.09135 22.0582 7.22398 21.6499C6.35629 21.2415 5.43261 20.6795 4.45219 19.9637C3.90004 19.5901 3.38847 19.3646 2.91811 19.2869C2.44719 19.2093 2.03299 19.2049 1.67511 19.2751C1.31718 19.3452 1.041 19.4229 0.846516 19.5087C0.722153 19.5551 0.636408 19.5785 0.590005 19.5785C0.535298 19.5785 0.469173 19.5145 0.391265 19.3861C0.313824 19.2577 0.272715 19.0884 0.268667 18.8783C0.265137 18.6682 0.34481 18.4271 0.507997 18.1549C0.687118 17.8905 0.947884 17.6863 1.29024 17.5423C1.63224 17.3984 2.00958 17.3069 2.4217 17.2681C2.41392 16.3966 2.7718 14.3233 3.49575 11.0481C3.51112 10.9548 3.53053 10.8654 3.55399 10.7797C3.90388 9.04484 4.10438 7.63278 4.15478 6.54368C4.20554 5.45432 4.18177 4.60449 4.08466 3.99358C3.98755 3.38298 3.8882 2.93749 3.78704 2.65762C3.71718 2.47092 3.68214 2.3231 3.68214 2.2141C3.68214 2.02719 3.85716 1.81911 4.20726 1.58985C4.5574 1.36033 4.98338 1.22615 5.48508 1.18702C5.987 1.14845 6.47884 1.30001 6.96134 1.64237C7.7549 2.20226 8.09545 3.25862 7.9824 4.8106C7.86966 6.36259 7.36194 8.71415 6.45943 11.865C5.68938 14.6734 5.20709 16.5795 5.01239 17.5831C5.57259 17.7463 6.24553 17.9564 7.03146 18.2132C7.32685 18.3065 7.6459 18.4077 7.98842 18.5166Z" fill="white"/>
<path d="M20.5799 13.9189C20.6185 13.8646 20.6732 13.8606 20.7431 13.9072C20.8132 13.9539 20.8753 14.018 20.93 14.0997C20.9842 14.1814 21.0074 14.2457 21.0002 14.2922C20.6964 15.2415 20.278 16.3327 19.7455 17.5656C19.2123 18.7988 18.6231 19.75 17.9774 20.4188C17.4247 20.9014 16.9077 21.0956 16.4254 21.0025C15.9426 20.909 15.5191 20.7107 15.1531 20.4073C14.4845 19.8705 14.1599 19.2112 14.179 18.4292C14.1984 17.6474 14.3523 16.7547 14.6398 15.7511C14.7332 15.3853 14.8227 15.0042 14.9082 14.6075C15.1804 13.3938 15.371 12.4526 15.4801 11.7835C15.589 11.1143 15.6495 10.63 15.6608 10.3306C15.6727 10.0309 15.6705 9.82691 15.6551 9.7177V9.58955C15.6551 9.55046 15.6591 9.51185 15.6669 9.47276C15.7676 9.16938 16.2541 9.08006 17.1256 9.20442C17.7478 9.3212 18.2283 9.53105 18.5666 9.83448C18.9053 10.1382 19.0703 10.4804 19.0627 10.8616C19.0317 11.3438 18.8291 12.1686 18.4559 13.3355C18.2614 13.9655 18.0278 14.7515 17.7557 15.6928C17.4598 16.7741 17.287 17.5793 17.2363 18.1084C17.1859 18.6374 17.2149 18.9759 17.3238 19.1237C17.4328 19.2715 17.5688 19.3025 17.7325 19.217C17.9499 19.1158 18.2458 18.7229 18.6191 18.0383C18.9926 17.354 19.3621 16.6147 19.7278 15.8209C20.0934 15.0277 20.3733 14.4052 20.5681 13.9539C20.5756 13.9464 20.5799 13.9347 20.5799 13.9189Z" fill="white"/>
<path d="M18.9925 7.83899C18.9227 7.91695 18.7493 7.94971 18.4732 7.93813C18.197 7.9265 17.8898 7.88187 17.5513 7.80396C17.213 7.72621 16.9212 7.61549 16.676 7.47146C16.4308 7.32748 16.3045 7.16201 16.2969 6.97536C16.3592 5.54395 16.4969 4.39625 16.7111 3.53287C16.925 2.66924 17.2185 2.2183 17.5924 2.17916C18.0277 2.16374 18.5529 2.25504 19.1675 2.45332C19.782 2.65185 20.2975 2.89699 20.7138 3.18859C21.1299 3.48019 21.2525 3.7586 21.0812 4.023C20.4981 4.7699 20.0741 5.40972 19.8097 5.94273C19.5449 6.47568 19.358 6.9055 19.2491 7.23213C19.1637 7.49669 19.078 7.69901 18.9925 7.83899Z" fill="white"/>
<path d="M32.1907 13.9186C32.2293 13.8644 32.284 13.8603 32.3541 13.907C32.424 13.9537 32.4863 14.0178 32.5408 14.0995C32.5953 14.1812 32.6185 14.2455 32.6109 14.2919C32.3151 15.2413 31.8989 16.3324 31.3621 17.5654C30.8253 18.7985 30.2339 19.7497 29.5884 20.4186C29.1914 20.7765 28.8143 20.971 28.4564 21.0023H28.4213H28.41C28.3474 21.0101 28.2851 21.0139 28.2231 21.0139H28.2112H28.1881H28.1414V21.0023C27.7368 20.9554 27.3128 20.7571 26.8696 20.4071C26.1929 19.8781 25.866 19.2208 25.8894 18.4348C25.9127 17.6491 26.0645 16.7545 26.3445 15.7508C26.4378 15.3851 26.5311 15.0039 26.6247 14.6072C26.8731 13.4714 27.052 12.5765 27.161 11.9232C27.0989 12.0942 27.0328 12.2657 26.9627 12.4365C26.2627 14.2183 25.5839 15.8829 24.9267 17.4311C24.2692 18.9794 23.7576 19.9752 23.3921 20.4186C22.6604 21.1811 21.77 21.1774 20.7197 20.4071C20.0427 19.8859 19.7143 19.2343 19.7337 18.4522C19.7529 17.6706 19.907 16.7739 20.1946 15.7624C20.2876 15.3891 20.3815 15.0039 20.4746 14.6072C20.7389 13.3935 20.9258 12.4524 21.0348 11.7832C21.1437 11.1141 21.2058 10.6298 21.2217 10.3303C21.237 10.0307 21.237 9.82666 21.2217 9.71746V9.5893C21.2217 9.55022 21.2252 9.5116 21.233 9.47252C21.3341 9.16914 21.8167 9.07981 22.6801 9.20418C23.3023 9.32096 23.7828 9.53081 24.1213 9.83424C24.4597 10.1379 24.6248 10.4802 24.6174 10.8613C24.5938 11.3436 24.3917 12.1684 24.0103 13.3352C23.8161 13.9653 23.5864 14.7512 23.322 15.6926C23.0032 16.8207 22.8241 17.6512 22.7853 18.1838C22.7461 18.7168 22.789 19.0417 22.9134 19.1585C23.1391 18.7383 23.3666 18.291 23.5961 17.8164C23.8257 17.3419 24.0961 16.766 24.4073 16.0893C24.5395 15.8015 24.6836 15.4903 24.8389 15.1556C25.6094 13.4986 26.208 12.1799 26.636 11.1995C26.947 10.4918 27.1922 9.95502 27.3711 9.5893C27.3711 9.55022 27.375 9.5116 27.3829 9.47252C27.484 9.16914 27.9663 9.07981 28.83 9.20418C29.4523 9.32096 29.9327 9.53081 30.271 9.83424C30.6095 10.1379 30.7747 10.4802 30.7669 10.8613C30.7436 11.3436 30.5411 12.1684 30.1602 13.3352C29.9655 13.9653 29.736 14.7512 29.4717 15.6926C28.9894 17.3962 28.8065 18.4739 28.9233 18.9249C28.9775 19.1194 29.0691 19.2168 29.1975 19.2168C29.3259 19.2168 29.4523 19.1585 29.5766 19.0417C29.8255 18.7383 30.1212 18.258 30.4637 17.6004C30.8059 16.9431 31.1346 16.2682 31.4497 15.5758C31.7647 14.8834 32.0079 14.3428 32.1791 13.9537C32.1869 13.9461 32.1907 13.9345 32.1907 13.9186Z" fill="white"/>
<path d="M44.0357 13.9186C44.0667 13.8644 44.1174 13.8603 44.1876 13.907C44.2575 13.9537 44.3197 14.0177 44.3744 14.0994C44.4287 14.1812 44.4558 14.2455 44.4558 14.2919C44.1447 15.2413 43.6916 16.3383 43.0963 17.583C42.5014 18.8278 41.8612 19.7729 41.1767 20.4186C40.85 20.6988 40.4841 20.8933 40.0797 21.0023C39.1775 21.3443 38.413 21.3988 37.7867 21.1654C37.1604 20.9322 36.6529 20.5354 36.2637 19.9752C35.8747 19.415 35.587 18.824 35.4003 18.2012C35.2136 17.579 35.1047 17.0579 35.0734 16.6376C34.5213 17.8746 34.2135 18.8473 34.1515 19.555C34.1593 19.952 34.175 20.2282 34.1985 20.3835C34.2135 20.4925 34.2176 20.5783 34.21 20.6403C34.1944 20.7337 34.0836 20.8173 33.8776 20.8912C33.671 20.9652 33.424 21.004 33.1363 21.0079C32.8482 21.0121 32.5683 20.9594 32.2961 20.8504C32.0159 20.7495 31.7675 20.5841 31.5494 20.3546C31.3316 20.125 31.1817 19.7517 31.1001 19.2344C31.0183 18.7168 31.0435 17.9682 31.1757 16.9877C31.4014 15.4552 31.6544 13.9537 31.9346 12.4834C32.1831 11.1532 32.4517 9.60874 32.7397 7.85043C32.9261 6.61351 33.068 5.60605 33.1655 4.82795C33.2627 4.05027 33.327 3.44517 33.358 3.01338C33.3893 2.5818 33.4006 2.26653 33.3931 2.06821C33.3852 1.86978 33.3774 1.73151 33.3698 1.65386C33.3621 1.64623 33.358 1.63844 33.358 1.63061C33.3424 1.49041 33.4531 1.37186 33.6906 1.27444C33.9278 1.17738 34.2915 1.16772 34.7815 1.24548C35.3264 1.34664 35.7968 1.57995 36.1939 1.94566C36.5906 2.31138 36.8708 2.78205 37.034 3.35761C37.174 3.9489 37.1352 4.7951 36.9175 5.89588C36.6995 6.99661 36.3959 8.28632 36.007 9.76435C35.6026 11.3282 35.2056 13.0163 34.8167 14.8289C35.2525 14.0432 35.842 13.1914 36.5851 12.2733C37.3277 11.3554 38.2281 10.5228 39.2864 9.77597C40.1887 9.19231 40.9568 8.99404 41.5911 9.18068C42.225 9.36733 42.62 9.77997 42.7753 10.4179C42.9312 11.0557 42.7521 11.7597 42.2388 12.5301C41.7951 13.1135 41.27 13.5899 40.6634 13.9594C40.0565 14.3292 39.4574 14.613 38.8663 14.8115C38.275 15.0097 37.5748 15.1831 36.7656 15.3306C37.0612 15.9609 37.3395 16.4977 37.6003 16.9411C37.8606 17.3845 38.1678 17.8088 38.5219 18.2131C38.8758 18.6176 39.2587 18.9249 39.6714 19.135C40.216 19.3141 40.6555 19.2945 40.9901 19.0767C41.2544 18.8745 41.5911 18.4406 41.9994 17.7755C42.4078 17.1104 42.8026 16.4063 43.184 15.6634C43.5652 14.9204 43.8493 14.3388 44.0357 13.9186ZM36.3688 14.3154C37.458 13.6076 38.4558 12.8842 39.3621 12.1449C40.2683 11.4059 40.7567 10.9155 40.8266 10.6747C40.4532 10.5112 39.8113 10.7619 38.9013 11.4273C37.991 12.0924 37.1468 13.0552 36.3688 14.3154Z" fill="white"/>
<path d="M68.8097 1.22218C68.8953 1.22218 68.9715 1.34296 69.0376 1.58406C69.1036 1.8252 69.1036 2.12287 69.0376 2.4767C68.9715 2.83085 68.7965 3.18473 68.5124 3.53861C68.2284 3.89275 67.7907 4.19042 67.1995 4.43126C66.6083 4.67266 65.8068 4.79298 64.7958 4.79298C63.5739 4.79298 62.4769 4.71554 61.5046 4.55967C61.3957 6.24811 60.8587 8.67914 59.8941 11.8532C59.2328 14.0706 58.8421 15.7822 58.7212 16.9879C58.6007 18.194 58.6163 19.0534 58.7681 19.5669C58.9201 20.0802 59.0659 20.4071 59.2058 20.5471C59.2757 20.6329 59.3107 20.7027 59.3107 20.7572C59.3107 20.8505 59.2368 20.9711 59.089 21.119C58.941 21.2667 58.7427 21.4009 58.4938 21.5215C58.2448 21.6421 57.9608 21.7026 57.6422 21.7026C56.6227 21.7026 55.8779 21.4067 55.4074 20.8155C54.9365 20.2245 54.7012 19.3997 54.7012 18.3416C54.7012 17.2838 54.8997 16.0506 55.2967 14.6424C55.6932 13.2344 56.2572 11.7056 56.9884 10.0561C57.5643 8.74138 58.0055 7.5958 58.3132 6.61938C58.6204 5.64322 58.8361 4.82049 58.9606 4.15129C58.4859 4.07359 58.0211 4.00954 57.5661 3.95883C57.111 3.90812 56.654 3.88294 56.1949 3.88294C55.4559 3.88294 54.8316 3.96666 54.3221 4.1339C53.8123 4.30113 53.3922 4.49178 53.0617 4.70547C52.7311 4.91957 52.4684 5.10798 52.274 5.27143C52.0714 5.46617 51.9196 5.56329 51.819 5.56329C51.6011 5.56329 51.4199 5.43488 51.2764 5.17816C51.1322 4.92134 51.0524 4.59294 51.037 4.19219C51.0214 3.79159 51.0837 3.36556 51.2239 2.91436C51.3639 2.46311 51.6011 2.03713 51.9355 1.63653C52.2696 1.23599 52.7232 0.907123 53.295 0.650302C53.8671 0.393532 54.5727 0.265381 55.413 0.265381C56.3311 0.265381 57.173 0.341057 57.9398 0.492929C58.7056 0.64454 59.4469 0.813748 60.1627 1.00045C60.8938 1.19509 61.6467 1.36819 62.4207 1.51975C63.1948 1.67157 64.0486 1.7473 64.9822 1.7473C65.8611 1.7473 66.5732 1.69684 67.1175 1.59568C67.6621 1.49452 68.0748 1.40125 68.3548 1.31571C68.5648 1.25338 68.7168 1.22218 68.8097 1.22218Z" fill="white"/>
<path d="M75.6487 13.9186C75.6874 13.8643 75.7401 13.8604 75.8062 13.907C75.8723 13.9536 75.9326 14.0178 75.9872 14.0995C76.0415 14.1812 76.0687 14.2456 76.0687 14.292C75.7653 15.2413 75.3471 16.3325 74.8144 17.5653C74.2815 18.7985 73.692 19.7497 73.0465 20.4186C72.4863 20.9012 71.9669 21.0954 71.4888 21.0023C71.01 20.9087 70.588 20.7105 70.2223 20.407C69.7631 20.0569 69.4713 19.6506 69.347 19.1875C69.2227 18.7246 69.207 18.2094 69.3006 17.6413C68.359 19.2442 67.3517 20.2827 66.2781 20.7571C65.7179 20.9983 65.1772 21.0525 64.6558 20.9203C64.1347 20.7881 63.6814 20.5647 63.2963 20.2497C62.9111 19.9344 62.6485 19.6176 62.5085 19.2985C62.2983 18.9092 62.2503 18.1255 62.3627 16.9469C62.4757 15.7682 62.9794 14.2571 63.8738 12.4133C64.6442 10.9663 65.4765 10.0133 66.3712 9.55425C67.2659 9.09521 68.1217 8.99031 68.9387 9.23925C69.7479 9.48818 70.339 9.9003 70.7123 10.4762C70.7358 10.0873 70.7396 9.83427 70.7242 9.71749V9.58934C70.7242 9.5502 70.728 9.51164 70.7358 9.4725C70.8367 9.16907 71.3192 9.07985 72.1827 9.20416C72.8129 9.32089 73.2951 9.53079 73.6299 9.83427C73.9641 10.1379 74.1279 10.4802 74.12 10.8613C74.0968 11.3436 73.8943 12.1684 73.5132 13.3352C73.3187 13.9653 73.0889 14.7512 72.8246 15.6926C72.5214 16.7739 72.3463 17.579 72.2996 18.1082C72.2527 18.6372 72.282 18.9756 72.3873 19.1234C72.4921 19.2713 72.6263 19.3023 72.7897 19.2168C73.0072 19.1156 73.303 18.7246 73.6766 18.0439C74.0499 17.3633 74.4214 16.6243 74.791 15.8268C75.1605 15.0294 75.4384 14.4089 75.6253 13.9653C75.6331 13.9499 75.641 13.9345 75.6487 13.9186ZM66.3363 19.3336C66.8033 19.3101 67.3923 18.8609 68.1042 17.9856C68.8161 17.1104 69.4288 16.0349 69.9422 14.7588C69.9501 14.7124 69.9615 14.6617 69.977 14.6072C70.2808 13.2146 70.483 12.1762 70.5842 11.4914C70.4672 11.3592 70.3176 11.2271 70.1347 11.0946C69.9519 10.9625 69.7205 10.8654 69.4406 10.8031C69.0511 10.7254 68.6236 10.908 68.1568 11.3514C67.6898 11.7948 67.1998 12.5999 66.6865 13.7667C65.9162 15.6732 65.5603 17.0773 65.6185 17.9798C65.6768 18.8823 65.9162 19.3336 66.3363 19.3336Z" fill="white"/>
<path d="M86.2798 13.6502C86.3031 13.6114 86.3499 13.6035 86.4202 13.6268C86.4901 13.6502 86.556 13.6911 86.6184 13.7493C86.6804 13.8079 86.7119 13.8681 86.7119 13.9302C86.6804 14.0936 86.5465 14.4342 86.3094 14.9514C86.0718 15.4688 85.6866 16.0406 85.1539 16.6669C84.6209 17.2932 83.8994 17.8512 82.9893 18.3415C82.8725 18.396 82.756 18.4505 82.6391 18.505C82.6313 18.5128 82.6194 18.5166 82.6042 18.5166C82.5963 18.5244 82.5845 18.5282 82.5691 18.5282V18.5631V18.5982C82.4601 19.4228 82.0283 20.0433 81.2738 20.4595C80.5189 20.8757 79.6535 21.0915 78.6771 21.1072C77.7007 21.1226 76.8333 20.94 76.0751 20.5586C75.3163 20.1775 74.8788 19.59 74.7622 18.7968C74.7312 18.3377 74.8341 17.9604 75.0712 17.6645C75.3088 17.3689 75.6099 17.1941 75.9757 17.1396C76.3334 17.0929 76.6681 17.1086 76.9791 17.186C77.2904 17.264 77.6054 17.3689 77.9245 17.5013C78.1424 17.5868 78.3717 17.6688 78.613 17.7462C78.3563 17.4509 78.014 17.0967 77.5862 16.6843C77.3529 16.451 77.1153 16.2137 76.8741 15.9725C76.065 15.117 75.5963 14.3058 75.468 13.5392C75.3398 12.7732 75.4601 12.0788 75.8299 11.4563C76.1994 10.8341 76.7263 10.3129 77.4112 9.89271C77.9789 9.5192 78.6754 9.26643 79.4998 9.13428C80.3247 9.00208 81.2699 9.03691 82.3357 9.23923C82.5766 8.87346 82.9989 8.7123 83.6019 8.75466C84.2045 8.79748 84.7531 8.96705 85.2473 9.26243C85.7413 9.55829 85.9532 9.91996 85.8832 10.3477C85.7898 10.6201 85.5718 10.9584 85.2299 11.363C84.8172 11.8221 84.3314 12.5263 83.7711 13.4752C83.6074 13.7786 83.3878 13.9557 83.1117 14.0062C82.8357 14.0568 82.5845 13.8994 82.359 13.5337C82.1259 13.0824 81.9972 12.5553 81.974 11.9525C81.9508 11.3496 81.9815 10.7952 82.0671 10.2895C81.546 10.3593 81.013 10.546 80.4685 10.8495C79.9239 11.1531 79.5193 11.5305 79.2548 11.9814C78.9903 12.4327 79.0137 12.9114 79.3248 13.4169C79.7372 14.0003 80.1961 14.5411 80.7018 15.039C81.1064 15.4436 81.4721 15.8558 81.799 16.2759C82.1259 16.6959 82.3551 17.1512 82.4874 17.6413C82.4952 17.6413 82.4991 17.6375 82.4991 17.6297C82.6858 17.552 82.8645 17.4662 83.0359 17.3729C83.9384 16.8359 84.6346 16.2293 85.1246 15.5525C85.6148 14.8756 85.9648 14.3078 86.1749 13.8487C86.2138 13.7786 86.2489 13.7125 86.2798 13.6502ZM77.0842 19.4268C77.699 19.4813 78.183 19.4132 78.5372 19.2225C78.891 19.0319 79.0446 18.7968 78.9982 18.5166C78.5701 18.4388 78.1812 18.3493 77.8311 18.2482C77.3488 18.116 76.9521 18.0459 76.6408 18.038C76.3298 18.0304 76.1232 18.1704 76.0227 18.4582C75.9601 18.6449 76.0145 18.8373 76.1858 19.0359C76.3568 19.2344 76.6563 19.3645 77.0842 19.4268Z" fill="white"/>
<path d="M97.7741 13.9186C97.805 13.8644 97.8558 13.8603 97.9259 13.907C97.9958 13.9537 98.058 14.0177 98.1128 14.0994C98.167 14.1812 98.194 14.2455 98.194 14.2919C97.883 15.2413 97.4299 16.3383 96.8348 17.583C96.2397 18.8278 95.5995 19.7729 94.9151 20.4186C94.5883 20.6988 94.2224 20.8933 93.818 21.0023C92.9157 21.3443 92.1513 21.3988 91.525 21.1654C90.8987 20.9322 90.3912 20.5354 90.0019 19.9752C89.6131 19.415 89.3253 18.824 89.1387 18.2012C88.9519 17.579 88.843 17.0579 88.8118 16.6376C88.2595 17.8746 87.9518 18.8473 87.8899 19.555C87.8978 19.952 87.9133 20.2282 87.9368 20.3835C87.9518 20.4925 87.9559 20.5783 87.9484 20.6403C87.9326 20.7337 87.8221 20.8173 87.6159 20.8912C87.4093 20.9652 87.1624 21.004 86.8746 21.0079C86.5866 21.0121 86.3066 20.9594 86.0344 20.8504C85.7542 20.7495 85.5057 20.5841 85.2878 20.3546C85.0698 20.125 84.92 19.7517 84.8384 19.2344C84.7566 18.7168 84.7817 17.9682 84.9141 16.9877C85.1401 15.4552 85.3928 13.9537 85.6729 12.4834C85.9215 11.1532 86.19 9.60874 86.4781 7.85043C86.6645 6.61351 86.8062 5.60605 86.9038 4.82795C87.001 4.05027 87.0653 3.44517 87.0963 3.01338C87.1276 2.5818 87.1388 2.26653 87.1313 2.06821C87.1235 1.86978 87.1158 1.73151 87.1083 1.65386C87.1003 1.64623 87.0963 1.63844 87.0963 1.63061C87.0807 1.49041 87.1914 1.37186 87.429 1.27444C87.6661 1.17738 88.0298 1.16772 88.52 1.24548C89.0647 1.34664 89.5351 1.57995 89.9322 1.94566C90.3288 2.31138 90.6092 2.78205 90.7723 3.35761C90.9123 3.9489 90.8735 4.7951 90.6557 5.89588C90.4378 6.99661 90.1342 8.28632 89.7452 9.76435C89.3409 11.3282 88.9439 13.0163 88.5549 14.8289C88.9909 14.0432 89.5803 13.1914 90.3233 12.2733C91.066 11.3554 91.9666 10.5228 93.0247 9.77597C93.927 9.19231 94.695 8.99404 95.3294 9.18068C95.9633 9.36733 96.3582 9.77997 96.5137 10.4179C96.6696 11.0557 96.4904 11.7597 95.977 12.5301C95.5335 13.1135 95.0083 13.5899 94.4018 13.9594C93.7948 14.3292 93.1957 14.613 92.6046 14.8115C92.0133 15.0097 91.3132 15.1831 90.504 15.3306C90.7995 15.9609 91.0778 16.4977 91.3386 16.9411C91.5988 17.3845 91.9061 17.8088 92.2602 18.2131C92.6141 18.6176 92.997 18.9249 93.4097 19.135C93.9542 19.3141 94.3939 19.2945 94.7283 19.0767C94.9927 18.8745 95.3294 18.4406 95.7378 17.7755C96.146 17.1104 96.5409 16.4063 96.9222 15.6634C97.3037 14.9204 97.5876 14.3388 97.7741 13.9186ZM90.1072 14.3154C91.1964 13.6076 92.1943 12.8842 93.1004 12.1449C94.0067 11.4059 94.4951 10.9155 94.5649 10.6747C94.1915 10.5112 93.5496 10.7619 92.6396 11.4273C91.7292 12.0924 90.885 13.0552 90.1072 14.3154Z" fill="white"/>
</svg>
