<svg width="94" height="23" viewBox="0 0 94 23" fill="none" xmlns="http://www.w3.org/2000/svg">
<path d="M0 0.0477295C2.26652 0.0477295 4.53303 0.0477295 6.86823 0.0477295C7.22804 0.727675 7.58785 1.40762 7.95856 2.10817C10.2956 6.52683 10.2956 6.52683 12.6547 10.9337C12.7309 11.0752 12.8072 11.2166 12.8857 11.3623C13.169 11.8877 13.4523 12.4131 13.7358 12.9384C14.0221 13.469 14.3081 13.9997 14.5936 14.5307C14.6851 14.7007 14.7767 14.8706 14.8684 15.0404C14.9958 15.2762 15.1227 15.5123 15.2496 15.7484C15.3223 15.8832 15.3949 16.018 15.4697 16.1569C15.5637 16.3422 15.5637 16.3422 15.6596 16.5313C15.719 16.6484 15.7785 16.7656 15.8398 16.8863C15.9343 17.2181 15.9343 17.2181 15.8403 17.5151C15.7503 17.6634 15.7503 17.6634 15.6585 17.8147C15.5916 17.928 15.5247 18.0413 15.4558 18.158C15.3814 18.2785 15.307 18.3989 15.2303 18.523C15.0775 18.7796 14.9247 19.0363 14.7721 19.293C14.6922 19.4253 14.6124 19.5577 14.5302 19.694C14.1291 20.3651 13.7446 21.0455 13.3587 21.7253C13.2193 21.9695 13.0798 22.2136 12.9402 22.4577C12.8816 22.5602 12.823 22.6627 12.7627 22.7683C12.7007 22.8767 12.7007 22.8767 12.6375 22.9873C12.5469 22.9873 12.4562 22.9873 12.3628 22.9873C12.3097 22.8873 12.2567 22.7874 12.202 22.6844C11.2919 20.9721 10.3806 19.2622 9.41806 17.5786C8.62666 16.1929 7.87377 14.7886 7.12589 13.3791C7.03303 13.2041 6.94017 13.0291 6.8473 12.8541C6.80197 12.7687 6.75664 12.6833 6.70994 12.5953C6.30459 11.8323 5.89241 11.0733 5.47741 10.3156C4.80428 9.08633 4.13819 7.85341 3.47479 6.61887C3.07234 5.8702 2.66877 5.12219 2.26222 4.37573C2.18359 4.23122 2.10496 4.08671 2.02395 3.93782C1.87731 3.66853 1.73042 3.39938 1.58321 3.13041C1.02965 2.11325 0.51894 1.0856 0 0.0477295Z" fill="#0079FD"/>
<path d="M18.4074 0.0477419C18.6907 -0.00181353 18.6907 -0.00181352 19.0438 0.000959469C19.2418 0.00100616 19.2418 0.00100616 19.4438 0.00105379C19.5866 0.00318069 19.7294 0.0053076 19.8765 0.00749895C20.0225 0.00808204 20.1685 0.00866512 20.3188 0.00926587C20.7864 0.0115779 21.2538 0.0167511 21.7213 0.0219864C22.0377 0.0240525 22.3541 0.0259329 22.6705 0.0276204C23.4473 0.0321711 24.2241 0.0390727 25.0009 0.0477419C24.8191 0.643185 24.5875 1.16363 24.2862 1.7079C24.2218 1.82553 24.2218 1.82553 24.156 1.94553C23.9171 2.38021 23.6719 2.8108 23.4217 3.23911C22.9244 4.09696 22.4913 4.90065 22.1871 5.85078C21.8385 6.82199 21.5413 7.63072 20.6052 8.15214C18.5045 8.65602 16.1393 8.35097 14.0117 8.15214C14.1884 7.57616 14.4065 7.07222 14.7012 6.54725C14.7842 6.3986 14.8673 6.24995 14.9528 6.0968C15.0417 5.9393 15.1306 5.78179 15.2222 5.61952C15.3144 5.45527 15.4064 5.29099 15.4984 5.12667C15.7341 4.70623 15.9706 4.2863 16.2075 3.86651C16.429 3.47364 16.6497 3.08035 16.8706 2.68714C17.0308 2.40254 17.1911 2.11798 17.3514 1.83346C17.4262 1.70076 17.501 1.56805 17.578 1.43133C17.6818 1.24791 17.6818 1.24791 17.7876 1.06079C17.8479 0.954196 17.9082 0.847601 17.9702 0.737775C18.1076 0.502687 18.2563 0.274294 18.4074 0.0477419Z" fill="#0077FB"/>
<path d="M29.0284 7.26638L31.2997 14.1357H31.3892L33.6562 7.26638H35.3949L32.3182 15.9937H30.3665L27.294 7.26638H29.0284ZM36.8362 15.9937V9.4482H38.3788V15.9937H36.8362ZM37.6118 8.51922C37.3675 8.51922 37.1572 8.43825 36.9811 8.27632C36.805 8.11155 36.7169 7.91411 36.7169 7.68399C36.7169 7.45104 36.805 7.2536 36.9811 7.09166C37.1572 6.92689 37.3675 6.8445 37.6118 6.8445C37.8589 6.8445 38.0692 6.92689 38.2425 7.09166C38.4186 7.2536 38.5067 7.45104 38.5067 7.68399C38.5067 7.91411 38.4186 8.11155 38.2425 8.27632C38.0692 8.43825 37.8589 8.51922 37.6118 8.51922ZM40.3251 18.4482V9.4482H41.8422V10.5306H41.9316C42.0112 10.3715 42.1234 10.2025 42.2683 10.0235C42.4132 9.84166 42.6092 9.68683 42.8564 9.55899C43.1035 9.42831 43.4189 9.36297 43.8024 9.36297C44.3081 9.36297 44.764 9.49223 45.1703 9.75075C45.5794 10.0064 45.9032 10.3857 46.1419 10.8885C46.3834 11.3885 46.5041 12.0022 46.5041 12.7294C46.5041 13.4482 46.3862 14.059 46.1504 14.5618C45.9146 15.0647 45.5936 15.4482 45.1873 15.7124C44.7811 15.9766 44.3209 16.1087 43.8066 16.1087C43.4316 16.1087 43.1206 16.0462 42.8734 15.9212C42.6263 15.7962 42.4274 15.6456 42.2768 15.4695C42.1291 15.2905 42.014 15.1215 41.9316 14.9624H41.8677V18.4482H40.3251ZM41.8379 12.7209C41.8379 13.1442 41.8976 13.515 42.0169 13.8331C42.139 14.1513 42.3138 14.3999 42.541 14.5789C42.7711 14.755 43.0495 14.8431 43.3763 14.8431C43.7172 14.8431 44.0027 14.7522 44.2328 14.5704C44.4629 14.3857 44.6362 14.1343 44.7527 13.8161C44.872 13.4951 44.9316 13.13 44.9316 12.7209C44.9316 12.3147 44.8734 11.9539 44.7569 11.6385C44.6405 11.3232 44.4672 11.076 44.237 10.8971C44.0069 10.7181 43.72 10.6286 43.3763 10.6286C43.0467 10.6286 42.7669 10.7152 42.5368 10.8885C42.3066 11.0618 42.1319 11.3047 42.0126 11.6172C41.8961 11.9297 41.8379 12.2976 41.8379 12.7209ZM51.0828 16.1215C50.4266 16.1215 49.8598 15.9851 49.3826 15.7124C48.9081 15.4368 48.5431 15.0476 48.2874 14.5448C48.0317 14.0391 47.9039 13.4439 47.9039 12.7593C47.9039 12.086 48.0317 11.4951 48.2874 10.9865C48.5459 10.4752 48.9067 10.0775 49.3698 9.79337C49.8328 9.50644 50.3769 9.36297 51.0019 9.36297C51.4053 9.36297 51.786 9.42831 52.1439 9.55899C52.5047 9.68683 52.8229 9.8857 53.0985 10.1556C53.3769 10.4255 53.5956 10.7692 53.7547 11.1868C53.9138 11.6016 53.9934 12.0959 53.9934 12.6698V13.1428H48.6283V12.103H52.5147C52.5118 11.8076 52.4479 11.5448 52.3229 11.3147C52.1979 11.0817 52.0232 10.8985 51.7987 10.765C51.5772 10.6314 51.3186 10.5647 51.0232 10.5647C50.7078 10.5647 50.4309 10.6414 50.1922 10.7948C49.9536 10.9454 49.7675 11.1442 49.634 11.3914C49.5033 11.6357 49.4365 11.9042 49.4337 12.1968V13.1044C49.4337 13.4851 49.5033 13.8118 49.6425 14.0846C49.7817 14.3544 49.9763 14.5618 50.2263 14.7067C50.4763 14.8488 50.7689 14.9198 51.1041 14.9198C51.3286 14.9198 51.5317 14.8885 51.7135 14.826C51.8953 14.7607 52.053 14.6655 52.1865 14.5405C52.3201 14.4155 52.4209 14.2607 52.4891 14.076L53.9294 14.238C53.8385 14.6187 53.6652 14.951 53.4095 15.2351C53.1567 15.5164 52.8328 15.7351 52.438 15.8914C52.0431 16.0448 51.5914 16.1215 51.0828 16.1215ZM55.6584 15.9937V9.4482H57.1541V10.5391H57.2223C57.3416 10.1613 57.5462 9.87007 57.836 9.66553C58.1286 9.45814 58.4624 9.35445 58.8374 9.35445C58.9226 9.35445 59.0178 9.35871 59.1229 9.36723C59.2308 9.37291 59.3203 9.38286 59.3914 9.39706V10.8161C59.326 10.7934 59.2223 10.7735 59.0803 10.7564C58.9411 10.7365 58.8061 10.7266 58.6754 10.7266C58.3942 10.7266 58.1414 10.7877 57.9169 10.9098C57.6953 11.0292 57.5206 11.1954 57.3928 11.4084C57.2649 11.6215 57.201 11.8672 57.201 12.1456V15.9937H55.6584ZM67.1383 15.9937H64.181V7.26638H67.198C68.0645 7.26638 68.8088 7.4411 69.431 7.79053C70.056 8.13712 70.5361 8.6357 70.8713 9.28627C71.2065 9.93683 71.3741 10.7152 71.3741 11.6215C71.3741 12.5306 71.2051 13.3118 70.867 13.9652C70.5318 14.6187 70.0474 15.1201 69.4139 15.4695C68.7832 15.8189 68.0247 15.9937 67.1383 15.9937ZM65.7619 14.6258H67.0616C67.6696 14.6258 68.1767 14.515 68.5829 14.2934C68.9892 14.0689 69.2946 13.7351 69.4991 13.2919C69.7037 12.8459 69.806 12.2891 69.806 11.6215C69.806 10.9539 69.7037 10.3999 69.4991 9.95956C69.2946 9.51638 68.992 9.18541 68.5915 8.96666C68.1937 8.74507 67.6994 8.63428 67.1085 8.63428H65.7619V14.6258ZM76.0658 16.1215C75.4096 16.1215 74.8428 15.9851 74.3655 15.7124C73.8911 15.4368 73.526 15.0476 73.2704 14.5448C73.0147 14.0391 72.8868 13.4439 72.8868 12.7593C72.8868 12.086 73.0147 11.4951 73.2704 10.9865C73.5289 10.4752 73.8897 10.0775 74.3527 9.79337C74.8158 9.50644 75.3598 9.36297 75.9848 9.36297C76.3883 9.36297 76.7689 9.42831 77.1269 9.55899C77.4877 9.68683 77.8059 9.8857 78.0814 10.1556C78.3598 10.4255 78.5786 10.7692 78.7377 11.1868C78.8968 11.6016 78.9763 12.0959 78.9763 12.6698V13.1428H73.6113V12.103H77.4976C77.4948 11.8076 77.4309 11.5448 77.3059 11.3147C77.1809 11.0817 77.0062 10.8985 76.7817 10.765C76.5601 10.6314 76.3016 10.5647 76.0062 10.5647C75.6908 10.5647 75.4138 10.6414 75.1752 10.7948C74.9365 10.9454 74.7505 11.1442 74.6169 11.3914C74.4863 11.6357 74.4195 11.9042 74.4167 12.1968V13.1044C74.4167 13.4851 74.4863 13.8118 74.6255 14.0846C74.7647 14.3544 74.9593 14.5618 75.2093 14.7067C75.4593 14.8488 75.7519 14.9198 76.0871 14.9198C76.3115 14.9198 76.5147 14.8885 76.6965 14.826C76.8783 14.7607 77.036 14.6655 77.1695 14.5405C77.303 14.4155 77.4039 14.2607 77.4721 14.076L78.9124 14.238C78.8215 14.6187 78.6482 14.951 78.3925 15.2351C78.1397 15.5164 77.8158 15.7351 77.4209 15.8914C77.026 16.0448 76.5743 16.1215 76.0658 16.1215ZM85.8147 11.1783L84.4084 11.3317C84.3686 11.1897 84.299 11.0562 84.1996 10.9312C84.103 10.8062 83.9723 10.7053 83.8076 10.6286C83.6428 10.5519 83.4411 10.5135 83.2024 10.5135C82.8814 10.5135 82.6115 10.5831 82.3928 10.7223C82.1769 10.8615 82.0703 11.0419 82.0732 11.2635C82.0703 11.4539 82.1399 11.6087 82.282 11.728C82.4269 11.8473 82.6655 11.9454 82.9979 12.0221L84.1144 12.2607C84.7337 12.3942 85.1939 12.6059 85.4951 12.8956C85.799 13.1854 85.9524 13.5647 85.9553 14.0334C85.9524 14.4454 85.8317 14.809 85.5931 15.1243C85.3573 15.4368 85.0291 15.6812 84.6087 15.8573C84.1882 16.0334 83.7053 16.1215 83.1598 16.1215C82.3587 16.1215 81.7138 15.9539 81.2252 15.6187C80.7365 15.2806 80.4453 14.8104 80.3516 14.2081L81.8559 14.0633C81.924 14.3587 82.0689 14.5817 82.2905 14.7323C82.5121 14.8829 82.8005 14.9581 83.1556 14.9581C83.522 14.9581 83.8161 14.8829 84.0377 14.7323C84.2621 14.5817 84.3743 14.3956 84.3743 14.174C84.3743 13.9865 84.3019 13.8317 84.157 13.7096C84.0149 13.5874 83.7934 13.4937 83.4922 13.4283L82.3757 13.1939C81.7479 13.0633 81.2834 12.8431 80.9823 12.5334C80.6811 12.2209 80.532 11.826 80.5348 11.3488C80.532 10.9454 80.6414 10.5959 80.863 10.3005C81.0874 10.0022 81.3985 9.77206 81.7962 9.61013C82.1968 9.44536 82.6584 9.36297 83.1811 9.36297C83.9482 9.36297 84.5519 9.52632 84.9922 9.85303C85.4354 10.1797 85.7095 10.6215 85.8147 11.1783ZM88.9936 13.9397L88.9893 12.0775H89.2365L91.5887 9.4482H93.3913L90.4978 12.6698H90.1782L88.9936 13.9397ZM87.5873 15.9937V7.26638H89.1299V15.9937H87.5873ZM91.6953 15.9937L89.5646 13.015L90.6043 11.9283L93.5404 15.9937H91.6953Z" fill="#0079FD"/>
</svg>
