<svg width="37" height="35" viewBox="0 0 37 35" fill="none" xmlns="http://www.w3.org/2000/svg">
<path d="M29.8168 4.87423C28.5561 3.61307 27.0375 2.98267 25.2616 2.98267H6.63976C4.86514 2.98267 3.3466 3.61307 2.08583 4.87423C0.824712 6.13493 0.194336 7.65344 0.194336 9.42942V28.0499C0.194336 29.8258 0.824712 31.3445 2.08583 32.6051C3.3466 33.8663 4.86514 34.4967 6.63976 34.4967H25.2616C27.0375 34.4967 28.5547 33.8663 29.8168 32.6051C31.0779 31.3445 31.708 29.8258 31.708 28.0499V9.42942C31.7069 7.65344 31.0766 6.13493 29.8168 4.87423ZM28.8431 28.0499C28.8431 29.0343 28.4914 29.8781 27.7912 30.5794C27.0898 31.2812 26.246 31.6315 25.2616 31.6315H6.63976C5.65501 31.6315 4.81251 31.2812 4.11092 30.5794C3.40954 29.8781 3.05955 29.0343 3.05955 28.0499V9.42942C3.05955 8.44371 3.40954 7.60084 4.11092 6.89956C4.81251 6.19782 5.65501 5.84788 6.63976 5.84788H25.2616C26.246 5.84788 27.0898 6.19782 27.7912 6.89956C28.4914 7.60084 28.8431 8.44371 28.8431 9.42942V28.0499Z" fill="white"/>
<path d="M32.919 5.47887C31.7977 4.09225 30.3541 3.30541 28.5882 3.11814L10.0702 1.15536C8.30534 0.96832 6.72885 1.4352 5.34218 2.55612C3.95515 3.67735 3.16828 5.12099 2.98114 6.88684L1.01867 25.4035C0.831534 27.1698 1.29846 28.7462 2.41938 30.1329C3.54025 31.5198 4.98389 32.3068 6.74842 32.494L25.2668 34.4564C27.0327 34.6435 28.6078 34.1766 29.9962 33.0557C31.3828 31.9348 32.1693 30.4912 32.3565 28.725L34.3192 10.2083C34.5055 8.442 34.0385 6.86551 32.919 5.47887ZM29.5076 28.4232C29.4041 29.4019 28.9654 30.2041 28.1953 30.828C27.4237 31.4516 26.5478 31.7111 25.5688 31.6072L7.0505 29.6444C6.0711 29.5408 5.27061 29.1036 4.64682 28.3319C4.02314 27.5604 3.76399 26.6847 3.8679 25.7056L5.83037 7.18895C5.9342 6.20856 6.37116 5.40732 7.14274 4.78356C7.91424 4.16016 8.78885 3.9008 9.76818 4.00469L28.2861 5.96747C29.2652 6.07102 30.0674 6.50792 30.6911 7.27947C31.3131 8.05098 31.5743 8.92585 31.4704 9.90629L29.5076 28.4232Z" fill="white"/>
<path d="M35.7792 5.99816C34.7545 4.53853 33.3675 3.65567 31.6183 3.34936L13.2755 0.137089C11.5275 -0.168912 9.92302 0.190109 8.46348 1.2147C7.00422 2.23944 6.12104 3.62611 5.81473 5.37572L2.60283 23.7169C2.29646 25.4665 2.65577 27.0709 3.6801 28.5301C4.70479 29.9897 6.0918 30.8725 7.83972 31.1789L26.1825 34.3908C27.9319 34.6972 29.5349 34.3379 30.9958 33.3135C32.4551 32.2892 33.3379 30.9022 33.6443 29.1528L36.8562 10.8114C37.1615 9.06172 36.8022 7.45734 35.7792 5.99816ZM30.8223 28.6587C30.6525 29.6285 30.1607 30.3986 29.3498 30.9691C28.5379 31.5388 27.6464 31.7383 26.6767 31.5685L8.33393 28.3567C7.36386 28.1869 6.59464 27.6963 6.0245 26.8844C5.45439 26.0722 5.25523 25.1808 5.42509 24.211L8.63699 5.86998C8.80716 4.89888 9.29737 4.12891 10.1091 3.55915C10.9211 2.98901 11.8112 2.78957 12.7813 2.95943L31.124 6.17157C32.0938 6.34145 32.8644 6.83171 33.4345 7.64344C34.0033 8.4553 34.2041 9.34618 34.0342 10.3172L30.8223 28.6587Z" fill="white"/>
<g clip-path="url(#clip0_9008_68923)">
<path d="M16.0966 23.2213C15.9343 23.3846 15.7128 23.4757 15.4827 23.4757C15.2526 23.4757 15.0311 23.3846 14.8687 23.2213L9.96561 18.3174C9.45677 17.8085 9.45677 16.9834 9.96561 16.4755L10.5796 15.8614C11.0886 15.3526 11.9127 15.3526 12.4216 15.8614L15.4827 18.9227L23.7543 10.6509C24.2633 10.1421 25.0882 10.1421 25.5963 10.6509L26.2102 11.265C26.7191 11.7739 26.7191 12.5988 26.2102 13.1069L16.0966 23.2213Z" fill="white"/>
</g>
<defs>
<clipPath id="clip0_9008_68923">
<rect width="17.0079" height="17.0079" fill="white" transform="translate(9.58398 10.2363)"/>
</clipPath>
</defs>
</svg>
