<svg width="18" height="18" viewBox="0 0 18 18" fill="none" xmlns="http://www.w3.org/2000/svg">
<path d="M15.3639 1.39525C15.1579 1.18934 14.824 1.18934 14.6181 1.39525C14.4122 1.60119 14.4122 1.93511 14.6181 2.14102C16.1189 3.64166 16.9453 5.63688 16.9453 7.75923C16.9453 8.05047 17.1814 8.28657 17.4727 8.28657C17.7639 8.28657 18 8.05047 18 7.75923C18 5.35518 17.0638 3.09505 15.3639 1.39525ZM3.38179 1.39528C3.17584 1.18937 2.84196 1.18934 2.63602 1.39528C0.936141 3.09523 0 5.35532 0 7.75923C0 8.05047 0.236109 8.28657 0.527344 8.28657C0.818578 8.28657 1.05469 8.05047 1.05469 7.75923C1.05469 5.63702 1.88114 3.6418 3.38179 2.14109C3.58773 1.93514 3.58773 1.60123 3.38179 1.39528ZM13.0204 2.99268C12.8145 3.19862 12.8145 3.5325 13.0204 3.73845C14.0944 4.8124 14.6859 6.24031 14.6859 7.7592C14.6859 8.05043 14.922 8.28654 15.2132 8.28654C15.5045 8.28654 15.7406 8.05043 15.7406 7.7592C15.7406 5.9586 15.0394 4.26579 13.7662 2.99264C13.5602 2.78677 13.2263 2.78677 13.0204 2.99268ZM4.97932 2.99292C4.77338 2.78701 4.43946 2.78701 4.23355 2.99296C2.96051 4.26618 2.25939 5.95884 2.25939 7.7592C2.25939 8.05043 2.4955 8.28654 2.78673 8.28654C3.07796 8.28654 3.31407 8.05043 3.31407 7.7592C3.31407 6.24055 3.90551 4.81272 4.97939 3.73869C5.1853 3.53275 5.18527 3.19887 4.97932 2.99292ZM13.4813 11.5886V8.88891C13.4813 7.90415 13.1677 6.96973 12.5746 6.18662C12.0788 5.53212 11.4028 5.02084 10.6431 4.72001C10.5374 3.90751 9.84087 3.27797 9 3.27797C8.15913 3.27797 7.46251 3.90748 7.3568 4.72001C6.59721 5.02088 5.92112 5.53215 5.42538 6.18662C4.83223 6.96973 4.5187 7.90415 4.5187 8.88891V11.5886L3.44472 13.7367C3.40452 13.8171 3.38554 13.9064 3.38958 13.9962C3.39362 14.086 3.42055 14.1733 3.46781 14.2498C3.51507 14.3262 3.58109 14.3893 3.6596 14.4331C3.73812 14.4769 3.82652 14.4998 3.91641 14.4998H6.26393C6.51118 15.7851 7.64367 16.7592 8.99996 16.7592C10.3562 16.7592 11.4887 15.7851 11.7359 14.4998H14.0836C14.1735 14.4998 14.2619 14.4769 14.3404 14.4331C14.4189 14.3893 14.4849 14.3262 14.5322 14.2498C14.5794 14.1733 14.6064 14.086 14.6104 13.9962C14.6145 13.9064 14.5955 13.8171 14.5553 13.7367L13.4813 11.5886ZM9 15.7045C8.22874 15.7045 7.57361 15.1978 7.35001 14.4998H10.65C10.4264 15.1978 9.77126 15.7045 9 15.7045ZM11.2594 13.4452H4.76968L5.51777 11.9489C5.55439 11.8757 5.57344 11.795 5.57343 11.7131V8.88891C5.57343 7.38447 6.57977 6.03411 8.02072 5.60514C8.1296 5.57272 8.2251 5.50602 8.293 5.41495C8.36091 5.32389 8.39759 5.21333 8.3976 5.09973V4.93499C8.3976 4.60287 8.66784 4.33266 9 4.33266C9.33212 4.33266 9.60233 4.60287 9.60233 4.93499V5.09973C9.60233 5.33303 9.75561 5.53859 9.97921 5.60514C11.4202 6.03411 12.4266 7.38443 12.4266 8.88891V11.7131C12.4266 11.795 12.4456 11.8757 12.4822 11.9489L13.2303 13.4452H11.2594Z" fill="#D9D9D9"/>
</svg>
