<svg width="18" height="18" viewBox="0 0 18 18" fill="none" xmlns="http://www.w3.org/2000/svg">
<g clip-path="url(#clip0_9878_39955)">
<path fill-rule="evenodd" clip-rule="evenodd" d="M7.875 15.1973H2.2125C2.17272 15.1973 2.13456 15.1814 2.10643 15.1533C2.0783 15.1252 2.0625 15.087 2.0625 15.0472V13.9598C2.0625 13.3365 2.50725 12.7875 3.19275 12.321C4.41675 11.4855 6.3975 10.959 8.625 10.959C8.9925 10.959 9.35325 10.974 9.70575 11.0017C9.78026 11.0093 9.85553 11.0018 9.92712 10.9798C9.99872 10.9579 10.0652 10.9218 10.1227 10.8738C10.1802 10.8258 10.2275 10.7668 10.2619 10.7003C10.2962 10.6337 10.317 10.561 10.3229 10.4863C10.3288 10.4117 10.3197 10.3366 10.2962 10.2655C10.2727 10.1944 10.2352 10.1287 10.186 10.0723C10.1367 10.0158 10.0767 9.9698 10.0094 9.93687C9.94218 9.90394 9.86902 9.88478 9.79425 9.8805C9.40528 9.84931 9.01522 9.8338 8.625 9.834C6.1335 9.834 3.92775 10.4572 2.55825 11.391C1.5135 12.1035 0.9375 13.0087 0.9375 13.959V15.0472C0.937699 15.3853 1.07212 15.7094 1.3112 15.9483C1.55029 16.1873 1.87448 16.3215 2.2125 16.3215L7.875 16.3223C8.02418 16.3223 8.16726 16.263 8.27275 16.1575C8.37824 16.052 8.4375 15.9089 8.4375 15.7598C8.4375 15.6106 8.37824 15.4675 8.27275 15.362C8.16726 15.2565 8.02418 15.1973 7.875 15.1973ZM8.625 0.9375C6.348 0.9375 4.5 2.7855 4.5 5.0625C4.5 7.3395 6.348 9.1875 8.625 9.1875C10.902 9.1875 12.75 7.3395 12.75 5.0625C12.75 2.7855 10.902 0.9375 8.625 0.9375ZM8.625 2.0625C10.281 2.0625 11.625 3.4065 11.625 5.0625C11.625 6.7185 10.281 8.0625 8.625 8.0625C6.969 8.0625 5.625 6.7185 5.625 5.0625C5.625 3.4065 6.969 2.0625 8.625 2.0625ZM13.614 15.156C14.1212 15.2329 14.6395 15.1785 15.1197 14.9981C15.5999 14.8177 16.0258 14.5173 16.3569 14.1256C16.688 13.7338 16.9132 13.2637 17.0111 12.7602C17.1089 12.2567 17.0761 11.7365 16.9157 11.2492C16.7554 10.762 16.4729 10.324 16.0952 9.97691C15.7175 9.62986 15.2572 9.38537 14.7581 9.26676C14.2591 9.14816 13.738 9.15939 13.2445 9.29939C12.751 9.43939 12.3017 9.70349 11.9392 10.0665C11.6067 10.3987 11.357 10.8044 11.2102 11.2508C11.0633 11.6973 11.0235 12.1721 11.094 12.6368L9.3525 14.3775C9.30016 14.4298 9.25865 14.4919 9.23034 14.5602C9.20202 14.6285 9.18747 14.7018 9.1875 14.7758V16.5C9.1875 16.8105 9.4395 17.0625 9.75 17.0625H11.4742C11.5482 17.0625 11.6215 17.048 11.6898 17.0197C11.7581 16.9914 11.8202 16.9498 11.8725 16.8975L13.614 15.156ZM13.575 14.001C13.4798 13.9756 13.3796 13.9757 13.2844 14.0013C13.1893 14.0268 13.1025 14.0769 13.0328 14.1465L11.2418 15.9375H10.3125V15.0082L12.1035 13.2172C12.1731 13.1475 12.2232 13.0607 12.2487 12.9656C12.2743 12.8704 12.2744 12.7702 12.249 12.675C12.1431 12.2762 12.1715 11.8536 12.3298 11.4726C12.488 11.0915 12.7674 10.7732 13.1247 10.5668C13.482 10.3604 13.8974 10.2774 14.3065 10.3307C14.7157 10.384 15.096 10.5705 15.3885 10.8615C15.6795 11.154 15.866 11.5343 15.9193 11.9435C15.9726 12.3526 15.8896 12.768 15.6832 13.1253C15.4768 13.4826 15.1585 13.762 14.7774 13.9202C14.3964 14.0785 13.9738 14.1069 13.575 14.001Z" fill="#D9D9D9"/>
<path fill-rule="evenodd" clip-rule="evenodd" d="M13.4865 12.7635C13.4081 12.6886 13.3454 12.5987 13.3022 12.4992C13.259 12.3997 13.2362 12.2926 13.235 12.1841C13.2338 12.0757 13.2543 11.9681 13.2953 11.8676C13.3362 11.7672 13.3969 11.676 13.4736 11.5994C13.5504 11.5227 13.6417 11.4622 13.7422 11.4213C13.8426 11.3805 13.9503 11.3601 14.0587 11.3615C14.1672 11.3628 14.2743 11.3858 14.3737 11.4291C14.4732 11.4725 14.5629 11.5352 14.6378 11.6138C14.7844 11.7676 14.865 11.9727 14.8624 12.1852C14.8597 12.3977 14.7741 12.6007 14.6237 12.7509C14.4733 12.9011 14.2702 12.9865 14.0577 12.9888C13.8452 12.9912 13.6402 12.9103 13.4865 12.7635Z" fill="#D9D9D9"/>
</g>
<defs>
<clipPath id="clip0_9878_39955">
<rect width="18" height="18" fill="white"/>
</clipPath>
</defs>
</svg>
