<svg width="50" height="50" viewBox="0 0 50 50" fill="none" xmlns="http://www.w3.org/2000/svg">
<path d="M25 50C18.3221 50 12.044 47.3996 7.32224 42.6777C2.60043 37.9558 0 31.6778 0 25C0 18.3222 2.60043 12.0442 7.32224 7.32232C12.044 2.60043 18.3221 0 25 0C31.6778 0 37.9559 2.60043 42.6778 7.32232C47.3996 12.0442 50 18.3222 50 25C50 31.6778 47.3996 37.9558 42.6778 42.6777C37.9559 47.3996 31.6778 50 25 50ZM23.749 27.4997V36.2501H27.4998V27.4997H36.249V23.7501H27.4998V14.9997H23.749V23.7501H14.9986V27.4997H23.749Z" fill="#464D9B"/>
</svg>
