<svg width="14" height="14" viewBox="0 0 14 14" fill="none" xmlns="http://www.w3.org/2000/svg">
<g clip-path="url(#clip0_9025_217)">
<path d="M2.02251 0C0.907293 0 0 0.907293 0 2.02251C0 3.13772 0.907293 4.04502 2.02251 4.04502C3.13772 4.04502 4.04502 3.13772 4.04502 2.02251C4.04502 0.907293 3.13772 0 2.02251 0ZM2.02251 3.60752C1.14852 3.60752 0.4375 2.89647 0.4375 2.02251C0.4375 1.14855 1.14852 0.4375 2.02251 0.4375C2.89647 0.4375 3.60752 1.14852 3.60752 2.02251C3.60752 2.8965 2.8965 3.60752 2.02251 3.60752ZM2.36417 1.17269V2.8723C2.36417 2.93031 2.34112 2.98595 2.3001 3.02698C2.25907 3.068 2.20343 3.09105 2.14542 3.09105C2.0874 3.09105 2.03176 3.068 1.99074 3.02698C1.94971 2.98595 1.92667 2.93031 1.92667 2.8723V1.6257L1.78464 1.73846C1.76215 1.75632 1.73635 1.76958 1.70873 1.77747C1.68111 1.78537 1.6522 1.78774 1.62366 1.78447C1.59512 1.78119 1.56751 1.77232 1.54239 1.75837C1.51728 1.74442 1.49516 1.72566 1.4773 1.70316C1.45944 1.68066 1.44618 1.65487 1.43829 1.62724C1.43039 1.59962 1.42802 1.57072 1.4313 1.54218C1.43457 1.51364 1.44344 1.48602 1.45739 1.46091C1.47134 1.4358 1.4901 1.41368 1.5126 1.39582L2.00941 1.00136C2.04163 0.975779 2.08041 0.959806 2.12129 0.955269C2.16217 0.950731 2.20351 0.957814 2.24055 0.975704C2.27759 0.993594 2.30884 1.02157 2.33071 1.05641C2.35257 1.09125 2.36417 1.13156 2.36417 1.17269ZM2.02251 9.95498C0.907293 9.95498 0 10.8623 0 11.9775C0 13.0927 0.907293 14 2.02251 14C3.13772 14 4.04502 13.0927 4.04502 11.9775C4.04502 10.8623 3.13772 9.95498 2.02251 9.95498ZM2.02251 13.5625C1.14852 13.5625 0.4375 12.8515 0.4375 11.9775C0.4375 11.1035 1.14852 10.3925 2.02251 10.3925C2.89647 10.3925 3.60752 11.1035 3.60752 11.9775C3.60752 12.8515 2.8965 13.5625 2.02251 13.5625ZM2.73924 11.4795C2.73924 11.6728 2.66232 11.8485 2.53753 11.9775C2.66235 12.1066 2.73924 12.2822 2.73924 12.4755C2.73924 12.8707 2.41771 13.1922 2.02251 13.1922C1.62731 13.1922 1.30575 12.8707 1.30575 12.4755C1.30575 12.4175 1.32879 12.3618 1.36982 12.3208C1.41084 12.2798 1.46648 12.2568 1.5245 12.2568C1.58251 12.2568 1.63815 12.2798 1.67918 12.3208C1.7202 12.3618 1.74325 12.4175 1.74325 12.4755C1.74325 12.6295 1.86851 12.7547 2.02248 12.7547C2.17645 12.7547 2.30171 12.6295 2.30171 12.4755C2.30171 12.3215 2.17645 12.1962 2.02248 12.1962C1.96446 12.1962 1.90882 12.1732 1.8678 12.1322C1.82678 12.0911 1.80373 12.0355 1.80373 11.9775C1.80373 11.9195 1.82678 11.8638 1.8678 11.8228C1.90882 11.7818 1.96446 11.7587 2.02248 11.7587C2.17645 11.7587 2.30171 11.6335 2.30171 11.4795C2.30171 11.3255 2.17645 11.2003 2.02248 11.2003C1.86851 11.2003 1.74325 11.3255 1.74325 11.4795C1.74325 11.5375 1.7202 11.5932 1.67918 11.6342C1.63815 11.6752 1.58251 11.6983 1.5245 11.6983C1.46648 11.6983 1.41084 11.6752 1.36982 11.6342C1.32879 11.5932 1.30575 11.5375 1.30575 11.4795C1.30575 11.0843 1.62728 10.7628 2.02248 10.7628C2.41768 10.7628 2.73924 11.0843 2.73924 11.4795ZM2.02251 4.97749C0.907293 4.97749 0 5.88479 0 7C0 8.11522 0.907293 9.02251 2.02251 9.02251C3.13772 9.02251 4.04502 8.11522 4.04502 7C4.04502 5.88479 3.13772 4.97749 2.02251 4.97749ZM2.02251 8.58501C1.14852 8.58501 0.4375 7.87399 0.4375 7C0.4375 6.12604 1.14852 5.41499 2.02251 5.41499C2.89647 5.41499 3.60752 6.12601 3.60752 7C3.60752 7.87399 2.8965 8.58501 2.02251 8.58501ZM2.74315 7.89403C2.74315 7.95205 2.72011 8.00769 2.67908 8.04871C2.63806 8.08973 2.58242 8.11278 2.5244 8.11278H1.52059C1.47967 8.11277 1.43958 8.10128 1.40487 8.07963C1.37016 8.05797 1.34221 8.02702 1.3242 7.99028C1.30619 7.95355 1.29884 7.9125 1.30299 7.8718C1.30714 7.83109 1.32262 7.79237 1.34766 7.76002C1.4715 7.60025 1.63494 7.45637 1.79298 7.31724C2.065 7.07777 2.32195 6.85158 2.30251 6.62244C2.30198 6.61629 2.30172 6.61012 2.30171 6.60395C2.30171 6.44998 2.17645 6.32472 2.02248 6.32472C1.86851 6.32472 1.74325 6.44998 1.74325 6.60395C1.74325 6.66197 1.7202 6.71761 1.67918 6.75863C1.63815 6.79966 1.58251 6.8227 1.5245 6.8227C1.46648 6.8227 1.41084 6.79966 1.36982 6.75863C1.32879 6.71761 1.30575 6.66197 1.30575 6.60395C1.30575 6.20873 1.62728 5.88722 2.02248 5.88722C2.41459 5.88722 2.73416 6.20372 2.73916 6.59466C2.77148 7.03872 2.40535 7.36102 2.08206 7.64564L2.0484 7.67531H2.5244C2.55313 7.6753 2.58158 7.68095 2.60812 7.69194C2.63466 7.70293 2.65877 7.71904 2.67909 7.73935C2.6994 7.75967 2.71552 7.78378 2.72651 7.81032C2.7375 7.83686 2.74316 7.86531 2.74315 7.89403ZM12.7832 2.02251C12.7832 2.08052 12.7602 2.13616 12.7191 2.17719C12.6781 2.21821 12.6225 2.24126 12.5645 2.24126H6.58984C6.53183 2.24126 6.47619 2.21821 6.43516 2.17719C6.39414 2.13616 6.37109 2.08052 6.37109 2.02251C6.37109 1.96449 6.39414 1.90885 6.43516 1.86783C6.47619 1.8268 6.53183 1.80376 6.58984 1.80376H12.5645C12.6225 1.80376 12.6781 1.8268 12.7191 1.86783C12.7602 1.90885 12.7832 1.96449 12.7832 2.02251ZM13.3711 0.619172H5.7832C5.43643 0.619172 5.1543 0.901277 5.1543 1.24808V2.79694C5.1543 3.14371 5.4364 3.42584 5.7832 3.42584H13.3711C13.7179 3.42584 14 3.14371 14 2.79694V1.24808C14 0.901277 13.7179 0.619172 13.3711 0.619172ZM13.5625 2.79694C13.5625 2.90248 13.4766 2.98834 13.3711 2.98834H5.7832C5.67768 2.98834 5.5918 2.90248 5.5918 2.79694V1.24808C5.5918 1.14256 5.67766 1.05667 5.7832 1.05667H13.3711C13.4766 1.05667 13.5625 1.14253 13.5625 1.24808V2.79694ZM12.7832 7C12.7832 7.05802 12.7602 7.11366 12.7191 7.15468C12.6781 7.1957 12.6225 7.21875 12.5645 7.21875H6.58984C6.53183 7.21875 6.47619 7.1957 6.43516 7.15468C6.39414 7.11366 6.37109 7.05802 6.37109 7C6.37109 6.94198 6.39414 6.88634 6.43516 6.84532C6.47619 6.8043 6.53183 6.78125 6.58984 6.78125H12.5645C12.6225 6.78125 12.6781 6.8043 12.7191 6.84532C12.7602 6.88634 12.7832 6.94198 12.7832 7ZM13.3711 5.59666H5.7832C5.43643 5.59666 5.1543 5.8788 5.1543 6.22557V7.77443C5.1543 8.1212 5.4364 8.40334 5.7832 8.40334H13.3711C13.7179 8.40334 14 8.1212 14 7.77443V6.22557C14 5.8788 13.7179 5.59666 13.3711 5.59666ZM13.5625 7.77443C13.5625 7.87998 13.4766 7.96584 13.3711 7.96584H5.7832C5.67768 7.96584 5.5918 7.87998 5.5918 7.77443V6.22557C5.5918 6.12002 5.67766 6.03416 5.7832 6.03416H13.3711C13.4766 6.03416 13.5625 6.12002 13.5625 6.22557V7.77443ZM12.7832 11.9775C12.7832 12.0355 12.7602 12.0911 12.7191 12.1322C12.6781 12.1732 12.6225 12.1962 12.5645 12.1962H6.58984C6.53183 12.1962 6.47619 12.1732 6.43516 12.1322C6.39414 12.0911 6.37109 12.0355 6.37109 11.9775C6.37109 11.9195 6.39414 11.8638 6.43516 11.8228C6.47619 11.7818 6.53183 11.7587 6.58984 11.7587H12.5645C12.6225 11.7587 12.6781 11.7818 12.7191 11.8228C12.7602 11.8638 12.7832 11.9195 12.7832 11.9775ZM13.3711 10.5742H5.7832C5.43643 10.5742 5.1543 10.8563 5.1543 11.2031V12.7519C5.1543 13.0987 5.4364 13.3808 5.7832 13.3808H13.3711C13.7179 13.3808 14 13.0987 14 12.7519V11.2031C14 10.8563 13.7179 10.5742 13.3711 10.5742ZM13.5625 12.7519C13.5625 12.8574 13.4766 12.9433 13.3711 12.9433H5.7832C5.67768 12.9433 5.5918 12.8575 5.5918 12.7519V11.2031C5.5918 11.0975 5.67766 11.0117 5.7832 11.0117H13.3711C13.4766 11.0117 13.5625 11.0975 13.5625 11.2031V12.7519Z" fill="#8C8C8C"/>
</g>
<defs>
<clipPath id="clip0_9025_217">
<rect width="14" height="14" fill="white"/>
</clipPath>
</defs>
</svg>
