<svg width="18" height="18" viewBox="0 0 18 18" fill="none" xmlns="http://www.w3.org/2000/svg">
<path fill-rule="evenodd" clip-rule="evenodd" d="M7.74073 1.02001C8.1368 0.842477 8.56594 0.750702 8.99998 0.750702C9.43402 0.750702 9.86315 0.842477 10.2592 1.02001C10.8075 1.26601 11.2065 1.74001 11.568 2.29351C11.9295 2.84701 12.327 3.60076 12.822 4.54051L15.9922 10.5563C16.4025 11.3348 16.7347 11.9663 16.9485 12.4853C17.1645 13.0103 17.3092 13.5323 17.226 14.0663C17.1632 14.4569 17.0195 14.8302 16.8042 15.1622C16.589 15.4943 16.3068 15.7777 15.9757 15.9945C15.5302 16.29 14.9955 16.3995 14.4105 16.4498C13.8307 16.5 13.0905 16.5 12.1695 16.5H5.83048C4.90948 16.5 4.16923 16.5 3.58948 16.4498C3.00448 16.3988 2.46973 16.29 2.02423 15.9945C1.6933 15.7778 1.41119 15.4944 1.19592 15.1625C0.980651 14.8307 0.836944 14.4575 0.773977 14.067C0.690727 13.5323 0.835477 13.0095 1.05148 12.4853C1.26448 11.967 1.59748 11.3348 2.00773 10.557L5.17798 4.54051C5.67298 3.60076 6.07048 2.84701 6.43123 2.29351C6.79348 1.73926 7.19173 1.26601 7.74073 1.01926V1.02001ZM9.64348 2.38726C9.44099 2.29687 9.22172 2.25016 8.99998 2.25016C8.77823 2.25016 8.55897 2.29687 8.35648 2.38726C8.21323 2.45176 8.00998 2.61976 7.68748 3.11326C7.36948 3.60076 7.00498 4.29151 6.48598 5.27551L3.35323 11.2215C2.92048 12.0428 2.62123 12.6113 2.43823 13.0568C2.25448 13.5038 2.23723 13.7138 2.25598 13.836C2.31148 14.193 2.52148 14.5245 2.85373 14.745C2.98123 14.829 3.20923 14.9108 3.71923 14.955C4.22623 15 4.90123 15 5.86648 15H12.1327C13.0987 15 13.7737 15 14.2807 14.955C14.7907 14.9108 15.0187 14.829 15.1462 14.745C15.4785 14.5245 15.6885 14.193 15.744 13.836C15.7627 13.7138 15.7455 13.5038 15.5617 13.056C15.3787 12.6113 15.0795 12.0428 14.6467 11.2215L11.514 5.27551C10.9957 4.29151 10.6305 3.60151 10.3125 3.11326C9.98998 2.61976 9.78748 2.45176 9.64348 2.38726ZM8.99623 6.00001C9.09478 5.99951 9.19247 6.01845 9.2837 6.05573C9.37493 6.09301 9.45792 6.14791 9.52792 6.21729C9.59792 6.28666 9.65357 6.36915 9.69167 6.46005C9.72977 6.55094 9.74958 6.64845 9.74998 6.74701L9.76648 10.497C9.76687 10.5955 9.74786 10.6931 9.71054 10.7842C9.67321 10.8754 9.61829 10.9583 9.54893 11.0282C9.47956 11.0981 9.3971 11.1537 9.30626 11.1918C9.21542 11.2298 9.11797 11.2496 9.01948 11.25C8.92099 11.2504 8.82338 11.2314 8.73224 11.1941C8.64109 11.1567 8.55819 11.1018 8.48827 11.0325C8.41835 10.9631 8.36277 10.8806 8.32472 10.7898C8.28666 10.6989 8.26687 10.6015 8.26648 10.503L8.24998 6.75301C8.24958 6.65451 8.26859 6.55691 8.30592 6.46576C8.34324 6.37462 8.39816 6.29172 8.46752 6.22179C8.53689 6.15187 8.61935 6.0963 8.71019 6.05824C8.80104 6.02019 8.89849 6.0004 8.99698 6.00001H8.99623ZM8.99998 12C9.19889 12 9.38965 12.079 9.53031 12.2197C9.67096 12.3603 9.74998 12.5511 9.74998 12.75V12.7575C9.74998 12.9564 9.67096 13.1472 9.53031 13.2878C9.38965 13.4285 9.19889 13.5075 8.99998 13.5075C8.80106 13.5075 8.6103 13.4285 8.46965 13.2878C8.32899 13.1472 8.24998 12.9564 8.24998 12.7575V12.75C8.24998 12.5511 8.32899 12.3603 8.46965 12.2197C8.6103 12.079 8.80106 12 8.99998 12Z" fill="#D9D9D9"/>
</svg>
