<svg width="20" height="20" viewBox="0 0 20 20" fill="none" xmlns="http://www.w3.org/2000/svg">
<path d="M13.7412 4.11035H5.60937C5.46019 4.11035 5.31712 4.16961 5.21163 4.2751C5.10614 4.38059 5.04688 4.52367 5.04688 4.67285C5.04688 4.82204 5.10614 4.96511 5.21163 5.0706C5.31712 5.17609 5.46019 5.23535 5.60937 5.23535H13.7419C13.8911 5.23527 14.0341 5.17593 14.1395 5.07038C14.245 4.96483 14.3041 4.82172 14.3041 4.67254C14.304 4.52335 14.2446 4.38031 14.1391 4.27488C14.0335 4.16945 13.8904 4.11027 13.7412 4.11035ZM14.3037 7.8441C14.3037 7.69492 14.2445 7.55184 14.139 7.44635C14.0335 7.34086 13.8904 7.2816 13.7412 7.2816H5.60937C5.46019 7.2816 5.31712 7.34086 5.21163 7.44635C5.10614 7.55184 5.04688 7.69492 5.04688 7.8441C5.04688 7.99329 5.10614 8.13636 5.21163 8.24185C5.31712 8.34734 5.46019 8.4066 5.60937 8.4066H13.7419C13.891 8.40644 14.0339 8.3471 14.1392 8.24163C14.2446 8.13616 14.3037 7.99318 14.3037 7.8441ZM5.60937 10.4535C5.46019 10.4535 5.31712 10.5127 5.21163 10.6182C5.10614 10.7237 5.04688 10.8668 5.04688 11.016C5.04688 11.1652 5.10614 11.3082 5.21163 11.4137C5.31712 11.5192 5.46019 11.5785 5.60937 11.5785H9.70562C9.85481 11.5785 9.99788 11.5192 10.1034 11.4137C10.2089 11.3082 10.2681 11.1652 10.2681 11.016C10.2681 10.8668 10.2089 10.7237 10.1034 10.6182C9.99788 10.5127 9.85481 10.4535 9.70562 10.4535H5.60937Z" fill="#8C8C8C"/>
<path d="M7.06938 18.1875H3.58875C3.35811 18.1872 3.13702 18.0954 2.97393 17.9323C2.81085 17.7692 2.71908 17.5481 2.71875 17.3175V2.6825C2.71875 2.2025 3.10937 1.8125 3.58875 1.8125H15.7612C16.2406 1.8125 16.6312 2.20312 16.6312 2.6825V8.02312C16.6312 8.17231 16.6905 8.31538 16.796 8.42087C16.9015 8.52636 17.0446 8.58563 17.1937 8.58563C17.3429 8.58563 17.486 8.52636 17.5915 8.42087C17.697 8.31538 17.7563 8.17231 17.7563 8.02312V2.6825C17.7558 2.15365 17.5455 1.6466 17.1716 1.27259C16.7977 0.898581 16.2907 0.688162 15.7619 0.6875H3.58875C3.05985 0.688162 2.55279 0.898561 2.1788 1.27255C1.80481 1.64654 1.59441 2.1536 1.59375 2.6825V17.3175C1.59441 17.8464 1.80481 18.3535 2.1788 18.7274C2.55279 19.1014 3.05985 19.3118 3.58875 19.3125H7.06938C7.21856 19.3125 7.36163 19.2532 7.46712 19.1477C7.57261 19.0423 7.63188 18.8992 7.63188 18.75C7.63188 18.6008 7.57261 18.4577 7.46712 18.3523C7.36163 18.2468 7.21856 18.1875 7.06938 18.1875Z" fill="#8C8C8C"/>
<path d="M17.7918 10.5716C17.3989 10.1793 16.8664 9.95898 16.3112 9.95898C15.756 9.95898 15.2234 10.1793 14.8305 10.5716L9.65866 15.7434C9.49543 15.9061 9.38705 16.1156 9.34866 16.3428L9.06616 18.0197C9.03683 18.194 9.04958 18.3728 9.10336 18.5411C9.15714 18.7095 9.25039 18.8625 9.37534 18.9876C9.50028 19.1126 9.6533 19.2059 9.82163 19.2597C9.98996 19.3136 10.1687 19.3265 10.343 19.2972L12.0187 19.0141C12.2474 18.9759 12.4555 18.8691 12.6193 18.7047L17.7912 13.5328C18.1834 13.1399 18.4037 12.6075 18.4038 12.0523C18.4039 11.4972 18.1838 10.9646 17.7918 10.5716ZM11.833 17.9047L10.1755 18.2066L10.4537 16.5384L14.1755 12.8166L15.5468 14.1878L11.833 17.9047ZM16.9962 12.7372L16.3418 13.3922L14.9705 12.0209L15.6255 11.3659C15.8143 11.1772 16.063 11.0828 16.3112 11.0828C16.5029 11.0827 16.6903 11.1395 16.8498 11.246C17.0092 11.3524 17.1335 11.5038 17.2068 11.681C17.2802 11.8581 17.2993 12.053 17.2618 12.2411C17.2243 12.4291 17.1319 12.6017 16.9962 12.7372Z" fill="#8C8C8C"/>
</svg>
