<svg width="20" height="20" viewBox="0 0 20 20" fill="none" xmlns="http://www.w3.org/2000/svg">
<path d="M18.2846 2.29957L17.693 1.70791C17.2623 1.27953 16.6796 1.03906 16.0721 1.03906C15.4647 1.03906 14.882 1.27953 14.4513 1.70791L5.85964 10.3162C5.61797 10.5579 5.46797 10.8746 5.43464 11.2162L5.20964 13.6579C5.18464 13.9662 5.29297 14.2662 5.50964 14.4912C5.70964 14.6912 5.96797 14.7996 6.24297 14.7996H6.33464L8.7763 14.5746C9.11797 14.5412 9.43464 14.3912 9.6763 14.1496L18.2763 5.54957C18.4898 5.33792 18.6592 5.08609 18.7748 4.80861C18.8904 4.53114 18.95 4.23351 18.95 3.93291C18.95 3.6323 18.8904 3.33468 18.7748 3.0572C18.6592 2.77972 18.4898 2.52789 18.2763 2.31624L18.2846 2.29957ZM8.8013 13.2579C8.8013 13.2579 8.71797 13.3162 8.6763 13.3162L6.48464 13.5162L6.68464 11.3246C6.68464 11.2746 6.70964 11.2329 6.74297 11.1912L13.7263 4.20791L15.7846 6.26624L8.8013 13.2496V13.2579ZM17.4013 4.65791L16.668 5.39124L14.6096 3.33291L15.343 2.59957C15.543 2.39957 15.8096 2.29124 16.0763 2.29124C16.343 2.29124 16.6096 2.39124 16.8096 2.59957L17.4013 3.19124C17.4987 3.28695 17.576 3.40108 17.6288 3.52699C17.6816 3.65289 17.7087 3.78805 17.7087 3.92457C17.7087 4.0611 17.6816 4.19625 17.6288 4.32216C17.576 4.44806 17.4987 4.5622 17.4013 4.65791ZM17.293 10.9912V15.8329C17.293 17.5579 15.893 18.9579 14.168 18.9579H4.16797C2.44297 18.9579 1.04297 17.5579 1.04297 15.8329V5.83291C1.04297 4.10791 2.44297 2.70791 4.16797 2.70791H9.00964C9.3513 2.70791 9.63464 2.99124 9.63464 3.33291C9.63464 3.67457 9.3513 3.95791 9.00964 3.95791H4.16797C3.13464 3.95791 2.29297 4.79957 2.29297 5.83291V15.8329C2.29297 16.8662 3.13464 17.7079 4.16797 17.7079H14.168C15.2013 17.7079 16.043 16.8662 16.043 15.8329V10.9912C16.043 10.6496 16.3263 10.3662 16.668 10.3662C17.0096 10.3662 17.293 10.6496 17.293 10.9912Z" fill="#8C8C8C"/>
</svg>
