<svg width="14" height="14" viewBox="0 0 14 14" fill="none" xmlns="http://www.w3.org/2000/svg">
<g clip-path="url(#clip0_9025_199)">
<path d="M6.70236 0.566653C5.91589 0.565673 5.1496 0.815503 4.51484 1.27984C3.88007 1.74417 3.40991 2.39882 3.17266 3.14866C2.93542 3.89849 2.94346 4.70444 3.19562 5.44939C3.44777 6.19434 3.9309 6.83948 4.5748 7.29106C3.46054 7.73636 2.50502 8.5049 1.83118 9.49778C1.15734 10.4907 0.79602 11.6625 0.793701 12.8624C0.802834 13.0109 0.868248 13.1503 0.976606 13.2522C1.08496 13.354 1.22811 13.4108 1.37685 13.4108C1.52559 13.4108 1.66874 13.354 1.7771 13.2522C1.88545 13.1503 1.95087 13.0109 1.96 12.8624C1.95805 12.0006 2.18678 11.154 2.62245 10.4105C3.05812 9.66696 3.68485 9.05357 4.4376 8.63401C5.19034 8.21444 6.04166 8.00399 6.90319 8.02449C7.76473 8.04499 8.60507 8.2957 9.33701 8.75059C9.40244 8.79112 9.47522 8.81837 9.55118 8.83078C9.62715 8.84319 9.70481 8.84051 9.77974 8.82291C9.85467 8.8053 9.9254 8.77311 9.98789 8.72817C10.0504 8.68323 10.1034 8.62642 10.1439 8.56098C10.1845 8.49555 10.2117 8.42277 10.2241 8.34681C10.2365 8.27084 10.2339 8.19318 10.2163 8.11825C10.1986 8.04332 10.1665 7.97259 10.1215 7.9101C10.0766 7.84761 10.0198 7.79459 9.95433 7.75405C9.61552 7.55013 9.25734 7.38027 8.88504 7.24697C9.80441 6.57453 10.4063 5.49201 10.4063 4.27059C10.4063 2.23563 8.73732 0.566653 6.70236 0.566653ZM6.70236 1.73516C8.10677 1.73516 9.23779 2.86618 9.23779 4.27059C9.23779 5.675 8.10677 6.80382 6.70236 6.80382C5.29795 6.80382 4.16913 5.67941 4.16913 4.27059C4.16913 2.86618 5.29575 1.73516 6.70236 1.73516ZM12.6044 8.73736C12.5097 8.74005 12.417 8.76575 12.3345 8.81222C12.2519 8.8587 12.1818 8.92456 12.1304 9.00413L10.1197 12.018L8.85858 11.1736C8.79474 11.1265 8.722 11.0928 8.64476 11.0746C8.56752 11.0564 8.48739 11.054 8.40922 11.0677C8.33106 11.0814 8.25648 11.1108 8.19 11.1541C8.12353 11.1975 8.06654 11.2538 8.02249 11.3198C7.97844 11.3858 7.94824 11.4601 7.93372 11.5381C7.9192 11.6161 7.92067 11.6963 7.93803 11.7737C7.95539 11.8511 7.98829 11.9242 8.03472 11.9886C8.08116 12.0529 8.14017 12.1072 8.20819 12.1481L9.96095 13.3144C10.0899 13.3999 10.2476 13.4307 10.3993 13.4001C10.5509 13.3695 10.6843 13.28 10.7701 13.1512L13.1049 9.65012C13.1655 9.56108 13.2003 9.45701 13.2055 9.34942C13.2107 9.24183 13.186 9.1349 13.1342 9.04045C13.0824 8.94601 13.0055 8.86771 12.912 8.81422C12.8185 8.76074 12.7121 8.73414 12.6044 8.73736Z" fill="#8C8C8C"/>
</g>
<defs>
<clipPath id="clip0_9025_199">
<rect width="14" height="14" fill="white"/>
</clipPath>
</defs>
</svg>
