<svg width="18" height="18" viewBox="0 0 18 18" fill="none" xmlns="http://www.w3.org/2000/svg">
<path d="M16.125 16.5H1.875C1.3779 16.4994 0.901334 16.3017 0.549832 15.9502C0.198331 15.5987 0.000595447 15.1221 0 14.625L0 13.125C0 13.0255 0.0395088 12.9302 0.109835 12.8598C0.180161 12.7895 0.275544 12.75 0.375 12.75H0.75C1.57725 12.75 2.25 12.0773 2.25 11.25C2.25 10.4227 1.57725 9.75 0.75 9.75H0.375C0.275544 9.75 0.180161 9.71049 0.109835 9.64017C0.0395088 9.56984 0 9.47446 0 9.375V7.875C0 6.8415 0.8415 6 1.875 6H16.125C17.1585 6 18 6.8415 18 7.875V9.375C18 9.47446 17.9605 9.56984 17.8902 9.64017C17.8198 9.71049 17.7245 9.75 17.625 9.75H17.25C16.9537 9.75078 16.6642 9.8392 16.4181 10.0041C16.1719 10.1691 15.9801 10.4032 15.8667 10.6769C15.7533 10.9507 15.7235 11.2519 15.7809 11.5426C15.8384 11.8333 15.9805 12.1004 16.1895 12.3105C16.4722 12.594 16.8488 12.75 17.2493 12.75H17.6243C17.7237 12.75 17.8191 12.7895 17.8894 12.8598C17.9597 12.9302 17.9993 13.0255 17.9993 13.125V14.625C17.9989 15.122 17.8013 15.5986 17.4499 15.9501C17.0985 16.3016 16.622 16.4994 16.125 16.5ZM0.75 13.5V14.625C0.75 15.2452 1.25475 15.75 1.875 15.75H16.125C16.7453 15.75 17.25 15.2452 17.25 14.625V13.5C16.9546 13.5008 16.6612 13.443 16.3883 13.33C16.1154 13.217 15.8676 13.0509 15.6593 12.8415C15.4496 12.633 15.2834 12.3849 15.1702 12.1118C15.0571 11.8386 14.9992 11.5457 15 11.25C15 10.0095 16.0095 9 17.25 9V7.875C17.25 7.25475 16.7453 6.75 16.125 6.75H1.875C1.25475 6.75 0.75 7.25475 0.75 7.875V9C1.9905 9 3 10.0095 3 11.25C3 12.4905 1.9905 13.5 0.75 13.5Z" fill="#D9D9D9"/>
<path d="M6.375 7.5C6.27554 7.5 6.18016 7.46049 6.10983 7.39017C6.03951 7.31984 6 7.22446 6 7.125V6.375C6 6.27554 6.03951 6.18016 6.10983 6.10983C6.18016 6.03951 6.27554 6 6.375 6C6.47446 6 6.56984 6.03951 6.64017 6.10983C6.71049 6.18016 6.75 6.27554 6.75 6.375V7.125C6.75 7.22446 6.71049 7.31984 6.64017 7.39017C6.56984 7.46049 6.47446 7.5 6.375 7.5ZM6.375 13.8458C6.27554 13.8458 6.18016 13.8062 6.10983 13.7359C6.03951 13.6656 6 13.5702 6 13.4708V12.2025C6 12.103 6.03951 12.0077 6.10983 11.9373C6.18016 11.867 6.27554 11.8275 6.375 11.8275C6.47446 11.8275 6.56984 11.867 6.64017 11.9373C6.71049 12.0077 6.75 12.103 6.75 12.2025V13.4715C6.7498 13.5708 6.7102 13.666 6.6399 13.7362C6.5696 13.8063 6.47433 13.8458 6.375 13.8458ZM6.375 10.6733C6.27554 10.6733 6.18016 10.6337 6.10983 10.5634C6.03951 10.4931 6 10.3977 6 10.2983V9.02925C6 8.92979 6.03951 8.83441 6.10983 8.76409C6.18016 8.69376 6.27554 8.65425 6.375 8.65425C6.47446 8.65425 6.56984 8.69376 6.64017 8.76409C6.71049 8.83441 6.75 8.92979 6.75 9.02925V10.2983C6.75 10.3977 6.71049 10.4931 6.64017 10.5634C6.56984 10.6337 6.47446 10.6733 6.375 10.6733ZM6.375 16.5C6.27554 16.5 6.18016 16.4605 6.10983 16.3902C6.03951 16.3198 6 16.2245 6 16.125V15.375C6 15.2755 6.03951 15.1802 6.10983 15.1098C6.18016 15.0395 6.27554 15 6.375 15C6.47446 15 6.56984 15.0395 6.64017 15.1098C6.71049 15.1802 6.75 15.2755 6.75 15.375V16.125C6.75 16.2245 6.71049 16.3198 6.64017 16.3902C6.56984 16.4605 6.47446 16.5 6.375 16.5Z" fill="#D9D9D9"/>
<path d="M1.87499 6.74999C1.7861 6.7519 1.69944 6.72204 1.6306 6.66577C1.56176 6.6095 1.51525 6.53052 1.49943 6.44302C1.48361 6.35553 1.49952 6.26526 1.54431 6.18845C1.58909 6.11164 1.65981 6.05333 1.74374 6.02399L13.6687 1.57124C14.2485 1.35374 14.9295 1.67924 15.1275 2.26349L16.4797 6.25424C16.5103 6.34806 16.5026 6.45013 16.4584 6.53833C16.4142 6.62653 16.337 6.69375 16.2435 6.72542C16.1501 6.75709 16.0479 6.75067 15.9592 6.70753C15.8705 6.6644 15.8023 6.58804 15.7695 6.49499L14.4172 2.50424C14.3828 2.40944 14.3124 2.33202 14.2213 2.28878C14.1302 2.24553 14.0257 2.23995 13.9305 2.27324L2.00549 6.72599C1.96384 6.74198 1.9196 6.75011 1.87499 6.74999Z" fill="#D9D9D9"/>
</svg>
