<svg width="23" height="22" viewBox="0 0 23 22" fill="none" xmlns="http://www.w3.org/2000/svg">
<path d="M1.41809 10.2122C1.41809 11.3532 1.64294 12.4831 2.07981 13.5372C2.51668 14.5913 3.15701 15.5492 3.96423 16.356C4.77146 17.1628 5.72978 17.8028 6.78447 18.2394C7.83917 18.6761 8.96958 18.9008 10.1112 18.9008C11.2528 18.9008 12.3832 18.6761 13.4379 18.2394C14.4926 17.8028 15.4509 17.1628 16.2581 16.356C17.0653 15.5492 17.7057 14.5913 18.1425 13.5372C18.5794 12.4831 18.8043 11.3532 18.8043 10.2122C18.8043 9.07124 18.5794 7.94141 18.1425 6.88727C17.7057 5.83313 17.0653 4.87531 16.2581 4.0685C15.4509 3.26169 14.4926 2.6217 13.4379 2.18506C12.3832 1.74842 11.2528 1.52368 10.1112 1.52368C8.96958 1.52368 7.83917 1.74842 6.78447 2.18506C5.72978 2.6217 4.77146 3.26169 3.96423 4.0685C3.15701 4.87531 2.51668 5.83313 2.07981 6.88727C1.64294 7.94141 1.41809 9.07124 1.41809 10.2122Z" stroke="white" stroke-width="2.5" stroke-linecap="round" stroke-linejoin="round"/>
<path d="M21.5258 20.5143L17.0574 16.0459" stroke="white" stroke-width="2.5" stroke-linecap="round" stroke-linejoin="round"/>
</svg>
