<svg width="21" height="20" viewBox="0 0 21 20" fill="none" xmlns="http://www.w3.org/2000/svg">
<path d="M14.875 10.625C14.0462 10.625 13.2513 10.9542 12.6653 11.5403C12.0792 12.1263 11.75 12.9212 11.75 13.75C11.75 16.5312 14.3875 18.5437 14.5 18.625C14.6082 18.7061 14.7398 18.75 14.875 18.75C15.0102 18.75 15.1418 18.7061 15.25 18.625C15.3625 18.5437 18 16.5312 18 13.75C18 12.9212 17.6708 12.1263 17.0847 11.5403C16.4987 10.9542 15.7038 10.625 14.875 10.625ZM14.875 17.3C14.25 16.7063 13 15.35 13 13.75C13 13.2527 13.1975 12.7758 13.5492 12.4242C13.9008 12.0725 14.3777 11.875 14.875 11.875C15.3723 11.875 15.8492 12.0725 16.2008 12.4242C16.5525 12.7758 16.75 13.2527 16.75 13.75C16.75 15.35 15.5 16.7063 14.875 17.3Z" fill="white"/>
<path d="M14.875 13.125C14.7514 13.125 14.6305 13.1617 14.5278 13.2303C14.425 13.299 14.3449 13.3966 14.2976 13.5108C14.2503 13.625 14.2379 13.7507 14.262 13.8719C14.2861 13.9932 14.3456 14.1045 14.4331 14.1919C14.5205 14.2794 14.6318 14.3389 14.7531 14.363C14.8743 14.3871 15 14.3747 15.1142 14.3274C15.2284 14.2801 15.326 14.2 15.3947 14.0972C15.4633 13.9945 15.5 13.8736 15.5 13.75C15.5 13.5842 15.4342 13.4253 15.3169 13.3081C15.1997 13.1908 15.0408 13.125 14.875 13.125ZM11.75 17.5H10.5V14.375C10.5 14.2092 10.4342 14.0503 10.3169 13.9331C10.1997 13.8158 10.0408 13.75 9.875 13.75H6.125C5.95924 13.75 5.80027 13.8158 5.68306 13.9331C5.56585 14.0503 5.5 14.2092 5.5 14.375V17.5H4.25V2.5H11.75V9.375C11.75 9.54076 11.8158 9.69973 11.9331 9.81694C12.0503 9.93415 12.2092 10 12.375 10C12.5408 10 12.6997 9.93415 12.8169 9.81694C12.9342 9.69973 13 9.54076 13 9.375V2.5C13 2.16848 12.8683 1.85054 12.6339 1.61612C12.3995 1.3817 12.0815 1.25 11.75 1.25H4.25C3.91848 1.25 3.60054 1.3817 3.36612 1.61612C3.1317 1.85054 3 2.16848 3 2.5V18.125C3 18.2908 3.06585 18.4497 3.18306 18.5669C3.30027 18.6842 3.45924 18.75 3.625 18.75H11.75C11.9158 18.75 12.0747 18.6842 12.1919 18.5669C12.3092 18.4497 12.375 18.2908 12.375 18.125C12.375 17.9592 12.3092 17.8003 12.1919 17.6831C12.0747 17.5658 11.9158 17.5 11.75 17.5ZM6.75 17.5V15H9.25V17.5H6.75Z" fill="white"/>
<path d="M9.875 3.75H9.25C9.08424 3.75 8.92527 3.81585 8.80806 3.93306C8.69085 4.05027 8.625 4.20924 8.625 4.375C8.625 4.54076 8.69085 4.69973 8.80806 4.81694C8.92527 4.93415 9.08424 5 9.25 5H9.875C10.0408 5 10.1997 4.93415 10.3169 4.81694C10.4342 4.69973 10.5 4.54076 10.5 4.375C10.5 4.20924 10.4342 4.05027 10.3169 3.93306C10.1997 3.81585 10.0408 3.75 9.875 3.75ZM6.75 3.75H6.125C5.95924 3.75 5.80027 3.81585 5.68306 3.93306C5.56585 4.05027 5.5 4.20924 5.5 4.375C5.5 4.54076 5.56585 4.69973 5.68306 4.81694C5.80027 4.93415 5.95924 5 6.125 5H6.75C6.91576 5 7.07473 4.93415 7.19194 4.81694C7.30915 4.69973 7.375 4.54076 7.375 4.375C7.375 4.20924 7.30915 4.05027 7.19194 3.93306C7.07473 3.81585 6.91576 3.75 6.75 3.75ZM9.875 6.25H9.25C9.08424 6.25 8.92527 6.31585 8.80806 6.43306C8.69085 6.55027 8.625 6.70924 8.625 6.875C8.625 7.04076 8.69085 7.19973 8.80806 7.31694C8.92527 7.43415 9.08424 7.5 9.25 7.5H9.875C10.0408 7.5 10.1997 7.43415 10.3169 7.31694C10.4342 7.19973 10.5 7.04076 10.5 6.875C10.5 6.70924 10.4342 6.55027 10.3169 6.43306C10.1997 6.31585 10.0408 6.25 9.875 6.25ZM6.75 6.25H6.125C5.95924 6.25 5.80027 6.31585 5.68306 6.43306C5.56585 6.55027 5.5 6.70924 5.5 6.875C5.5 7.04076 5.56585 7.19973 5.68306 7.31694C5.80027 7.43415 5.95924 7.5 6.125 7.5H6.75C6.91576 7.5 7.07473 7.43415 7.19194 7.31694C7.30915 7.19973 7.375 7.04076 7.375 6.875C7.375 6.70924 7.30915 6.55027 7.19194 6.43306C7.07473 6.31585 6.91576 6.25 6.75 6.25ZM9.875 8.75H9.25C9.08424 8.75 8.92527 8.81585 8.80806 8.93306C8.69085 9.05027 8.625 9.20924 8.625 9.375C8.625 9.54076 8.69085 9.69973 8.80806 9.81694C8.92527 9.93415 9.08424 10 9.25 10H9.875C10.0408 10 10.1997 9.93415 10.3169 9.81694C10.4342 9.69973 10.5 9.54076 10.5 9.375C10.5 9.20924 10.4342 9.05027 10.3169 8.93306C10.1997 8.81585 10.0408 8.75 9.875 8.75ZM6.75 8.75H6.125C5.95924 8.75 5.80027 8.81585 5.68306 8.93306C5.56585 9.05027 5.5 9.20924 5.5 9.375C5.5 9.54076 5.56585 9.69973 5.68306 9.81694C5.80027 9.93415 5.95924 10 6.125 10H6.75C6.91576 10 7.07473 9.93415 7.19194 9.81694C7.30915 9.69973 7.375 9.54076 7.375 9.375C7.375 9.20924 7.30915 9.05027 7.19194 8.93306C7.07473 8.81585 6.91576 8.75 6.75 8.75ZM9.875 11.25H9.25C9.08424 11.25 8.92527 11.3158 8.80806 11.4331C8.69085 11.5503 8.625 11.7092 8.625 11.875C8.625 12.0408 8.69085 12.1997 8.80806 12.3169C8.92527 12.4342 9.08424 12.5 9.25 12.5H9.875C10.0408 12.5 10.1997 12.4342 10.3169 12.3169C10.4342 12.1997 10.5 12.0408 10.5 11.875C10.5 11.7092 10.4342 11.5503 10.3169 11.4331C10.1997 11.3158 10.0408 11.25 9.875 11.25ZM6.75 11.25H6.125C5.95924 11.25 5.80027 11.3158 5.68306 11.4331C5.56585 11.5503 5.5 11.7092 5.5 11.875C5.5 12.0408 5.56585 12.1997 5.68306 12.3169C5.80027 12.4342 5.95924 12.5 6.125 12.5H6.75C6.91576 12.5 7.07473 12.4342 7.19194 12.3169C7.30915 12.1997 7.375 12.0408 7.375 11.875C7.375 11.7092 7.30915 11.5503 7.19194 11.4331C7.07473 11.3158 6.91576 11.25 6.75 11.25Z" fill="white"/>
</svg>
