<svg width="20" height="20" viewBox="0 0 20 20" fill="none" xmlns="http://www.w3.org/2000/svg">
<g clip-path="url(#clip0_9459_96534)">
<path d="M2.83234 7.22039C2.83234 7.1849 2.83933 7.14975 2.85291 7.11696C2.86649 7.08416 2.8864 7.05437 2.91149 7.02927C2.93659 7.00417 2.96639 6.98426 2.99918 6.97068C3.03198 6.9571 3.06712 6.95011 3.10262 6.95012H11.1988C11.2697 6.95132 11.3373 6.98033 11.387 7.03088C11.4367 7.08144 11.4645 7.1495 11.4645 7.22039C11.4645 7.29129 11.4367 7.35934 11.387 7.4099C11.3373 7.46045 11.2697 7.48946 11.1988 7.49066H3.10262C3.06712 7.49066 3.03198 7.48367 2.99919 7.47009C2.9664 7.45651 2.9366 7.4366 2.91151 7.4115C2.88641 7.38641 2.8665 7.35661 2.85292 7.32382C2.83933 7.29103 2.83234 7.25588 2.83234 7.22039ZM7.2534 9.22934H3.10262C2.95332 9.22934 2.83234 9.35031 2.83234 9.49961C2.83234 9.64891 2.95332 9.76988 3.10262 9.76988H7.25344C7.32512 9.76988 7.39386 9.7414 7.44454 9.69071C7.49523 9.64002 7.5237 9.57127 7.52369 9.49959C7.52369 9.42791 7.49521 9.35917 7.44452 9.30848C7.39383 9.2578 7.32508 9.22933 7.2534 9.22934ZM7.2534 11.5085H3.10262C3.03173 11.5097 2.96416 11.5387 2.91445 11.5893C2.86475 11.6398 2.8369 11.7079 2.8369 11.7788C2.8369 11.8497 2.86475 11.9177 2.91445 11.9683C2.96416 12.0189 3.03173 12.0479 3.10262 12.0491H7.25344C7.28932 12.0497 7.32496 12.0431 7.35828 12.0298C7.39161 12.0165 7.42195 11.9967 7.44754 11.9715C7.47312 11.9464 7.49344 11.9164 7.50732 11.8833C7.52119 11.8502 7.52833 11.8147 7.52833 11.7788C7.52832 11.7429 7.52118 11.7074 7.5073 11.6743C7.49342 11.6412 7.4731 11.6112 7.44751 11.586C7.42192 11.5609 7.39157 11.5411 7.35825 11.5277C7.32492 11.5144 7.28928 11.5079 7.2534 11.5085ZM7.2534 13.7877H3.10262C3.03173 13.7889 2.96416 13.8179 2.91445 13.8685C2.86475 13.919 2.8369 13.9871 2.8369 14.058C2.8369 14.1289 2.86475 14.1969 2.91445 14.2475C2.96416 14.298 3.03173 14.327 3.10262 14.3282H7.25344C7.28932 14.3288 7.32496 14.3223 7.35828 14.309C7.39161 14.2957 7.42195 14.2759 7.44754 14.2507C7.47312 14.2256 7.49344 14.1955 7.50732 14.1625C7.52119 14.1294 7.52833 14.0938 7.52833 14.0579C7.52832 14.0221 7.52118 13.9865 7.5073 13.9534C7.49342 13.9204 7.4731 13.8904 7.44751 13.8652C7.42192 13.84 7.39157 13.8202 7.35825 13.8069C7.32492 13.7936 7.28928 13.7871 7.2534 13.7877ZM19.8787 13.5962C19.8433 13.6742 19.7928 13.7443 19.7302 13.8026C19.6675 13.8609 19.5939 13.9062 19.5136 13.9359L18.6711 14.2489C18.5987 14.2758 18.522 14.2896 18.4447 14.2897C18.3521 14.2897 18.2598 14.2698 18.1729 14.2298C18.1115 14.2017 18.058 14.1629 18.0094 14.1191C17.9886 14.3098 17.9167 14.4926 17.7912 14.6302C17.6189 14.8189 17.3867 14.8927 17.1388 14.8445C17.1325 14.9728 17.0977 15.0982 17.0369 15.2115C16.8521 15.5567 16.4673 15.7272 16.101 15.6559C16.0939 15.781 16.0595 15.9031 16.0002 16.0135C15.9655 16.0784 15.921 16.1353 15.8724 16.1882V16.9598C15.8724 17.911 15.1142 18.6866 14.1706 18.7186C13.9608 19.457 13.2819 20 12.4771 20H1.82418C0.852813 20 0.0625 19.2098 0.0625 18.2383V3.04C0.0625 2.08863 0.821094 1.31297 1.76488 1.28133C1.97762 0.537148 2.66727 0 3.4577 0H14.1107C15.0821 0 15.8724 0.790312 15.8724 1.76168V10.1724C15.9085 10.1872 15.9438 10.202 15.9783 10.2165C16.2468 10.3287 16.4163 10.3902 16.5504 10.3846C16.521 10.2481 16.5339 10.1065 16.5933 9.97691C16.6659 9.81848 16.7956 9.69785 16.9584 9.63742L17.8011 9.32449C17.8813 9.29458 17.9666 9.28085 18.0521 9.28411C18.1376 9.28737 18.2217 9.30755 18.2994 9.34348C18.3773 9.3789 18.4474 9.4294 18.5056 9.49207C18.5639 9.55474 18.6091 9.62833 18.6388 9.70859L19.8978 13.098C19.9277 13.1782 19.9414 13.2635 19.9381 13.349C19.9348 13.4345 19.9147 13.5186 19.8787 13.5962ZM15.7696 10.7151C15.2606 10.5022 14.7344 10.2819 14.0024 10.7871C13.8472 10.8944 13.6877 11.03 13.5281 11.1911C13.4318 11.2879 13.3348 11.384 13.2372 11.4795C13.0414 11.6718 12.8095 11.8997 12.6845 12.055C13.0539 12.44 13.4389 12.3229 14.0454 12.0946C14.5395 11.9086 15.0983 11.6978 15.5934 12.0749C15.7295 12.1525 15.9299 12.2514 16.1417 12.3561C16.7448 12.6539 17.2525 12.9165 17.5796 13.1822L16.7332 10.9032C16.6689 10.9175 16.6047 10.9264 16.5408 10.9264C16.2745 10.9264 16.0121 10.8166 15.7696 10.7151ZM2.33734 1.27832H12.4771C13.4486 1.27832 14.2388 2.06863 14.2388 3.04V10.0547C14.6485 9.90332 15.0121 9.91699 15.3318 9.99148V1.76168C15.3318 1.0884 14.7841 0.540547 14.1107 0.540547H3.4577C2.96457 0.540547 2.52742 0.841953 2.33734 1.27832ZM8.61109 4.38738L10.0689 3.40457C10.1135 3.37446 10.1662 3.35837 10.22 3.35837C10.2738 3.35837 10.3265 3.37446 10.3711 3.40457L11.6746 4.2832V1.81887H8.61109V4.38738ZM13.6982 18.2383V17.5771C13.6416 17.591 13.5845 17.5989 13.5277 17.5989C13.3956 17.5989 13.2655 17.5633 13.15 17.5014C12.9603 17.4 12.8021 17.2239 12.7175 17.0186C12.712 17.0204 12.7066 17.0221 12.7009 17.0237C12.4845 17.0892 12.2559 17.067 12.0573 16.9607C11.9097 16.887 11.7884 16.7656 11.7098 16.613C11.672 16.6308 11.6327 16.6459 11.5921 16.6582C11.3757 16.7237 11.1469 16.7015 10.9484 16.5952C10.7591 16.5007 10.6134 16.3278 10.5446 16.1115C10.5082 15.9969 10.496 15.876 10.5086 15.7564C10.3817 15.7512 10.2576 15.7172 10.1457 15.6572C9.9566 15.5629 9.8109 15.3899 9.74211 15.1737C9.6718 14.9529 9.69258 14.7121 9.79902 14.5131L9.89621 14.3314C9.84004 14.347 9.78289 14.3569 9.72504 14.3569C9.65793 14.3569 9.59043 14.3463 9.52481 14.325L8.66957 14.0493C8.3277 13.939 8.13922 13.5709 8.24949 13.229L9.35969 9.78789C9.41301 9.62258 9.52789 9.48781 9.68309 9.40828C9.75915 9.36906 9.84223 9.34529 9.92753 9.33833C10.0128 9.33137 10.0987 9.34136 10.1801 9.36773L11.0356 9.64371C11.255 9.71457 11.4099 9.89191 11.4645 10.1C11.6629 10.107 11.8608 10.0678 12.0811 10.024C12.5426 9.93234 13.0577 9.83074 13.6984 10.1471V3.04C13.6984 2.36672 13.1506 1.81887 12.4772 1.81887H12.2152V4.79141C12.2152 4.84044 12.2019 4.88855 12.1766 4.93058C12.1513 4.97261 12.1151 5.00698 12.0718 5.03C12.0285 5.05302 11.9798 5.06383 11.9308 5.06127C11.8818 5.05871 11.8345 5.04288 11.7938 5.01547L10.2201 3.95461L8.60953 5.04035C8.5649 5.07044 8.5123 5.08652 8.45848 5.08652H8.34094C8.30544 5.08653 8.2703 5.07954 8.2375 5.06596C8.20471 5.05238 8.17491 5.03247 8.14981 5.00737C8.12472 4.98228 8.10481 4.95248 8.09123 4.91969C8.07765 4.88689 8.07066 4.85174 8.07066 4.81625V1.81887H1.82418C1.1509 1.81887 0.603047 2.36672 0.603047 3.04V18.2383C0.603047 18.9117 1.1509 19.4595 1.82418 19.4595H12.4771C13.1505 19.4595 13.6982 18.9117 13.6982 18.2383ZM14.4979 16.1962C14.5391 16.3679 14.5048 16.5386 14.4531 16.6801L14.4805 16.6943C14.6486 16.7809 14.7348 16.6504 14.7568 16.6083C14.7815 16.5612 14.8384 16.4071 14.6534 16.2796L14.4979 16.1962ZM14.2305 17.1736L14.2095 17.1626C14.2073 17.1664 14.205 17.1699 14.2028 17.1736H14.2305ZM13.359 16.3195L13.3587 16.3201L13.2193 16.5807C13.1304 16.747 13.2675 16.9514 13.4049 17.0248C13.4563 17.0526 13.6136 17.1363 13.757 16.8684L13.8583 16.6789L13.8585 16.6783C14.0501 16.3197 13.9947 16.2682 13.7906 16.1589C13.703 16.1119 13.609 16.1339 13.561 16.1508C13.4736 16.1818 13.4 16.2433 13.359 16.3195ZM12.914 15.3586C12.7664 15.2798 12.5809 15.3356 12.5016 15.4839L12.5011 15.4846L12.1871 16.0716V16.0718C12.1491 16.1429 12.1424 16.2311 12.1686 16.3134C12.1827 16.3574 12.2189 16.4375 12.3055 16.4807C12.3833 16.5223 12.4658 16.5302 12.5441 16.5064C12.6224 16.4827 12.6866 16.4304 12.7248 16.3592L12.7431 16.325C12.7432 16.3247 12.7435 16.3245 12.7436 16.3242L12.8813 16.0668C12.8816 16.0663 12.8817 16.0658 12.8819 16.0654H12.8821L13.0392 15.7715C13.1185 15.6231 13.0623 15.438 12.914 15.3586ZM12.1248 14.8517C12.1135 14.8133 12.0946 14.7776 12.0693 14.7466C12.044 14.7156 12.0129 14.6899 11.9776 14.671C11.8296 14.5916 11.6443 14.6479 11.565 14.7961C11.5648 14.7963 11.5646 14.7965 11.5645 14.7968L11.2894 15.3111L11.0783 15.7059C11.0403 15.7772 11.0336 15.8652 11.0598 15.9477C11.0737 15.9917 11.1101 16.0719 11.1967 16.1152C11.3519 16.1981 11.5366 16.1414 11.616 15.9936L11.7106 15.8166C11.7107 15.8164 11.7109 15.8162 11.7111 15.8159L12.0246 15.2298L12.0249 15.2291L12.1025 15.0838C12.1214 15.0485 12.1331 15.0098 12.1369 14.97C12.1408 14.9301 12.1367 14.8899 12.1248 14.8517ZM11.0325 13.9679C10.9641 13.9356 10.8861 13.9301 10.8138 13.9524C10.7754 13.9638 10.7397 13.9826 10.7087 14.0079C10.6777 14.0332 10.652 14.0644 10.6331 14.0996L10.5175 14.3157L10.5174 14.3159L10.2755 14.7681C10.2375 14.8392 10.2309 14.9274 10.2571 15.0099C10.2711 15.0537 10.3074 15.1339 10.3941 15.1772C10.5484 15.2601 10.7336 15.204 10.8129 15.056C10.8132 15.0555 10.8136 15.0551 10.8138 15.0546L11.0885 14.5411V14.5408L11.1708 14.3872C11.2016 14.3295 11.2949 14.1551 11.0325 13.9679ZM10.941 10.2979C10.9595 10.2407 10.9268 10.1767 10.8694 10.1582L10.014 9.88223C10.0033 9.87868 9.99204 9.87688 9.98074 9.87687C9.9582 9.87687 9.94 9.88398 9.92937 9.88945C9.91398 9.89738 9.88617 9.91629 9.87414 9.95387L8.76387 13.395C8.74539 13.4523 8.7782 13.5164 8.83547 13.5348L9.6909 13.8107C9.72863 13.823 9.76016 13.8114 9.77555 13.8037C9.79094 13.7958 9.81875 13.7768 9.83078 13.7393L10.0238 13.1409C10.0307 13.1168 10.0366 13.0926 10.0444 13.0687C10.0471 13.0604 10.0513 13.0532 10.0546 13.0454L10.941 10.2979ZM15.3318 16.9598V16.4644C15.3298 16.4646 15.3279 16.4654 15.3259 16.4656C15.3303 16.6025 15.2992 16.7383 15.2354 16.8596C15.0998 17.1182 14.8511 17.2627 14.5861 17.2627C14.4708 17.2627 14.3524 17.2349 14.2388 17.1776V18.1744C14.8522 18.11 15.3318 17.5899 15.3318 16.9598ZM17.4136 13.7771C17.2285 13.4957 16.4305 13.1014 15.9023 12.8407C15.6642 12.7231 15.4587 12.6216 15.3072 12.5338C15.296 12.5272 15.2853 12.5199 15.275 12.512C15.028 12.3166 14.7192 12.4182 14.236 12.6005C13.6318 12.828 12.8041 13.1389 12.1346 12.2389C12.1068 12.2014 12.0892 12.1575 12.0834 12.1112C12.0776 12.065 12.0838 12.018 12.1015 11.9749C12.1914 11.7557 12.4478 11.4972 12.8586 11.0938C12.9529 11.001 13.0497 10.906 13.1439 10.811C13.2185 10.7354 13.2957 10.6625 13.3754 10.5924C12.938 10.4048 12.5843 10.4752 12.1865 10.5543C11.9361 10.604 11.6792 10.6541 11.3997 10.6371L10.5417 13.2963C10.5227 13.3641 10.507 13.4325 10.4975 13.5014C10.5483 13.4739 10.6018 13.4517 10.6571 13.435C10.8737 13.3689 11.1022 13.3918 11.3009 13.498C11.3132 13.5046 11.3248 13.5121 11.3359 13.5204C11.559 13.677 11.6959 13.8814 11.7376 14.1002C11.9027 14.0812 12.0751 14.1102 12.2328 14.1945C12.4312 14.3005 12.5768 14.4784 12.6422 14.6949C12.6517 14.726 12.6593 14.7575 12.6651 14.7892C12.8387 14.7668 13.0148 14.7993 13.1691 14.8819C13.3656 14.9871 13.5025 15.1597 13.5692 15.3557C13.6465 15.2445 13.7956 15.206 13.9179 15.2711L14.8145 15.7525C14.8299 15.7575 14.8451 15.7634 14.8598 15.7714C14.8602 15.7714 14.8603 15.7715 14.8607 15.7717L15.0845 15.8916C15.1605 15.932 15.248 15.9403 15.3316 15.9153C15.3723 15.9031 15.4103 15.883 15.4433 15.8561C15.4762 15.8291 15.5036 15.7959 15.5236 15.7584C15.5437 15.7209 15.5561 15.6797 15.5602 15.6373C15.5643 15.595 15.56 15.5522 15.5475 15.5115C15.5221 15.4285 15.4667 15.3604 15.3914 15.3197L15.3907 15.3194C15.3815 15.3145 15.3736 15.3081 15.3652 15.3023L14.3297 14.7486C14.2984 14.7318 14.2707 14.7091 14.2482 14.6817C14.2257 14.6543 14.2088 14.6227 14.1985 14.5887C14.1882 14.5548 14.1847 14.5191 14.1882 14.4838C14.1917 14.4485 14.2021 14.4142 14.2188 14.3829C14.289 14.2511 14.4536 14.2013 14.5845 14.2721L15.6471 14.8402C15.6562 14.8451 15.6639 14.8514 15.6722 14.8571L16.1123 15.0926C16.2735 15.1783 16.4744 15.1176 16.5605 14.9566C16.6435 14.8012 16.5886 14.6091 16.4395 14.5186L14.9802 13.7266C14.9172 13.6924 14.8704 13.6346 14.85 13.5659C14.8297 13.4971 14.8374 13.4231 14.8716 13.3601C14.9429 13.229 15.1069 13.1808 15.2382 13.2516L16.6661 14.0266C16.6705 14.0287 16.6751 14.0298 16.6794 14.0321L17.1232 14.2695C17.3013 14.3643 17.3672 14.2931 17.392 14.2658C17.4861 14.1627 17.5155 13.9316 17.4136 13.7771ZM19.391 13.2862L18.132 9.89676C18.1269 9.8831 18.1191 9.87058 18.1092 9.85993C18.0992 9.84929 18.0872 9.84072 18.0739 9.83473C18.0592 9.82798 18.0432 9.82444 18.027 9.82434C18.0141 9.82433 18.0013 9.82662 17.9893 9.83109L17.1466 10.1441C17.1095 10.1578 17.0918 10.1863 17.0845 10.2021C17.0773 10.218 17.0673 10.25 17.081 10.287L18.34 13.6764C18.3451 13.6901 18.3529 13.7026 18.3628 13.7133C18.3728 13.7239 18.3848 13.7325 18.398 13.7385C18.4137 13.7455 18.4459 13.7556 18.4829 13.742L19.3253 13.429C19.339 13.4239 19.3515 13.4162 19.3622 13.4062C19.3728 13.3962 19.3814 13.3843 19.3874 13.371C19.3936 13.3578 19.397 13.3435 19.3976 13.3289C19.3983 13.3144 19.396 13.2999 19.391 13.2862Z" fill="white"/>
</g>
<defs>
<clipPath id="clip0_9459_96534">
<rect width="20" height="20" fill="white"/>
</clipPath>
</defs>
</svg>
