<svg width="94" height="23" viewBox="0 0 94 23" fill="none" xmlns="http://www.w3.org/2000/svg">
<path d="M0 0.047718C2.26652 0.047718 4.53303 0.047718 6.86823 0.047718C7.22804 0.727664 7.58785 1.40761 7.95856 2.10816C10.2956 6.52682 10.2956 6.52682 12.6547 10.9337C12.7309 11.0751 12.8072 11.2166 12.8857 11.3623C13.169 11.8877 13.4523 12.4131 13.7358 12.9384C14.0221 13.469 14.3081 13.9997 14.5936 14.5307C14.6851 14.7007 14.7767 14.8706 14.8684 15.0404C14.9958 15.2762 15.1227 15.5123 15.2496 15.7484C15.3223 15.8832 15.3949 16.018 15.4697 16.1569C15.5637 16.3422 15.5637 16.3422 15.6596 16.5312C15.719 16.6484 15.7785 16.7656 15.8398 16.8863C15.9343 17.2181 15.9343 17.2181 15.8403 17.5151C15.7503 17.6634 15.7503 17.6634 15.6585 17.8147C15.5916 17.928 15.5247 18.0413 15.4558 18.158C15.3814 18.2785 15.307 18.3989 15.2303 18.523C15.0775 18.7796 14.9247 19.0363 14.7721 19.293C14.6922 19.4253 14.6124 19.5577 14.5302 19.694C14.1291 20.365 13.7446 21.0454 13.3587 21.7253C13.2193 21.9695 13.0798 22.2136 12.9402 22.4577C12.8816 22.5602 12.823 22.6627 12.7627 22.7683C12.7007 22.8767 12.7007 22.8767 12.6375 22.9873C12.5469 22.9873 12.4562 22.9873 12.3628 22.9873C12.3097 22.8873 12.2567 22.7874 12.202 22.6844C11.2919 20.9721 10.3806 19.2622 9.41806 17.5786C8.62666 16.1929 7.87377 14.7886 7.12589 13.3791C7.03303 13.2041 6.94017 13.0291 6.8473 12.8541C6.80197 12.7687 6.75664 12.6833 6.70994 12.5952C6.30459 11.8323 5.89241 11.0733 5.47741 10.3156C4.80428 9.08632 4.13819 7.8534 3.47479 6.61886C3.07234 5.87019 2.66877 5.12218 2.26222 4.37572C2.18359 4.23121 2.10496 4.0867 2.02395 3.93781C1.87731 3.66852 1.73042 3.39937 1.58321 3.1304C1.02965 2.11323 0.51894 1.08558 0 0.047718Z" fill="#0079FD"/>
<path d="M18.4065 0.0477419C18.6899 -0.00181353 18.6899 -0.00181352 19.043 0.000959469C19.241 0.00100616 19.241 0.00100616 19.4429 0.00105379C19.5857 0.00318069 19.7286 0.0053076 19.8757 0.00749895C20.0216 0.00808204 20.1676 0.00866512 20.318 0.00926587C20.7855 0.0115779 21.253 0.0167511 21.7205 0.0219864C22.0369 0.0240525 22.3533 0.0259329 22.6697 0.0276204C23.4465 0.0321711 24.2232 0.0390727 25 0.0477419C24.8182 0.643185 24.5867 1.16363 24.2853 1.7079C24.2209 1.82553 24.2209 1.82553 24.1552 1.94553C23.9162 2.38021 23.6711 2.8108 23.4209 3.23911C22.9235 4.09696 22.4905 4.90065 22.1862 5.85078C21.8376 6.82199 21.5404 7.63072 20.6044 8.15214C18.5037 8.65602 16.1384 8.35097 14.0109 8.15214C14.1875 7.57616 14.4057 7.07222 14.7004 6.54725C14.7834 6.3986 14.8664 6.24995 14.9519 6.0968C15.0408 5.9393 15.1298 5.78179 15.2214 5.61952C15.3135 5.45527 15.4056 5.29099 15.4976 5.12667C15.7332 4.70623 15.9698 4.2863 16.2066 3.86651C16.4281 3.47364 16.6489 3.08035 16.8698 2.68714C17.03 2.40254 17.1902 2.11798 17.3505 1.83346C17.4253 1.70076 17.5001 1.56805 17.5771 1.43133C17.6809 1.24791 17.6809 1.24791 17.7868 1.06079C17.847 0.954196 17.9073 0.847601 17.9694 0.737775C18.1068 0.502687 18.2555 0.274294 18.4065 0.0477419Z" fill="#0077FB"/>
<path d="M29.0283 7.26632L31.2996 14.1356H31.3891L33.6561 7.26632H35.3948L32.3181 15.9936H30.3664L27.2939 7.26632H29.0283ZM36.8361 15.9936V9.44814H38.3787V15.9936H36.8361ZM37.6117 8.51916C37.3673 8.51916 37.1571 8.43819 36.981 8.27626C36.8048 8.11149 36.7168 7.91405 36.7168 7.68393C36.7168 7.45098 36.8048 7.25353 36.981 7.0916C37.1571 6.92683 37.3673 6.84444 37.6117 6.84444C37.8588 6.84444 38.069 6.92683 38.2423 7.0916C38.4185 7.25353 38.5065 7.45098 38.5065 7.68393C38.5065 7.91405 38.4185 8.11149 38.2423 8.27626C38.069 8.43819 37.8588 8.51916 37.6117 8.51916ZM40.325 18.4481V9.44814H41.842V10.5305H41.9315C42.0111 10.3714 42.1233 10.2024 42.2682 10.0234C42.4131 9.8416 42.6091 9.68677 42.8562 9.55893C43.1034 9.42825 43.4187 9.36291 43.8023 9.36291C44.3079 9.36291 44.7639 9.49217 45.1702 9.75069C45.5793 10.0064 45.9031 10.3856 46.1418 10.8885C46.3832 11.3885 46.504 12.0021 46.504 12.7294C46.504 13.4481 46.3861 14.0589 46.1503 14.5618C45.9145 15.0646 45.5935 15.4481 45.1872 15.7123C44.781 15.9765 44.3207 16.1086 43.8065 16.1086C43.4315 16.1086 43.1204 16.0461 42.8733 15.9211C42.6261 15.7961 42.4273 15.6456 42.2767 15.4694C42.129 15.2905 42.0139 15.1214 41.9315 14.9623H41.8676V18.4481H40.325ZM41.8378 12.7209C41.8378 13.1442 41.8974 13.5149 42.0168 13.8331C42.1389 14.1513 42.3136 14.3998 42.5409 14.5788C42.771 14.755 43.0494 14.843 43.3761 14.843C43.717 14.843 44.0025 14.7521 44.2327 14.5703C44.4628 14.3856 44.6361 14.1342 44.7525 13.816C44.8719 13.495 44.9315 13.13 44.9315 12.7209C44.9315 12.3146 44.8733 11.9538 44.7568 11.6385C44.6403 11.3231 44.467 11.076 44.2369 10.897C44.0068 10.718 43.7199 10.6285 43.3761 10.6285C43.0466 10.6285 42.7668 10.7152 42.5366 10.8885C42.3065 11.0618 42.1318 11.3047 42.0125 11.6172C41.896 11.9297 41.8378 12.2976 41.8378 12.7209ZM51.0827 16.1214C50.4265 16.1214 49.8597 15.9851 49.3824 15.7123C48.908 15.4368 48.5429 15.0476 48.2873 14.5447C48.0316 14.039 47.9037 13.4439 47.9037 12.7592C47.9037 12.0859 48.0316 11.495 48.2873 10.9865C48.5458 10.4751 48.9066 10.0774 49.3697 9.79331C49.8327 9.50638 50.3768 9.36291 51.0018 9.36291C51.4052 9.36291 51.7858 9.42825 52.1438 9.55893C52.5046 9.68677 52.8228 9.88564 53.0983 10.1555C53.3768 10.4254 53.5955 10.7692 53.7546 11.1868C53.9137 11.6015 53.9932 12.0959 53.9932 12.6697V13.1427H48.6282V12.103H52.5145C52.5117 11.8075 52.4478 11.5447 52.3228 11.3146C52.1978 11.0817 52.0231 10.8984 51.7986 10.7649C51.577 10.6314 51.3185 10.5646 51.0231 10.5646C50.7077 10.5646 50.4307 10.6413 50.1921 10.7947C49.9535 10.9453 49.7674 11.1442 49.6339 11.3913C49.5032 11.6356 49.4364 11.9041 49.4336 12.1967V13.1044C49.4336 13.4851 49.5032 13.8118 49.6424 14.0845C49.7816 14.3544 49.9762 14.5618 50.2262 14.7067C50.4762 14.8487 50.7688 14.9197 51.104 14.9197C51.3285 14.9197 51.5316 14.8885 51.7134 14.826C51.8952 14.7606 52.0529 14.6655 52.1864 14.5405C52.3199 14.4155 52.4208 14.2606 52.489 14.076L53.9293 14.2379C53.8384 14.6186 53.6651 14.951 53.4094 15.2351C53.1566 15.5163 52.8327 15.7351 52.4378 15.8913C52.0429 16.0447 51.5912 16.1214 51.0827 16.1214ZM55.6583 15.9936V9.44814H57.154V10.539H57.2222C57.3415 10.1612 57.5461 9.87001 57.8358 9.66547C58.1284 9.45808 58.4623 9.35439 58.8373 9.35439C58.9225 9.35439 59.0176 9.35865 59.1228 9.36717C59.2307 9.37285 59.3202 9.3828 59.3912 9.397V10.816C59.3259 10.7933 59.2222 10.7734 59.0801 10.7564C58.9409 10.7365 58.806 10.7265 58.6753 10.7265C58.3941 10.7265 58.1412 10.7876 57.9168 10.9098C57.6952 11.0291 57.5205 11.1953 57.3926 11.4084C57.2648 11.6214 57.2009 11.8672 57.2009 12.1456V15.9936H55.6583ZM67.1382 15.9936H64.1808V7.26632H67.1979C68.0644 7.26632 68.8087 7.44103 69.4308 7.79047C70.0558 8.13706 70.5359 8.63564 70.8712 9.2862C71.2064 9.93677 71.374 10.7152 71.374 11.6214C71.374 12.5305 71.205 13.3118 70.8669 13.9652C70.5317 14.6186 70.0473 15.12 69.4138 15.4694C68.7831 15.8189 68.0246 15.9936 67.1382 15.9936ZM65.7618 14.6257H67.0615C67.6695 14.6257 68.1766 14.5149 68.5828 14.2933C68.9891 14.0689 69.2945 13.7351 69.499 13.2919C69.7036 12.8459 69.8058 12.289 69.8058 11.6214C69.8058 10.9538 69.7036 10.3998 69.499 9.9595C69.2945 9.51632 68.9919 9.18535 68.5913 8.9666C68.1936 8.74501 67.6993 8.63422 67.1084 8.63422H65.7618V14.6257ZM76.0657 16.1214C75.4094 16.1214 74.8427 15.9851 74.3654 15.7123C73.891 15.4368 73.5259 15.0476 73.2702 14.5447C73.0146 14.039 72.8867 13.4439 72.8867 12.7592C72.8867 12.0859 73.0146 11.495 73.2702 10.9865C73.5288 10.4751 73.8896 10.0774 74.3526 9.79331C74.8157 9.50638 75.3597 9.36291 75.9847 9.36291C76.3881 9.36291 76.7688 9.42825 77.1268 9.55893C77.4876 9.68677 77.8057 9.88564 78.0813 10.1555C78.3597 10.4254 78.5785 10.7692 78.7376 11.1868C78.8967 11.6015 78.9762 12.0959 78.9762 12.6697V13.1427H73.6111V12.103H77.4975C77.4947 11.8075 77.4307 11.5447 77.3057 11.3146C77.1807 11.0817 77.006 10.8984 76.7816 10.7649C76.56 10.6314 76.3015 10.5646 76.006 10.5646C75.6907 10.5646 75.4137 10.6413 75.1751 10.7947C74.9364 10.9453 74.7503 11.1442 74.6168 11.3913C74.4861 11.6356 74.4194 11.9041 74.4165 12.1967V13.1044C74.4165 13.4851 74.4861 13.8118 74.6253 14.0845C74.7646 14.3544 74.9592 14.5618 75.2092 14.7067C75.4592 14.8487 75.7518 14.9197 76.087 14.9197C76.3114 14.9197 76.5146 14.8885 76.6964 14.826C76.8782 14.7606 77.0359 14.6655 77.1694 14.5405C77.3029 14.4155 77.4038 14.2606 77.4719 14.076L78.9123 14.2379C78.8214 14.6186 78.6481 14.951 78.3924 15.2351C78.1396 15.5163 77.8157 15.7351 77.4208 15.8913C77.0259 16.0447 76.5742 16.1214 76.0657 16.1214ZM85.8145 11.1783L84.4083 11.3317C84.3685 11.1896 84.2989 11.0561 84.1995 10.9311C84.1029 10.8061 83.9722 10.7052 83.8074 10.6285C83.6427 10.5518 83.441 10.5135 83.2023 10.5135C82.8813 10.5135 82.6114 10.5831 82.3927 10.7223C82.1768 10.8615 82.0702 11.0419 82.0731 11.2635C82.0702 11.4538 82.1398 11.6086 82.2819 11.728C82.4268 11.8473 82.6654 11.9453 82.9978 12.022L84.1143 12.2606C84.7336 12.3942 85.1938 12.6058 85.4949 12.8956C85.7989 13.1854 85.9523 13.5646 85.9552 14.0334C85.9523 14.4453 85.8316 14.8089 85.5929 15.1243C85.3572 15.4368 85.029 15.6811 84.6086 15.8572C84.1881 16.0334 83.7052 16.1214 83.1597 16.1214C82.3586 16.1214 81.7137 15.9538 81.225 15.6186C80.7364 15.2805 80.4452 14.8104 80.3515 14.2081L81.8557 14.0632C81.9239 14.3586 82.0688 14.5817 82.2904 14.7322C82.512 14.8828 82.8003 14.9581 83.1554 14.9581C83.5219 14.9581 83.816 14.8828 84.0375 14.7322C84.262 14.5817 84.3742 14.3956 84.3742 14.174C84.3742 13.9865 84.3018 13.8317 84.1569 13.7095C84.0148 13.5873 83.7932 13.4936 83.4921 13.4283L82.3756 13.1939C81.7478 13.0632 81.2833 12.843 80.9822 12.5334C80.681 12.2209 80.5319 11.826 80.5347 11.3487C80.5319 10.9453 80.6412 10.5959 80.8628 10.3004C81.0873 10.0021 81.3983 9.772 81.7961 9.61007C82.1966 9.4453 82.6583 9.36291 83.181 9.36291C83.9481 9.36291 84.5518 9.52626 84.9921 9.85297C85.4353 10.1797 85.7094 10.6214 85.8145 11.1783ZM88.9934 13.9396L88.9892 12.0774H89.2363L91.5886 9.44814H93.3912L90.4977 12.6697H90.1781L88.9934 13.9396ZM87.5872 15.9936V7.26632H89.1298V15.9936H87.5872ZM91.6951 15.9936L89.5645 13.0149L90.6042 11.9283L93.5403 15.9936H91.6951Z" fill="#0079FD"/>
</svg>
