<svg width="21" height="20" viewBox="0 0 21 20" fill="none" xmlns="http://www.w3.org/2000/svg">
<path d="M12.7237 9.23891H17.5959C17.7996 9.23965 18.0015 9.20006 18.1899 9.12242C18.3783 9.04479 18.5495 8.93064 18.6935 8.78657C18.8376 8.64249 18.9518 8.47133 19.0294 8.28294C19.107 8.09455 19.1466 7.89267 19.1459 7.68891V2.81669C19.149 2.61032 19.1102 2.40547 19.0319 2.2145C18.9536 2.02353 18.8374 1.85041 18.6903 1.70558C18.5444 1.56006 18.371 1.44488 18.1803 1.36669C17.9896 1.2885 17.7853 1.24885 17.5792 1.25003H12.7237C12.5199 1.24929 12.318 1.28888 12.1296 1.36652C11.9413 1.44415 11.7701 1.5583 11.626 1.70237C11.4819 1.84645 11.3678 2.01761 11.2902 2.206C11.2125 2.39438 11.1729 2.59627 11.1737 2.80003V7.67225C11.17 7.8776 11.2074 8.08162 11.2838 8.27228C11.3601 8.46294 11.4739 8.63639 11.6183 8.78239C11.7628 8.9284 11.935 9.04401 12.1248 9.12241C12.3147 9.20082 12.5183 9.24043 12.7237 9.23891ZM12.0292 2.81669C12.0285 2.72477 12.0459 2.6336 12.0804 2.54839C12.1149 2.46318 12.1658 2.3856 12.2303 2.32008C12.2948 2.25457 12.3716 2.20239 12.4562 2.16654C12.5409 2.13069 12.6317 2.11186 12.7237 2.11114H17.5959C17.6888 2.1104 17.7808 2.12814 17.8668 2.16334C17.9527 2.19853 18.0308 2.25047 18.0964 2.31614C18.1621 2.3818 18.2141 2.45988 18.2492 2.54581C18.2844 2.63175 18.3022 2.72383 18.3014 2.81669V7.68891C18.3022 7.78177 18.2844 7.87386 18.2492 7.95979C18.2141 8.04573 18.1621 8.1238 18.0964 8.18947C18.0308 8.25513 17.9527 8.30707 17.8668 8.34227C17.7808 8.37746 17.6888 8.39521 17.5959 8.39447H12.7237C12.6308 8.39521 12.5387 8.37746 12.4528 8.34227C12.3669 8.30707 12.2888 8.25513 12.2231 8.18947C12.1575 8.1238 12.1055 8.04573 12.0703 7.95979C12.0351 7.87386 12.0174 7.78177 12.0181 7.68891L12.0292 2.81669ZM8.10145 10.7722H3.22923C3.02547 10.7715 2.82359 10.8111 2.6352 10.8887C2.44681 10.9664 2.27565 11.0805 2.13157 11.2246C1.9875 11.3687 1.87335 11.5398 1.79572 11.7282C1.71808 11.9166 1.67849 12.1185 1.67923 12.3222V17.2222C1.67849 17.426 1.71808 17.6279 1.79572 17.8163C1.87335 18.0047 1.9875 18.1758 2.13157 18.3199C2.27565 18.464 2.44681 18.5781 2.6352 18.6558C2.82359 18.7334 3.02547 18.773 3.22923 18.7722H8.10145C8.30782 18.7753 8.51267 18.7365 8.70364 18.6582C8.89461 18.5799 9.06773 18.4637 9.21256 18.3167C9.35808 18.1707 9.47326 17.9974 9.55145 17.8067C9.62964 17.616 9.66929 17.4117 9.66812 17.2056V12.3222C9.66991 12.1161 9.63054 11.9116 9.55231 11.7208C9.47409 11.53 9.35858 11.3567 9.21256 11.2111C9.06633 11.0671 8.89258 10.954 8.70168 10.8786C8.51078 10.8032 8.30664 10.767 8.10145 10.7722ZM8.83478 17.2222C8.83552 17.3151 8.81778 17.4072 8.78258 17.4931C8.74739 17.5791 8.69544 17.6571 8.62978 17.7228C8.56411 17.7885 8.48604 17.8404 8.4001 17.8756C8.31417 17.9108 8.22209 17.9285 8.12923 17.9278H3.22923C3.13636 17.9285 3.04428 17.9108 2.95835 17.8756C2.87241 17.8404 2.79434 17.7885 2.72867 17.7228C2.66301 17.6571 2.61107 17.5791 2.57587 17.4931C2.54068 17.4072 2.52293 17.3151 2.52367 17.2222V12.3222C2.52293 12.2294 2.54068 12.1373 2.57587 12.0514C2.61107 11.9654 2.66301 11.8874 2.72867 11.8217C2.79434 11.756 2.87241 11.7041 2.95835 11.6689C3.04428 11.6337 3.13636 11.616 3.22923 11.6167H8.10145C8.19661 11.6122 8.2917 11.6271 8.38088 11.6606C8.47007 11.6941 8.55149 11.7454 8.62014 11.8115C8.68879 11.8775 8.74324 11.9569 8.78015 12.0447C8.81706 12.1325 8.83565 12.227 8.83478 12.3222V17.2222ZM8.10145 1.26669H3.22923C3.02316 1.26582 2.81895 1.30561 2.62829 1.38378C2.43763 1.46195 2.26426 1.57697 2.11811 1.72225C1.97284 1.86811 1.85819 2.04155 1.78091 2.23236C1.70363 2.42317 1.66528 2.62751 1.66811 2.83336V7.70558C1.66664 7.90954 1.70572 8.11176 1.78309 8.30048C1.86046 8.48921 1.97458 8.66066 2.1188 8.80489C2.26303 8.94912 2.43449 9.06323 2.62321 9.1406C2.81193 9.21798 3.01415 9.25706 3.21811 9.25558H8.09034C8.29409 9.25631 8.49598 9.21672 8.68436 9.13909C8.87275 9.06145 9.04391 8.94731 9.18799 8.80323C9.33207 8.65916 9.44621 8.48799 9.52385 8.29961C9.60148 8.11122 9.64107 7.90934 9.64034 7.70558V2.81669C9.63887 2.40606 9.4751 2.01266 9.18474 1.72229C8.89437 1.43193 8.50097 1.26816 8.09034 1.26669H8.10145ZM8.83478 7.68891C8.83552 7.78177 8.81778 7.87386 8.78258 7.95979C8.74739 8.04573 8.69544 8.1238 8.62978 8.18947C8.56411 8.25513 8.48604 8.30707 8.4001 8.34227C8.31417 8.37746 8.22209 8.39521 8.12923 8.39447H3.22923C3.13636 8.39521 3.04428 8.37746 2.95835 8.34227C2.87241 8.30707 2.79434 8.25513 2.72867 8.18947C2.66301 8.1238 2.61107 8.04573 2.57587 7.95979C2.54068 7.87386 2.52293 7.78177 2.52367 7.68891V2.81669C2.52293 2.72383 2.54068 2.63175 2.57587 2.54581C2.61107 2.45988 2.66301 2.3818 2.72867 2.31614C2.79434 2.25047 2.87241 2.19853 2.95835 2.16334C3.04428 2.12814 3.13636 2.1104 3.22923 2.11114H8.10145C8.19661 2.1066 8.2917 2.12153 8.38088 2.15502C8.47007 2.18851 8.55149 2.23985 8.62014 2.3059C8.68879 2.37196 8.74324 2.45133 8.78015 2.53916C8.81706 2.62699 8.83565 2.72143 8.83478 2.81669V7.68891ZM15.1681 10.4722C14.3196 10.4722 13.4902 10.7239 12.7848 11.1954C12.0793 11.667 11.5296 12.3371 11.2052 13.1211C10.8807 13.9052 10.7961 14.7678 10.962 15.5999C11.128 16.432 11.537 17.1962 12.1374 17.7958C12.7378 18.3954 13.5025 18.8034 14.3348 18.9683C15.1671 19.1332 16.0297 19.0474 16.8133 18.722C17.5969 18.3965 18.2663 17.8459 18.7369 17.1399C19.2075 16.4338 19.4581 15.6041 19.457 14.7556C19.4555 13.6191 19.003 12.5296 18.1989 11.7265C17.3947 10.9233 16.3046 10.4722 15.1681 10.4722ZM15.1681 18.1945C14.488 18.1945 13.8231 17.9928 13.2576 17.6149C12.692 17.237 12.2513 16.7 11.991 16.0716C11.7307 15.4432 11.6626 14.7518 11.7953 14.0847C11.928 13.4176 12.2555 12.8049 12.7365 12.3239C13.2174 11.843 13.8301 11.5155 14.4972 11.3828C15.1643 11.2501 15.8557 11.3182 16.4841 11.5785C17.1125 11.8387 17.6496 12.2795 18.0274 12.845C18.4053 13.4106 18.607 14.0754 18.607 14.7556C18.607 15.2072 18.5181 15.6544 18.3452 16.0716C18.1724 16.4888 17.9191 16.8679 17.5998 17.1872C17.2804 17.5066 16.9013 17.7599 16.4841 17.9327C16.0669 18.1055 15.6197 18.1945 15.1681 18.1945Z" fill="white"/>
</svg>
