<svg width="41" height="40" viewBox="0 0 41 40" fill="none" xmlns="http://www.w3.org/2000/svg">
<g clip-path="url(#clip0_9574_1017)">
<path opacity="0.2" d="M39.4878 0.814453L24.5563 20.0288L39.4477 39.1841H30.853L20.2735 25.536L9.62472 39.1841H1.06641L15.9579 20.0288L1.06641 0.869783V0.814453H9.62472L20.2735 14.5068L30.9076 0.814453H39.4878Z" fill="#1C437F"/>
<path d="M36.4621 29.1885C36.3154 29.0403 36.2178 28.8496 36.1825 28.6429C36.1473 28.4361 36.1763 28.2233 36.2654 28.0339C37.4064 25.6174 38.005 22.975 38.0182 20.2964C38.0315 17.6178 37.459 14.9694 36.3419 12.5415C36.2303 12.2969 36.2193 12.0175 36.3111 11.7646C36.403 11.5118 36.5903 11.3063 36.8317 11.1933C37.0732 11.0803 37.3491 11.0691 37.5987 11.1621C37.8484 11.2552 38.0513 11.4448 38.1628 11.6894C39.4034 14.3855 40.0392 17.3264 40.0247 20.3009C40.0102 23.2754 39.3458 26.2098 38.0791 28.8934C38.0225 29.0139 37.943 29.1219 37.8452 29.2112C37.7474 29.3005 37.6331 29.3694 37.509 29.414C37.3848 29.4585 37.2532 29.4778 37.1217 29.4708C36.9902 29.4637 36.8613 29.4305 36.7425 29.3729C36.639 29.3286 36.5441 29.2662 36.4621 29.1885Z" fill="url(#paint0_linear_9574_1017)"/>
<path d="M11.7852 3.52229C11.7013 3.43995 11.6333 3.34235 11.5849 3.23457C11.4733 2.98994 11.462 2.71046 11.5535 2.45739C11.6449 2.20431 11.8318 1.9983 12.073 1.88452C14.7351 0.629041 17.6385 -0.0144224 20.5751 0.000245233C23.5117 0.0149128 26.4087 0.687348 29.0585 1.96936C29.3 2.08529 29.4861 2.29362 29.5759 2.54854C29.6657 2.80345 29.6518 3.08406 29.5374 3.32863C29.4229 3.57321 29.2172 3.76171 28.9656 3.85268C28.7139 3.94365 28.4368 3.92962 28.1954 3.8137C25.8096 2.65761 23.2004 2.05138 20.5557 2.03863C17.9109 2.02587 15.2962 2.6069 12.8997 3.73992C12.7141 3.82261 12.508 3.84608 12.3089 3.8072C12.1098 3.76832 11.9272 3.66894 11.7852 3.52229Z" fill="url(#paint1_linear_9574_1017)"/>
<path d="M2.58051 28.602C2.49839 28.5167 2.43072 28.4182 2.38021 28.3106C1.14061 25.6136 0.505292 22.6722 0.519773 19.6973C0.534255 16.7223 1.19818 13.7875 2.46397 11.1029C2.57843 10.8584 2.78412 10.6699 3.0358 10.5789C3.16042 10.5339 3.29257 10.5141 3.42472 10.5208C3.55687 10.5275 3.68643 10.5605 3.80599 10.6179C3.92555 10.6753 4.03278 10.756 4.12156 10.8554C4.21033 10.9547 4.27891 11.0708 4.32338 11.1971C4.36785 11.3233 4.38734 11.4571 4.38074 11.591C4.37413 11.7248 4.34157 11.8561 4.28489 11.9772C3.14348 14.3937 2.54496 17.0363 2.53236 19.7151C2.51977 22.3939 3.09342 25.0422 4.21206 27.4696C4.30966 27.6862 4.32923 27.9306 4.26737 28.1603C4.2055 28.39 4.06612 28.5904 3.87345 28.7268C3.68078 28.8632 3.44701 28.9269 3.21278 28.9068C2.97856 28.8867 2.7587 28.7841 2.59144 28.6168L2.58051 28.602Z" fill="url(#paint2_linear_9574_1017)"/>
<path d="M11.2025 37.842C11.0343 37.673 10.9307 37.4491 10.9101 37.2101C10.8894 36.9711 10.9531 36.7324 11.0898 36.5365C11.2265 36.3405 11.4274 36.2 11.6567 36.1398C11.886 36.0797 12.1289 36.1038 12.3424 36.2079C14.3658 37.184 16.5526 37.7659 18.7884 37.9231C19.3456 37.9637 19.9101 37.9785 20.4709 37.9637C22.9444 37.9136 25.3803 37.342 27.6235 36.2854C27.7431 36.2292 27.8724 36.1974 28.0041 36.1918C28.1358 36.1863 28.2673 36.207 28.391 36.2529C28.5148 36.2988 28.6285 36.369 28.7255 36.4593C28.8225 36.5497 28.901 36.6586 28.9564 36.7797C29.0119 36.9008 29.0433 37.0317 29.0488 37.1651C29.0543 37.2985 29.0338 37.4317 28.9885 37.5571C28.9432 37.6824 28.8739 37.7975 28.7847 37.8958C28.6955 37.994 28.588 38.0735 28.4684 38.1297C25.9739 39.3049 23.2652 39.9418 20.5146 39.9999C19.8919 39.9999 19.2655 39.9999 18.6464 39.9519C16.1601 39.7789 13.7285 39.1319 11.4792 38.0449C11.3757 37.9947 11.2819 37.9259 11.2025 37.842Z" fill="url(#paint3_linear_9574_1017)"/>
<path d="M36.6281 4.87608L27.5782 14.0424L26.1579 12.6039L27.2213 11.5341L28.9475 9.78202C26.8915 7.99863 24.3486 6.89076 21.6563 6.60549C18.9641 6.32022 16.2499 6.87104 13.8739 8.18483C13.7584 8.24949 13.6315 8.29049 13.5004 8.30546C13.3692 8.32044 13.2364 8.30911 13.1096 8.27212C12.9828 8.23513 12.8644 8.1732 12.7613 8.08986C12.6581 8.00653 12.5721 7.90343 12.5082 7.78645C12.4444 7.66947 12.4039 7.54089 12.3891 7.40806C12.3744 7.27524 12.3855 7.14076 12.4221 7.01232C12.4586 6.88387 12.5197 6.76397 12.602 6.65945C12.6843 6.55494 12.7861 6.46786 12.9016 6.4032C15.6605 4.8732 18.8169 4.23878 21.9436 4.58582C25.0702 4.93285 28.0161 6.24458 30.3824 8.34344L34.0534 4.60681L35.2115 3.4375C35.2303 3.80995 35.3847 4.16212 35.6448 4.42607C35.9037 4.69802 36.2556 4.85909 36.6281 4.87608Z" fill="url(#paint4_linear_9574_1017)"/>
<path d="M38.7592 1.28665C38.3522 0.872721 37.8331 0.590444 37.2676 0.475579C36.7021 0.360714 36.1157 0.418431 35.5826 0.641417C35.0495 0.864403 34.5938 1.24262 34.2731 1.72817C33.9524 2.21372 33.7812 2.78474 33.7812 3.36891C33.7812 3.95308 33.9524 4.5241 34.2731 5.00965C34.5938 5.4952 35.0495 5.87342 35.5826 6.0964C36.1157 6.31939 36.7021 6.37711 37.2676 6.26224C37.8331 6.14738 38.3522 5.8651 38.7592 5.45117C39.3029 4.89812 39.6082 4.14941 39.6082 3.36891C39.6082 2.58841 39.3029 1.8397 38.7592 1.28665ZM37.7504 4.42572C37.6041 4.5742 37.4287 4.68997 37.2355 4.76558C37.0423 4.84118 36.8356 4.87494 36.6287 4.86467C36.2577 4.85061 35.906 4.6936 35.6454 4.42572C35.4369 4.21481 35.2948 3.946 35.2371 3.65328C35.1795 3.36057 35.2089 3.05712 35.3216 2.78132C35.4342 2.50552 35.6251 2.26977 35.8701 2.1039C36.1151 1.93803 36.4032 1.8495 36.6979 1.8495C36.9926 1.8495 37.2806 1.93803 37.5256 2.1039C37.7706 2.26977 37.9615 2.50552 38.0742 2.78132C38.1869 3.05712 38.2163 3.36057 38.1586 3.65328C38.101 3.946 37.9589 4.21481 37.7504 4.42572Z" fill="url(#paint5_linear_9574_1017)"/>
<path d="M27.637 33.6141C25.536 34.7816 23.1928 35.4312 20.7976 35.5101H20.3788C16.6273 35.5433 12.9959 34.1719 10.1817 31.6591L5.33074 36.5724C5.31386 36.1973 5.15919 35.8422 4.89708 35.5767C4.63497 35.3113 4.28436 35.1546 3.91406 35.1375L5.06853 33.9682L8.75407 30.2463L10.178 28.8077L11.9043 27.0556L12.964 25.9785L13.3064 26.3253L14.0347 27.063L14.3989 27.4319L13.3319 28.5089L11.5947 30.2463C12.6148 31.135 13.7616 31.8625 14.9962 32.4042C16.6296 33.1237 18.3901 33.5002 20.1712 33.5108H20.3679C22.5721 33.4913 24.7365 32.9144 26.6646 31.8324C26.8974 31.7083 27.1689 31.6815 27.4209 31.7579C27.6729 31.8342 27.8853 32.0076 28.0126 32.2407C28.1399 32.4739 28.1718 32.7483 28.1016 33.0051C28.0314 33.2618 27.8646 33.4805 27.637 33.6141Z" fill="url(#paint6_linear_9574_1017)"/>
<path d="M6.48894 35.4119C6.34357 35.0979 6.14514 34.812 5.9026 34.5672C5.66241 34.3206 5.37978 34.1206 5.06862 33.977C4.44732 33.6864 3.74483 33.6265 3.08434 33.808C2.42384 33.9895 1.84749 34.4006 1.45635 34.9694C1.06521 35.5382 0.884238 36.2283 0.945168 36.9187C1.0061 37.6092 1.30504 38.2558 1.78958 38.7453C2.27412 39.2348 2.91333 39.536 3.59513 39.5959C4.27693 39.6558 4.9578 39.4708 5.51837 39.0731C6.07893 38.6755 6.48341 38.0907 6.66088 37.4212C6.83834 36.7518 6.77747 36.0404 6.48894 35.4119ZM4.89017 37.7099C4.71414 37.8856 4.49773 38.0141 4.26044 38.084C4.02315 38.1538 3.77243 38.1627 3.53087 38.11C3.28931 38.0572 3.06451 37.9444 2.87671 37.7818C2.68891 37.6191 2.54402 37.4117 2.4551 37.1781C2.36617 36.9446 2.336 36.6924 2.3673 36.4441C2.3986 36.1958 2.4904 35.9593 2.63441 35.756C2.77843 35.5526 2.97014 35.3887 3.19227 35.279C3.41441 35.1694 3.65998 35.1174 3.90688 35.1279C4.27717 35.1449 4.62778 35.3016 4.88989 35.5671C5.152 35.8326 5.30667 36.1877 5.32355 36.5627C5.33525 36.7741 5.30268 36.9856 5.22799 37.1833C5.1533 37.381 5.03818 37.5605 4.89017 37.7099Z" fill="url(#paint7_linear_9574_1017)"/>
<path d="M10.859 10.4755C8.37816 12.9773 6.97699 16.3727 6.96228 19.9185C6.95245 21.7878 7.32443 23.6389 8.05483 25.3556C8.22236 25.7466 8.41902 26.1265 8.60475 26.4954C8.67583 26.6131 8.72256 26.7442 8.74209 26.8807C8.76163 27.0172 8.75356 27.1564 8.71839 27.2896C8.68322 27.4229 8.62167 27.5475 8.53748 27.656C8.45329 27.7644 8.34822 27.8544 8.22865 27.9205C8.10908 27.9865 7.9775 28.0273 7.8419 28.0403C7.70631 28.0533 7.56952 28.0382 7.43985 27.996C7.31017 27.9538 7.19032 27.8853 7.08757 27.7948C6.98481 27.7042 6.9013 27.5935 6.8421 27.4692C6.61266 27.045 6.40144 26.6098 6.21206 26.1634C5.06675 23.4683 4.69835 20.4997 5.1495 17.6014C5.60066 14.703 6.85291 11.9932 8.76135 9.78571L3.91406 4.87608C4.28496 4.85892 4.63607 4.70174 4.89826 4.43549C5.16046 4.16923 5.31474 3.81321 5.33074 3.4375L6.48884 4.60681L11.5874 9.77096C11.3434 9.99965 11.0994 10.232 10.859 10.4755Z" fill="url(#paint8_linear_9574_1017)"/>
<path d="M5.90283 1.28773C5.52649 0.905269 5.05376 0.634731 4.53611 0.505576C4.01847 0.376422 3.47576 0.393603 2.96709 0.555248C2.45842 0.716893 2.00329 1.0168 1.65126 1.42232C1.29924 1.82784 1.06381 2.32341 0.970631 2.85508C0.877449 3.38674 0.93008 3.93411 1.12279 4.43757C1.3155 4.94103 1.64091 5.38129 2.06357 5.71039C2.48623 6.03949 2.98994 6.24482 3.51985 6.30402C4.04975 6.36321 4.58554 6.27401 5.06885 6.04612C5.37866 5.89849 5.66083 5.69755 5.90283 5.45224C6.17426 5.17962 6.38969 4.85526 6.53671 4.49788C6.68374 4.14049 6.75943 3.75715 6.75943 3.36999C6.75943 2.98282 6.68374 2.59948 6.53671 2.24209C6.38969 1.88471 6.17426 1.56035 5.90283 1.28773ZM4.8904 4.42679C4.62984 4.69468 4.27812 4.85169 3.90711 4.86574C3.60694 4.88031 3.30944 4.80258 3.05368 4.64276C2.79793 4.48294 2.59589 4.2485 2.4741 3.97024C2.35231 3.69198 2.31646 3.38291 2.37127 3.08364C2.42608 2.78437 2.56898 2.50889 2.7812 2.29339C2.99342 2.07788 3.26504 1.93244 3.56037 1.87615C3.8557 1.81987 4.16093 1.85538 4.43597 1.97803C4.71101 2.10067 4.94299 2.30471 5.10144 2.56334C5.25989 2.82197 5.3374 3.12309 5.32378 3.42716C5.31082 3.80424 5.15574 4.16196 4.8904 4.42679Z" fill="url(#paint9_linear_9574_1017)"/>
<path d="M36.6296 35.1389C36.2573 35.1521 35.9041 35.3091 35.6427 35.5779C35.3812 35.8439 35.2267 36.1989 35.2093 36.5738L28.9453 30.2477C29.2002 30.0301 29.4442 29.7977 29.6737 29.558C31.7076 27.4937 33.0274 24.8182 33.4357 21.9314C33.844 19.0445 33.3189 16.1013 31.9389 13.5417C31.8634 13.3848 31.8295 13.2106 31.8406 13.0364C31.84 12.9032 31.8658 12.7712 31.9165 12.6483C31.9671 12.5254 32.0416 12.414 32.1356 12.3208C32.2452 12.2097 32.3788 12.1259 32.5259 12.076C32.6729 12.0261 32.8294 12.0115 32.983 12.0333C33.1366 12.0551 33.2831 12.1127 33.411 12.2017C33.5388 12.2906 33.6445 12.4084 33.7198 12.5458C35.2271 15.3416 35.85 18.5389 35.5041 21.7051C35.1582 24.8713 33.8603 27.8533 31.7859 30.2477L35.4824 33.9659L36.6296 35.1389Z" fill="url(#paint10_linear_9574_1017)"/>
<path d="M38.758 34.5582C38.4893 34.2824 38.1692 34.0634 37.8163 33.9139C37.4634 33.7645 37.0847 33.6875 36.7022 33.6875C36.3196 33.6875 35.9409 33.7645 35.588 33.9139C35.2351 34.0634 34.915 34.2824 34.6464 34.5582C34.4017 34.8057 34.2009 35.0939 34.0527 35.4103C33.8298 35.9001 33.7437 36.4424 33.8037 36.9783C33.8638 37.5142 34.0677 38.0232 34.3933 38.45C34.7188 38.8768 35.1537 39.205 35.6505 39.399C36.1474 39.593 36.6872 39.6454 37.2114 39.5505C37.7356 39.4556 38.2241 39.217 38.6237 38.8606C39.0234 38.5042 39.319 38.0437 39.4785 37.5291C39.6379 37.0145 39.655 36.4655 39.528 35.9417C39.401 35.418 39.1347 34.9395 38.758 34.5582ZM37.7565 37.7084C37.4773 37.9916 37.0986 38.1509 36.7035 38.1512C36.3084 38.1516 35.9293 37.9929 35.6497 37.7102C35.3701 37.4275 35.2128 37.0438 35.2124 36.6436C35.2121 36.2434 35.3687 35.8595 35.6479 35.5763C35.9093 35.3076 36.2625 35.1505 36.6348 35.1373C36.9374 35.1195 37.2381 35.1958 37.4967 35.356C37.7553 35.5162 37.9593 35.7527 38.0813 36.0337C38.2034 36.3147 38.2377 36.6268 38.1797 36.9281C38.1216 37.2294 37.9739 37.5055 37.7565 37.7194V37.7084Z" fill="url(#paint11_linear_9574_1017)"/>
<path d="M28.6331 12.9691C28.2078 12.4468 27.7347 11.9663 27.2201 11.5342C25.1356 9.77438 22.4768 8.86751 19.7659 8.99173C17.055 9.11595 14.4879 10.2623 12.5688 12.2056C10.6497 14.1489 9.51734 16.7487 9.39405 19.4945C9.27076 22.2402 10.1655 24.9334 11.9025 27.0451C12.0991 27.291 12.3067 27.5234 12.5252 27.7423C12.7763 28.0015 13.04 28.2477 13.3155 28.48C15.4113 30.2461 18.0856 31.1503 20.8085 31.0137C23.5315 30.8771 26.1044 29.7095 28.0176 27.7423L28.3053 27.4435C30.0773 25.4803 31.0868 22.9333 31.1471 20.2741C31.2074 17.6149 30.3142 15.0236 28.6331 12.9802V12.9691ZM23.5345 28.362C21.4294 29.2089 19.0843 29.2089 16.9792 28.362C16.3076 28.0859 15.6716 27.7279 15.0855 27.2959C15.5375 26.2856 16.2674 25.4286 17.1877 24.8274C18.1081 24.2263 19.1799 23.9064 20.2751 23.906H20.2969C21.3894 23.9101 22.4577 24.2317 23.3751 24.8326C24.2924 25.4335 25.0202 26.2885 25.472 27.2959C24.876 27.731 24.2289 28.0891 23.5454 28.362H23.5345ZM18.4359 20.0071C18.4426 19.708 18.5211 19.4151 18.6645 19.1535C18.8079 18.892 19.0119 18.6697 19.2591 18.5059C19.5062 18.342 19.789 18.2415 20.083 18.213C20.377 18.1845 20.6735 18.2289 20.9468 18.3423C21.2201 18.4558 21.4621 18.6348 21.6518 18.8641C21.8416 19.0933 21.9734 19.3659 22.036 19.6583C22.0986 19.9506 22.09 20.254 22.011 20.5423C21.932 20.8306 21.7849 21.095 21.5825 21.3129L21.5534 21.3424C21.3808 21.513 21.1766 21.6471 20.9525 21.7371C20.7352 21.8221 20.5043 21.8659 20.2714 21.8662C20.0281 21.8672 19.787 21.8187 19.5624 21.7236C19.3378 21.6286 19.1344 21.489 18.964 21.3129C18.795 21.1413 18.6611 20.9377 18.5699 20.7136C18.4786 20.4896 18.4319 20.2495 18.4323 20.0071H18.4359ZM27.0015 25.8537C26.1613 24.3368 24.845 23.1476 23.2614 22.4748L23.2905 22.4416V22.4084C23.7365 21.8313 24.0125 21.1383 24.0868 20.4092C24.161 19.6802 24.0305 18.9447 23.7102 18.2875C23.3899 17.6303 22.8929 17.078 22.2763 16.6943C21.6598 16.3106 20.9488 16.111 20.2253 16.1186C19.5017 16.1262 18.7949 16.3405 18.1863 16.737C17.5778 17.1335 17.0921 17.6961 16.7853 18.3598C16.4784 19.0236 16.3629 19.7616 16.452 20.489C16.5411 21.2163 16.8311 21.9034 17.2888 22.4712C15.7002 23.1439 14.3796 24.336 13.5377 25.8574C12.4327 24.5522 11.7205 22.9534 11.4854 21.2506C11.2504 19.5479 11.5024 17.8125 12.2115 16.2504C12.9207 14.6883 14.0573 13.365 15.4865 12.4373C16.9157 11.5096 18.5776 11.0166 20.2751 11.0166C21.9726 11.0166 23.6345 11.5096 25.0637 12.4373C26.4929 13.365 27.6295 14.6883 28.3386 16.2504C29.0478 17.8125 29.2998 19.5479 29.0647 21.2506C28.8297 22.9534 28.1174 24.5522 27.0125 25.8574L27.0015 25.8537Z" fill="url(#paint12_linear_9574_1017)"/>
</g>
<defs>
<linearGradient id="paint0_linear_9574_1017" x1="32.4882" y1="15.5166" x2="42.0546" y2="24.9615" gradientUnits="userSpaceOnUse">
<stop stop-color="#5C71B6"/>
<stop offset="0.18" stop-color="#5E77B9"/>
<stop offset="0.41" stop-color="#6588C1"/>
<stop offset="0.68" stop-color="#71A3CF"/>
<stop offset="0.97" stop-color="#80C9E2"/>
<stop offset="1" stop-color="#82CDE4"/>
</linearGradient>
<linearGradient id="paint1_linear_9574_1017" x1="15.7988" y1="-1.97758" x2="25.4461" y2="7.54719" gradientUnits="userSpaceOnUse">
<stop stop-color="#5C71B6"/>
<stop offset="0.18" stop-color="#5E77B9"/>
<stop offset="0.41" stop-color="#6588C1"/>
<stop offset="0.68" stop-color="#71A3CF"/>
<stop offset="0.97" stop-color="#80C9E2"/>
<stop offset="1" stop-color="#82CDE4"/>
</linearGradient>
<linearGradient id="paint2_linear_9574_1017" x1="-1.39119" y1="14.9298" x2="8.17523" y2="24.3747" gradientUnits="userSpaceOnUse">
<stop stop-color="#5C71B6"/>
<stop offset="0.18" stop-color="#5E77B9"/>
<stop offset="0.41" stop-color="#6588C1"/>
<stop offset="0.68" stop-color="#71A3CF"/>
<stop offset="0.97" stop-color="#80C9E2"/>
<stop offset="1" stop-color="#82CDE4"/>
</linearGradient>
<linearGradient id="paint3_linear_9574_1017" x1="15.2167" y1="32.3425" x2="24.864" y2="41.8673" gradientUnits="userSpaceOnUse">
<stop stop-color="#5C71B6"/>
<stop offset="0.18" stop-color="#5E77B9"/>
<stop offset="0.41" stop-color="#6588C1"/>
<stop offset="0.68" stop-color="#71A3CF"/>
<stop offset="0.97" stop-color="#80C9E2"/>
<stop offset="1" stop-color="#82CDE4"/>
</linearGradient>
<linearGradient id="paint4_linear_9574_1017" x1="38.3471" y1="-6.20101" x2="23.7728" y2="6.67549" gradientUnits="userSpaceOnUse">
<stop stop-color="#715EA9"/>
<stop offset="1" stop-color="#5C71B6"/>
</linearGradient>
<linearGradient id="paint5_linear_9574_1017" x1="43.479" y1="-2.77827" x2="28.0981" y2="10.8073" gradientUnits="userSpaceOnUse">
<stop stop-color="#715EA9"/>
<stop offset="1" stop-color="#5C71B6"/>
</linearGradient>
<linearGradient id="paint6_linear_9574_1017" x1="16.1033" y1="-2.33207" x2="16.0174" y2="41.7956" gradientUnits="userSpaceOnUse">
<stop stop-color="#715EA9"/>
<stop offset="1" stop-color="#5C71B6"/>
</linearGradient>
<linearGradient id="paint7_linear_9574_1017" x1="3.94694" y1="-14.9496" x2="3.83112" y2="43.538" gradientUnits="userSpaceOnUse">
<stop stop-color="#715EA9"/>
<stop offset="1" stop-color="#5C71B6"/>
</linearGradient>
<linearGradient id="paint8_linear_9574_1017" x1="8.38988" y1="-321.044" x2="7.00005" y2="379.675" gradientUnits="userSpaceOnUse">
<stop stop-color="#715EA9"/>
<stop offset="1" stop-color="#5C71B6"/>
</linearGradient>
<linearGradient id="paint9_linear_9574_1017" x1="3.90346" y1="-24.7506" x2="3.78764" y2="33.7444" gradientUnits="userSpaceOnUse">
<stop stop-color="#715EA9"/>
<stop offset="1" stop-color="#5C71B6"/>
</linearGradient>
<linearGradient id="paint10_linear_9574_1017" x1="33.4539" y1="-311.556" x2="32.0641" y2="389.134" gradientUnits="userSpaceOnUse">
<stop stop-color="#715EA9"/>
<stop offset="1" stop-color="#5C71B6"/>
</linearGradient>
<linearGradient id="paint11_linear_9574_1017" x1="36.7477" y1="8.61208" x2="36.6319" y2="67.1071" gradientUnits="userSpaceOnUse">
<stop stop-color="#715EA9"/>
<stop offset="1" stop-color="#5C71B6"/>
</linearGradient>
<linearGradient id="paint12_linear_9574_1017" x1="44.1364" y1="-13.5635" x2="12.3984" y2="29.9581" gradientUnits="userSpaceOnUse">
<stop stop-color="#5C71B6"/>
<stop offset="0.18" stop-color="#5E77B9"/>
<stop offset="0.41" stop-color="#6588C1"/>
<stop offset="0.68" stop-color="#71A3CF"/>
<stop offset="0.97" stop-color="#80C9E2"/>
<stop offset="1" stop-color="#82CDE4"/>
</linearGradient>
<clipPath id="clip0_9574_1017">
<rect width="39.503" height="40" fill="white" transform="translate(0.519531)"/>
</clipPath>
</defs>
</svg>
