<svg width="21" height="20" viewBox="0 0 21 20" fill="none" xmlns="http://www.w3.org/2000/svg">
<g clip-path="url(#clip0_9459_96492)">
<path d="M2.53688 8.9543C2.53688 8.99824 2.52822 9.04175 2.5114 9.08235C2.49459 9.12294 2.46994 9.15983 2.43887 9.1909C2.4078 9.22197 2.37091 9.24662 2.33032 9.26344C2.28972 9.28025 2.24621 9.28891 2.20227 9.28891C2.15832 9.28891 2.11481 9.28025 2.07422 9.26344C2.03362 9.24662 1.99673 9.22197 1.96566 9.1909C1.93459 9.15983 1.90994 9.12294 1.89313 9.08235C1.87631 9.04175 1.86766 8.99824 1.86766 8.9543C1.86766 8.86555 1.90291 8.78044 1.96566 8.71769C2.02841 8.65494 2.11352 8.61969 2.20227 8.61969C2.29101 8.61969 2.37612 8.65494 2.43887 8.71769C2.50162 8.78044 2.53688 8.86555 2.53688 8.9543ZM7.69875 4.68699L6.8323 4.18676C6.7848 4.15932 6.74535 4.11987 6.71792 4.07236C6.6905 4.02484 6.67606 3.97095 6.67605 3.91609V2.91563C6.67606 2.86077 6.6905 2.80688 6.71792 2.75938C6.74535 2.71188 6.7848 2.67243 6.8323 2.645L7.69875 2.14473C7.74625 2.11728 7.80014 2.10283 7.855 2.10283C7.90986 2.10283 7.96375 2.11728 8.01125 2.14473L8.8777 2.645C8.9252 2.67242 8.96465 2.71187 8.99208 2.75938C9.01951 2.80688 9.03395 2.86077 9.03395 2.91563V3.91613C9.03394 3.97099 9.0195 4.02488 8.99207 4.07239C8.96464 4.1199 8.9252 4.15936 8.8777 4.1868L8.01125 4.68703C7.96374 4.71445 7.90985 4.72888 7.85499 4.72887C7.80014 4.72887 7.74625 4.71442 7.69875 4.68699ZM7.30105 3.7357L7.855 4.05555L8.40895 3.7357V3.09605L7.855 2.77621L7.30105 3.09605V3.7357ZM9.9732 10.8747C10.0506 11.0206 10.091 11.1833 10.0907 11.3485C10.0907 11.7413 9.86633 12.0827 9.53902 12.2513C9.62631 12.404 9.67212 12.577 9.67191 12.7529C9.67191 13.0232 9.56613 13.2778 9.3741 13.4698C9.26865 13.5757 9.14109 13.657 9.00055 13.7079V14.3505C9.80852 14.7738 10.3198 15.6093 10.3198 16.5336C10.3198 17.4675 9.80195 18.3103 8.96832 18.733C8.92069 18.7572 8.86765 18.7687 8.81428 18.7666C8.76091 18.7644 8.70898 18.7486 8.66348 18.7206C8.61796 18.6926 8.58037 18.6535 8.5543 18.6069C8.52822 18.5602 8.51453 18.5077 8.51453 18.4543V16.4707L7.85496 16.0899L7.19539 16.4707V18.4543C7.19538 18.5077 7.18169 18.5602 7.15562 18.6068C7.12954 18.6535 7.09196 18.6926 7.04645 18.7206C7.00092 18.7485 6.94899 18.7643 6.89562 18.7665C6.84224 18.7687 6.7892 18.7571 6.74156 18.733C5.90801 18.3103 5.39016 17.4675 5.39016 16.5336C5.39012 15.6093 5.90145 14.7738 6.70938 14.3505V13.8419C6.14629 13.9365 5.64594 14.0076 5.18516 14.0076C4.43938 14.0076 3.79676 13.8212 3.1573 13.2473H1.125C1.04212 13.2473 0.962634 13.2143 0.904029 13.1557C0.845424 13.0971 0.8125 13.0176 0.8125 12.9348V8.08102C0.8125 7.99814 0.845424 7.91865 0.904029 7.86004C0.962634 7.80144 1.04212 7.76852 1.125 7.76852H3.2768C3.62051 7.76437 3.84051 7.52168 4.17082 7.12613C4.60578 6.60523 5.14687 5.9568 6.28965 6.03395L6.70941 6.06223V5.27242C6.06594 4.87664 5.67383 4.18195 5.67383 3.4159C5.67383 2.2132 6.6523 1.23473 7.855 1.23473C9.0577 1.23473 10.0362 2.2132 10.0362 3.4159C10.0362 4.18195 9.64406 4.87664 9.00059 5.27242V7.525H9.27305C9.83254 7.525 10.2877 7.9802 10.2877 8.53973C10.2877 8.74414 10.227 8.93465 10.1225 9.0941C10.3999 9.27543 10.5836 9.58867 10.5836 9.9441C10.5835 10.3599 10.332 10.7182 9.9732 10.8747ZM9.27305 8.15H8.91531V8.92937H9.27305C9.48793 8.92937 9.66277 8.75457 9.66277 8.53969C9.66277 8.3248 9.48793 8.15 9.27305 8.15ZM7.13898 10.3232C7.01095 10.2186 6.90824 10.0864 6.83855 9.93656C6.83852 9.9391 6.83816 9.94156 6.83816 9.9441C6.83816 10.1283 6.96687 10.2828 7.13898 10.3232ZM7.33441 5.08887V6.1043L7.4043 6.10902C7.79887 6.13559 8.12691 6.30906 8.37559 6.56285V5.08891C8.37559 5.03083 8.39177 4.9739 8.42233 4.92452C8.45288 4.87513 8.49659 4.83523 8.54855 4.8093C9.08062 4.54379 9.41117 4.00988 9.41117 3.4159C9.41117 2.55781 8.71309 1.85973 7.855 1.85973C6.99691 1.85973 6.29883 2.55777 6.29883 3.41586C6.29883 4.00984 6.62934 4.54379 7.16145 4.80926C7.21341 4.83519 7.25712 4.87509 7.28767 4.92448C7.31823 4.97387 7.33441 5.03079 7.33441 5.08887ZM2.96734 8.39352H1.4375V12.6223H2.96891C2.96977 12.1378 2.9698 10.9667 2.96734 8.39352ZM6.62449 13.2225C6.54838 13.0777 6.50873 12.9165 6.50898 12.7529C6.50898 12.4896 6.60938 12.2411 6.79211 12.0509C6.61684 11.8685 6.50898 11.6209 6.50894 11.3485C6.50894 11.1441 6.56977 10.9536 6.67414 10.7941C6.45764 10.6527 6.3031 10.4341 6.24191 10.1829C5.90598 10.2831 5.55172 10.2825 5.26223 10.2812L5.19324 10.2812C5.11036 10.2812 5.03088 10.2482 4.97227 10.1896C4.91367 10.131 4.88074 10.0516 4.88074 9.96867C4.88074 9.88579 4.91367 9.80631 4.97227 9.7477C5.03088 9.6891 5.11036 9.65617 5.19324 9.65617L5.26352 9.65629C5.69504 9.65687 6.14055 9.65809 6.41434 9.38488C6.62871 9.17094 6.73738 8.78445 6.73738 8.23605V7.82117L6.73809 7.79695C6.75445 7.48816 7.04684 7.48445 7.04988 7.48445C7.13276 7.48445 7.21225 7.51738 7.27085 7.57598C7.32946 7.63459 7.36238 7.71407 7.36238 7.79695V9.47926C7.36238 9.73508 7.57051 9.9432 7.82629 9.9432C8.08207 9.9432 8.2902 9.73508 8.2902 9.47926V7.91816C8.2902 7.36609 7.94309 6.77168 7.36223 6.73258L6.24762 6.6575C5.42285 6.60207 5.04758 7.05113 4.65051 7.52672C4.37129 7.86109 4.06098 8.23223 3.59227 8.35301C3.59367 9.83508 3.59352 12.7539 3.59336 12.7988C4.41633 13.5264 5.21332 13.4611 6.62449 13.2225ZM8.56703 14.8365C8.5103 14.8127 8.46186 14.7726 8.4278 14.7214C8.39374 14.6701 8.37558 14.61 8.37559 14.5484V13.7675H7.52359C7.45941 13.7675 7.39621 13.7614 7.33441 13.7497V14.5484C7.33441 14.61 7.31624 14.6701 7.28218 14.7214C7.24813 14.7726 7.1997 14.8127 7.14297 14.8365C6.80846 14.9765 6.52286 15.2123 6.32217 15.5143C6.12147 15.8163 6.01466 16.171 6.01519 16.5336C6.0152 17.0405 6.21961 17.5115 6.57043 17.8521V16.2903C6.57043 16.2355 6.58487 16.1816 6.6123 16.1341C6.63973 16.0866 6.67917 16.0471 6.72668 16.0197L7.69875 15.4584C7.74625 15.431 7.80014 15.4165 7.855 15.4165C7.90986 15.4165 7.96375 15.431 8.01125 15.4584L8.98332 16.0196C9.08 16.0755 9.13957 16.1786 9.13957 16.2903V17.8521C9.49043 17.5115 9.69484 17.0405 9.69484 16.5335C9.69534 16.1709 9.58851 15.8163 9.38781 15.5143C9.18711 15.2123 8.90153 14.9765 8.56703 14.8365ZM9.04695 12.7529C9.04695 12.538 8.87215 12.3632 8.65727 12.3632H7.52371C7.42039 12.3632 7.32273 12.4039 7.24871 12.4779C7.17473 12.552 7.13398 12.6496 7.13398 12.7529C7.13398 12.8562 7.17473 12.9539 7.24871 13.0279C7.3227 13.1018 7.42035 13.1426 7.52363 13.1426H8.65727C8.76059 13.1426 8.8582 13.1018 8.93219 13.0279C9.00621 12.9538 9.04695 12.8562 9.04695 12.7529ZM9.46578 11.3484C9.46578 11.1336 9.29098 10.9587 9.07609 10.9587H7.52371C7.30883 10.9587 7.13398 11.1336 7.13398 11.3484C7.13398 11.5633 7.30879 11.7381 7.52363 11.7382H9.07609C9.29098 11.7382 9.46578 11.5633 9.46578 11.3484ZM9.95856 9.94406C9.95856 9.72918 9.78371 9.55434 9.56883 9.55434H8.91238C8.89074 9.86988 8.73422 10.1487 8.50004 10.3337H9.56883C9.78371 10.3338 9.95856 10.1589 9.95856 9.94406ZM20.1875 8.80348V11.1979C20.1875 11.2611 20.1684 11.3228 20.1326 11.3748C20.0969 11.4269 20.0462 11.4669 19.9873 11.4896L18.6729 11.9955C18.4903 12.697 18.2113 13.3698 17.8441 13.9947L18.4161 15.2827C18.4418 15.3404 18.4493 15.4046 18.4378 15.4667C18.4262 15.5287 18.3961 15.5859 18.3515 15.6305L16.6584 17.3237C16.6137 17.3684 16.5566 17.3984 16.4945 17.41C16.4324 17.4215 16.3683 17.414 16.3105 17.3884L15.023 16.8165C14.3979 17.1839 13.7249 17.4629 13.0232 17.6455L12.5174 18.9595C12.4947 19.0184 12.4547 19.0691 12.4026 19.1048C12.3506 19.1406 12.2889 19.1597 12.2257 19.1597H11.0285C10.9456 19.1597 10.8661 19.1268 10.8075 19.0682C10.7489 19.0096 10.716 18.9301 10.716 18.8472V14.5416C10.716 14.4588 10.7489 14.3793 10.8075 14.3207C10.8661 14.2621 10.9456 14.2291 11.0285 14.2291C13.3601 14.2291 15.2569 12.3323 15.2569 10.0008C15.2569 7.66926 13.36 5.77238 11.0285 5.77238C10.9456 5.77238 10.8661 5.73946 10.8075 5.68085C10.7489 5.62225 10.716 5.54276 10.716 5.45988V1.1543C10.716 1.07142 10.7489 0.991931 10.8075 0.933326C10.8661 0.874721 10.9456 0.841797 11.0285 0.841797H12.2257C12.2889 0.841796 12.3505 0.860929 12.4026 0.896673C12.4546 0.932417 12.4947 0.983096 12.5173 1.04203L13.0233 2.35637C13.7248 2.53901 14.3976 2.81795 15.0225 3.18523L16.3105 2.61316C16.3682 2.58756 16.4323 2.58002 16.4944 2.59155C16.5565 2.60309 16.6136 2.63315 16.6583 2.67777L18.3515 4.3709C18.3961 4.41555 18.4262 4.47269 18.4378 4.53478C18.4493 4.59686 18.4418 4.66099 18.4161 4.71871L17.8443 6.00625C18.2117 6.63136 18.4907 7.30436 18.6733 8.00605L19.9873 8.5118C20.0462 8.5345 20.0969 8.57452 20.1326 8.62659C20.1684 8.67865 20.1875 8.74032 20.1875 8.80348ZM19.5625 9.01805L18.2971 8.53098C18.2497 8.51274 18.2075 8.48325 18.1741 8.44504C18.1407 8.40683 18.1171 8.36106 18.1053 8.31168C17.9272 7.56278 17.6305 6.84716 17.2266 6.19187C17.2 6.14864 17.1843 6.09959 17.1809 6.04894C17.1775 5.99829 17.1864 5.94757 17.207 5.90117L17.7578 4.66117L16.368 3.27148L15.1276 3.82242C15.0812 3.84304 15.0305 3.85203 14.9798 3.84864C14.9292 3.84524 14.8801 3.82955 14.8369 3.80293C14.1818 3.39906 13.4663 3.10243 12.7177 2.92426C12.6683 2.91252 12.6225 2.88893 12.5843 2.85553C12.5461 2.82212 12.5166 2.77991 12.4984 2.73254L12.0111 1.4668H11.341V5.15734C13.872 5.31906 15.8819 7.42965 15.8819 10.0008C15.8819 12.5719 13.872 14.6825 11.341 14.8442V18.5347H12.0112L12.4982 17.2693C12.5165 17.2219 12.546 17.1797 12.5842 17.1463C12.6224 17.1129 12.6682 17.0893 12.7175 17.0776C13.4665 16.8994 14.1821 16.6028 14.8374 16.1988C14.8806 16.1722 14.9297 16.1565 14.9804 16.1531C15.031 16.1497 15.0817 16.1587 15.1281 16.1793L16.3682 16.7301L17.7579 15.3404L17.2069 14.0998C17.1863 14.0535 17.1773 14.0027 17.1807 13.9521C17.1841 13.9014 17.1998 13.8524 17.2264 13.8092C17.6303 13.1541 17.9269 12.4386 18.105 11.69C18.1168 11.6406 18.1404 11.5948 18.1738 11.5566C18.2072 11.5184 18.2494 11.4889 18.2968 11.4707L19.5625 10.9834V9.01805Z" fill="white"/>
</g>
<defs>
<clipPath id="clip0_9459_96492">
<rect width="20" height="20" fill="white" transform="translate(0.5)"/>
</clipPath>
</defs>
</svg>
