<svg width="40" height="40" viewBox="0 0 40 40" fill="none" xmlns="http://www.w3.org/2000/svg">
<path d="M35.8333 36.6663H4.16667C3.062 36.665 2.00296 36.2256 1.22185 35.4445C0.440735 34.6634 0.00132321 33.6043 0 32.4997L0 29.1663C0 28.9453 0.0877974 28.7334 0.244078 28.5771C0.400358 28.4208 0.61232 28.333 0.833333 28.333H1.66667C3.505 28.333 5 26.838 5 24.9997C5 23.1613 3.505 21.6663 1.66667 21.6663H0.833333C0.61232 21.6663 0.400358 21.5785 0.244078 21.4223C0.0877974 21.266 0 21.054 0 20.833V17.4997C0 15.203 1.87 13.333 4.16667 13.333H35.8333C38.13 13.333 40 15.203 40 17.4997V20.833C40 21.054 39.9122 21.266 39.7559 21.4223C39.5996 21.5785 39.3877 21.6663 39.1667 21.6663H38.3333C37.6749 21.6681 37.0316 21.8646 36.4846 22.2311C35.9376 22.5977 35.5113 23.1179 35.2593 23.7262C35.0074 24.3346 34.941 25.0038 35.0687 25.6498C35.1963 26.2958 35.5123 26.8896 35.9767 27.3563C36.605 27.9863 37.4417 28.333 38.3317 28.333H39.165C39.386 28.333 39.598 28.4208 39.7543 28.5771C39.9105 28.7334 39.9983 28.9453 39.9983 29.1663V32.4997C39.9975 33.6042 39.5584 34.6632 38.7776 35.4444C37.9967 36.2256 36.9378 36.665 35.8333 36.6663ZM1.66667 29.9997V32.4997C1.66667 33.878 2.78833 34.9997 4.16667 34.9997H35.8333C37.2117 34.9997 38.3333 33.878 38.3333 32.4997V29.9997C37.6769 30.0015 37.0249 29.873 36.4185 29.6219C35.812 29.3707 35.2613 29.0017 34.7983 28.5363C34.3325 28.0729 33.9631 27.5218 33.7117 26.9147C33.4602 26.3077 33.3316 25.6568 33.3333 24.9997C33.3333 22.243 35.5767 19.9997 38.3333 19.9997V17.4997C38.3333 16.1213 37.2117 14.9997 35.8333 14.9997H4.16667C2.78833 14.9997 1.66667 16.1213 1.66667 17.4997V19.9997C4.42333 19.9997 6.66667 22.243 6.66667 24.9997C6.66667 27.7563 4.42333 29.9997 1.66667 29.9997Z" fill="#464D9B"/>
<path d="M14.1666 16.6663C13.9456 16.6663 13.7337 16.5785 13.5774 16.4223C13.4211 16.266 13.3333 16.054 13.3333 15.833V14.1663C13.3333 13.9453 13.4211 13.7334 13.5774 13.5771C13.7337 13.4208 13.9456 13.333 14.1666 13.333C14.3877 13.333 14.5996 13.4208 14.7559 13.5771C14.9122 13.7334 15 13.9453 15 14.1663V15.833C15 16.054 14.9122 16.266 14.7559 16.4223C14.5996 16.5785 14.3877 16.6663 14.1666 16.6663ZM14.1666 30.768C13.9456 30.768 13.7337 30.6802 13.5774 30.5239C13.4211 30.3677 13.3333 30.1557 13.3333 29.9347V27.1163C13.3333 26.8953 13.4211 26.6834 13.5774 26.5271C13.7337 26.3708 13.9456 26.283 14.1666 26.283C14.3877 26.283 14.5996 26.3708 14.7559 26.5271C14.9122 26.6834 15 26.8953 15 27.1163V29.9363C14.9995 30.1571 14.9115 30.3686 14.7553 30.5245C14.5991 30.6804 14.3874 30.768 14.1666 30.768ZM14.1666 23.718C13.9456 23.718 13.7337 23.6302 13.5774 23.4739C13.4211 23.3177 13.3333 23.1057 13.3333 22.8847V20.0647C13.3333 19.8437 13.4211 19.6317 13.5774 19.4754C13.7337 19.3191 13.9456 19.2313 14.1666 19.2313C14.3877 19.2313 14.5996 19.3191 14.7559 19.4754C14.9122 19.6317 15 19.8437 15 20.0647V22.8847C15 23.1057 14.9122 23.3177 14.7559 23.4739C14.5996 23.6302 14.3877 23.718 14.1666 23.718ZM14.1666 36.6663C13.9456 36.6663 13.7337 36.5785 13.5774 36.4223C13.4211 36.266 13.3333 36.054 13.3333 35.833V34.1663C13.3333 33.9453 13.4211 33.7334 13.5774 33.5771C13.7337 33.4208 13.9456 33.333 14.1666 33.333C14.3877 33.333 14.5996 33.4208 14.7559 33.5771C14.9122 33.7334 15 33.9453 15 34.1663V35.833C15 36.054 14.9122 36.266 14.7559 36.4223C14.5996 36.5785 14.3877 36.6663 14.1666 36.6663Z" fill="#464D9B"/>
<path d="M4.16667 14.9999C3.96914 15.0041 3.77656 14.9378 3.62358 14.8127C3.4706 14.6877 3.36724 14.5122 3.33209 14.3177C3.29694 14.1233 3.3323 13.9227 3.43182 13.752C3.53134 13.5813 3.68849 13.4517 3.87501 13.3865L30.375 3.49154C31.6633 3.00821 33.1767 3.73154 33.6167 5.02987L36.6217 13.8982C36.6895 14.1067 36.6725 14.3335 36.5742 14.5295C36.4759 14.7255 36.3044 14.8749 36.0968 14.9453C35.8891 15.0157 35.6621 15.0014 35.4649 14.9055C35.2677 14.8097 35.1163 14.64 35.0433 14.4332L32.0383 5.56487C31.9619 5.35419 31.8054 5.18215 31.6029 5.08606C31.4004 4.98996 31.1682 4.97756 30.9567 5.05154L4.45668 14.9465C4.36413 14.9821 4.2658 15.0001 4.16667 14.9999Z" fill="#464D9B"/>
</svg>
