<svg width="13" height="13" viewBox="0 0 13 13" fill="none" xmlns="http://www.w3.org/2000/svg">
<g clip-path="url(#clip0_9089_17460)">
<path d="M12.0001 6.99984C12.1251 6.99984 12.2502 6.8748 12.2502 6.74976V5.24976C12.2502 4.82472 11.9252 4.49976 11.5002 4.49976H9.5V11.4998H11.4999C11.925 11.4998 12.2499 11.1749 12.2499 10.7498V9.24984C12.2498 9.18355 12.2234 9.12001 12.1765 9.07314C12.1297 9.02627 12.0661 8.99988 11.9998 8.99976C11.7373 8.99569 11.4869 8.88855 11.3027 8.70146C11.1185 8.51437 11.0153 8.26235 11.0153 7.9998C11.0153 7.73724 11.1185 7.48522 11.3027 7.29813C11.4869 7.11104 11.7373 7.0039 11.9998 6.99984H12.0001Z" fill="white"/>
<path d="M11.8252 3.7501C11.9502 3.70018 12.0251 3.55018 11.9752 3.42514L11.475 2.00002C11.35 1.59994 10.899 1.40002 10.5251 1.52506L3.42517 3.97498H11.4251C11.5437 3.87631 11.6792 3.8001 11.8252 3.7501Z" fill="white"/>
<path d="M0.750122 5.25V6.75C0.750122 6.9 0.850202 7.00008 1.0002 7.00008C1.13282 6.99803 1.26453 7.02237 1.38765 7.0717C1.51077 7.12103 1.62285 7.19436 1.71736 7.28742C1.81187 7.38048 1.88693 7.49141 1.93816 7.61375C1.98939 7.73609 2.01577 7.8674 2.01577 8.00004C2.01577 8.13268 1.98939 8.26399 1.93816 8.38633C1.88693 8.50867 1.81187 8.6196 1.71736 8.71266C1.62285 8.80572 1.51077 8.87905 1.38765 8.92838C1.26453 8.97771 1.13282 9.00206 1.0002 9C0.850202 9 0.750122 9.10008 0.750122 9.25008V10.7501C0.750122 11.1751 1.07508 11.5001 1.50012 11.5001H9.00012V4.5H1.50012C1.07604 4.5 0.750122 4.82496 0.750122 5.25ZM3.75012 6.49992H5.25012C5.40012 6.49992 5.5002 6.6 5.5002 6.75C5.5002 6.9 5.40012 7.00008 5.25012 7.00008H3.75012C3.60012 7.00008 3.50004 6.9 3.50004 6.75C3.50004 6.6 3.60012 6.49992 3.75012 6.49992ZM3.75012 7.74984H6.99996C7.14996 7.74984 7.25004 7.84992 7.25004 7.99992C7.25004 8.14992 7.14996 8.25 6.99996 8.25H3.75012C3.60012 8.25 3.50004 8.14992 3.50004 7.99992C3.50004 7.84992 3.60012 7.74984 3.75012 7.74984ZM3.75012 8.99976H6.99996C7.14996 8.99976 7.25004 9.09984 7.25004 9.24984C7.25004 9.39984 7.14996 9.49992 6.99996 9.49992H3.75012C3.60012 9.49992 3.50004 9.39984 3.50004 9.24984C3.50004 9.09984 3.60012 9 3.75012 9V8.99976Z" fill="white"/>
</g>
<defs>
<clipPath id="clip0_9089_17460">
<rect width="12" height="12" fill="white" transform="translate(0.5 0.5)"/>
</clipPath>
</defs>
</svg>
