<svg width="25" height="25" viewBox="0 0 25 25" fill="none" xmlns="http://www.w3.org/2000/svg">
<path d="M12.3088 0L22.9686 6.15442V18.4633L12.3088 24.6177L1.64907 18.4633V6.15442L12.3088 0Z" fill="#F49C25"/>
<path d="M17.2511 8.66629C17.4677 8.54124 17.5805 8.3218 17.4999 8.18222L17.3033 7.84179C16.4366 6.34047 15.4653 6.29296 13.1358 7.63793L9.83424 9.54407L10.2765 10.3101C10.3571 10.4496 10.2443 10.6691 10.0277 10.7941C9.81113 10.9192 9.5647 10.9071 9.48412 10.7675L9.04188 10.0015L7.85333 10.6878C5.52377 12.0327 5.0793 12.8976 5.94608 14.3989L6.04436 14.5691C6.12494 14.7087 6.37137 14.7208 6.58795 14.5957C7.09507 14.3029 7.66766 14.3309 7.85635 14.6578C8.04503 14.9846 7.783 15.4945 7.27588 15.7872C7.0593 15.9123 6.94652 16.1317 7.02711 16.2713L7.12539 16.4415C7.99217 17.9428 8.9634 17.9903 11.293 16.6454L12.4815 15.9592L12.0393 15.1932C11.9587 15.0536 12.0715 14.8342 12.288 14.7091C12.5046 14.5841 12.7511 14.5961 12.8316 14.7357L13.2739 15.5017L16.5754 13.5956C18.905 12.2506 19.3494 11.3857 18.4827 9.8844C18.4021 9.74482 18.1556 9.73277 17.9391 9.85781C17.4319 10.1506 16.8594 10.1226 16.6707 9.79577C16.482 9.46895 16.744 8.95907 17.2511 8.66629ZM11.9806 13.2616C12.0612 13.4012 11.9484 13.6206 11.7318 13.7457C11.5152 13.8707 11.2688 13.8587 11.1882 13.7191L10.3352 12.2416C10.2546 12.102 10.3674 11.8826 10.584 11.7575C10.8005 11.6325 11.047 11.6446 11.1275 11.7841L11.9806 13.2616Z" fill="white"/>
</svg>
