<svg width="30" height="20" viewBox="0 0 30 20" fill="none" xmlns="http://www.w3.org/2000/svg">
<g clip-path="url(#clip0_1540_2670)">
<path d="M17.0711 12.9289C15.9819 11.8398 14.6855 11.0335 13.2711 10.5454C14.786 9.50199 15.7812 7.75578 15.7812 5.78125C15.7812 2.59348 13.1878 0 10 0C6.81223 0 4.21875 2.59348 4.21875 5.78125C4.21875 7.75578 5.21402 9.50199 6.72898 10.5454C5.31453 11.0335 4.01813 11.8398 2.92895 12.9289C1.0402 14.8177 0 17.3289 0 20H1.5625C1.5625 15.3475 5.34754 11.5625 10 11.5625C14.6525 11.5625 18.4375 15.3475 18.4375 20H20C20 17.3289 18.9598 14.8177 17.0711 12.9289ZM10 10C7.67379 10 5.78125 8.1075 5.78125 5.78125C5.78125 3.455 7.67379 1.5625 10 1.5625C12.3262 1.5625 14.2188 3.455 14.2188 5.78125C14.2188 8.1075 12.3262 10 10 10Z" fill="#70797F"/>
</g>
<g clip-path="url(#clip1_1540_2670)">
<path d="M25 15C24.8705 15 24.7463 14.9486 24.6547 14.857C24.5632 14.7654 24.5117 14.6412 24.5117 14.5117V5.48828C24.5117 5.35878 24.5632 5.23458 24.6547 5.14301C24.7463 5.05144 24.8705 5 25 5C25.1295 5 25.2537 5.05144 25.3453 5.14301C25.4368 5.23458 25.4883 5.35878 25.4883 5.48828V14.5117C25.4883 14.6412 25.4368 14.7654 25.3453 14.857C25.2537 14.9486 25.1295 15 25 15Z" fill="#70797F"/>
<path d="M29.5117 10.4883H20.4883C20.3588 10.4883 20.2346 10.4368 20.143 10.3453C20.0514 10.2537 20 10.1295 20 10C20 9.8705 20.0514 9.7463 20.143 9.65473C20.2346 9.56316 20.3588 9.51172 20.4883 9.51172H29.5117C29.6412 9.51172 29.7654 9.56316 29.857 9.65473C29.9486 9.7463 30 9.8705 30 10C30 10.1295 29.9486 10.2537 29.857 10.3453C29.7654 10.4368 29.6412 10.4883 29.5117 10.4883Z" fill="#70797F"/>
</g>
<defs>
<clipPath id="clip0_1540_2670">
<rect width="20" height="20" fill="white"/>
</clipPath>
<clipPath id="clip1_1540_2670">
<rect width="10" height="10" fill="white" transform="translate(20 5)"/>
</clipPath>
</defs>
</svg>
