<svg width="25" height="23" viewBox="0 0 25 23" fill="none" xmlns="http://www.w3.org/2000/svg">
<path d="M0 0.047718C2.26652 0.047718 4.53303 0.047718 6.86823 0.047718C7.22804 0.727664 7.58785 1.40761 7.95856 2.10816C10.2956 6.52682 10.2956 6.52682 12.6547 10.9337C12.7309 11.0751 12.8072 11.2166 12.8857 11.3623C13.169 11.8877 13.4523 12.4131 13.7358 12.9384C14.0221 13.469 14.3081 13.9997 14.5936 14.5307C14.6851 14.7007 14.7767 14.8706 14.8684 15.0404C14.9958 15.2762 15.1227 15.5123 15.2496 15.7484C15.3223 15.8832 15.3949 16.018 15.4697 16.1569C15.5637 16.3422 15.5637 16.3422 15.6596 16.5312C15.719 16.6484 15.7785 16.7656 15.8398 16.8863C15.9343 17.2181 15.9343 17.2181 15.8403 17.5151C15.7503 17.6634 15.7503 17.6634 15.6585 17.8147C15.5916 17.928 15.5247 18.0413 15.4558 18.158C15.3814 18.2785 15.307 18.3989 15.2303 18.523C15.0775 18.7796 14.9247 19.0363 14.7721 19.293C14.6922 19.4253 14.6124 19.5577 14.5302 19.694C14.1291 20.365 13.7446 21.0454 13.3587 21.7253C13.2193 21.9695 13.0798 22.2136 12.9402 22.4577C12.8816 22.5602 12.823 22.6627 12.7627 22.7683C12.7007 22.8767 12.7007 22.8767 12.6375 22.9873C12.5469 22.9873 12.4562 22.9873 12.3628 22.9873C12.3097 22.8873 12.2567 22.7874 12.202 22.6844C11.2919 20.9721 10.3806 19.2622 9.41806 17.5786C8.62666 16.1929 7.87377 14.7886 7.12589 13.3791C7.03303 13.2041 6.94017 13.0291 6.8473 12.8541C6.80197 12.7687 6.75664 12.6833 6.70994 12.5952C6.30459 11.8323 5.89241 11.0733 5.47741 10.3156C4.80428 9.08632 4.13819 7.8534 3.47479 6.61886C3.07234 5.87019 2.66877 5.12218 2.26222 4.37572C2.18359 4.23121 2.10496 4.0867 2.02395 3.93781C1.87731 3.66852 1.73042 3.39937 1.58321 3.1304C1.02965 2.11323 0.51894 1.08558 0 0.047718Z" fill="#0079FD"/>
<path d="M18.4065 0.0477419C18.6899 -0.00181353 18.6899 -0.00181352 19.043 0.000959469C19.241 0.00100616 19.241 0.00100616 19.4429 0.00105379C19.5857 0.00318069 19.7286 0.0053076 19.8757 0.00749895C20.0216 0.00808204 20.1676 0.00866512 20.318 0.00926587C20.7855 0.0115779 21.253 0.0167511 21.7205 0.0219864C22.0369 0.0240525 22.3533 0.0259329 22.6697 0.0276204C23.4465 0.0321711 24.2232 0.0390727 25 0.0477419C24.8182 0.643185 24.5867 1.16363 24.2853 1.7079C24.2209 1.82553 24.2209 1.82553 24.1552 1.94553C23.9162 2.38021 23.6711 2.8108 23.4209 3.23911C22.9235 4.09696 22.4905 4.90065 22.1862 5.85078C21.8376 6.82199 21.5404 7.63072 20.6044 8.15214C18.5037 8.65602 16.1384 8.35097 14.0109 8.15214C14.1875 7.57616 14.4057 7.07222 14.7004 6.54725C14.7834 6.3986 14.8664 6.24995 14.9519 6.0968C15.0408 5.9393 15.1298 5.78179 15.2214 5.61952C15.3135 5.45527 15.4056 5.29099 15.4976 5.12667C15.7332 4.70623 15.9698 4.2863 16.2066 3.86651C16.4281 3.47364 16.6489 3.08035 16.8698 2.68714C17.03 2.40254 17.1902 2.11798 17.3505 1.83346C17.4253 1.70076 17.5001 1.56805 17.5771 1.43133C17.6809 1.24791 17.6809 1.24791 17.7868 1.06079C17.847 0.954196 17.9073 0.847601 17.9694 0.737775C18.1068 0.502687 18.2555 0.274294 18.4065 0.0477419Z" fill="#0077FB"/>
</svg>
